<svg width="200" height="200" viewBox="0 0 200 200" fill="none" xmlns="http://www.w3.org/2000/svg">
<g clip-path="url(#clip0_0_21)">
<path d="M76.5895 103.107C77.6168 103.107 78.5695 102.568 79.0992 101.688L84.3848 92.9086L91.3887 104.038C91.9363 104.909 92.8934 105.426 93.9297 105.407C94.9582 105.386 95.9 104.826 96.4109 103.933L107.686 84.2316L122.83 111.829C123.336 112.75 124.296 113.33 125.346 113.349C125.364 113.349 125.381 113.35 125.398 113.35C126.429 113.35 127.386 112.807 127.915 111.919L137.35 96.0809H160.101C161.719 96.0809 163.03 94.7691 163.03 93.1512C163.03 91.5332 161.719 90.2215 160.101 90.2215H135.685C134.653 90.2215 133.696 90.7648 133.168 91.652L125.503 104.52L110.309 76.8301C109.798 75.9008 108.827 75.3195 107.766 75.3098C107.757 75.3098 107.749 75.3098 107.74 75.3098C106.69 75.3098 105.72 75.8719 105.197 76.784L93.7488 96.7879L86.809 85.7602C86.2723 84.9074 85.3359 84.391 84.3293 84.391C84.3199 84.391 84.3102 84.391 84.3004 84.391C83.2832 84.4008 82.3441 84.9379 81.8195 85.8094L74.9336 97.2473H58.2832C56.6652 97.2473 55.3535 98.559 55.3535 100.177C55.3535 101.795 56.6652 103.107 58.2832 103.107H76.5895Z" fill="#3E517A"/>
<path d="M165.272 21.7949C163.654 21.7949 162.342 23.1066 162.342 24.7246V33.3668H153.701C152.083 33.3668 150.771 34.6785 150.771 36.2965C150.771 37.9145 152.083 39.2262 153.701 39.2262H162.342V47.8687C162.342 49.4867 163.654 50.7984 165.272 50.7984C166.89 50.7984 168.202 49.4867 168.202 47.8687V39.2262H176.843C178.461 39.2262 179.773 37.9145 179.773 36.2965C179.773 34.6785 178.461 33.3668 176.843 33.3668H168.202V24.7246C168.202 23.1066 166.89 21.7949 165.272 21.7949Z" fill="#3E517A"/>
<path d="M175.609 122.172C189.882 106.913 193.973 83.8391 186.127 64.0578C194.546 57.7125 200 47.6301 200 36.2965C200 17.1461 184.421 1.56641 165.272 1.56641C157.406 1.56641 149.703 4.26602 143.582 9.16797C142.319 10.1793 142.115 12.023 143.127 13.2859C144.138 14.5484 145.982 14.7527 147.245 13.7414C152.404 9.60938 158.637 7.42578 165.271 7.42578C181.189 7.42578 194.14 20.3773 194.14 36.2965C194.14 52.2223 181.19 65.1785 165.271 65.1785C150.45 65.1785 138.207 53.9527 136.581 39.5578C136.578 39.5246 136.572 39.491 136.568 39.4574C136.454 38.4188 136.391 37.3648 136.391 36.2965C136.391 31.7746 137.407 27.4504 139.411 23.4434C140.134 21.9961 139.547 20.2363 138.1 19.5125C136.652 18.7895 134.893 19.3758 134.17 20.8227C131.756 25.6504 130.532 30.8566 130.532 36.2961C130.532 36.7883 130.545 37.2773 130.565 37.7648C123.168 40.409 116.262 44.7578 110.476 50.4488L107.238 53.6324C107.222 53.6168 107.21 53.6051 107.195 53.5895L104.011 50.4527C93.7102 40.2965 80.2258 34.6207 67.0109 34.8941C56.0148 35.1207 46.2844 39.4293 38.8742 47.3512C37.7687 48.5348 37.8312 50.3902 39.0148 51.4957C40.1984 52.5973 42.05 52.5387 43.1555 51.3551C49.4602 44.6129 57.7492 40.9449 67.132 40.7535C78.7727 40.5152 90.7141 45.5738 99.8977 54.6246L103.085 57.7652C104.624 59.2809 105.937 60.0348 107.245 60.0348C108.542 60.0348 109.835 59.2926 111.347 57.8082L114.585 54.6246C119.451 49.8418 125.191 46.1176 131.335 43.7289C134.748 59.3258 148.666 71.0375 165.271 71.0375C170.956 71.0375 176.326 69.6641 181.067 67.2313C187.559 84.6926 183.831 104.78 171.351 118.144L129.293 161.195L125.812 161.875C124.969 162.039 124.223 162.188 123.543 162.324C119.129 163.219 118.074 163.43 112.906 162.633L87.8477 158.051C84.4336 156.871 84.7773 154.152 84.9688 153.336C85.2695 152.066 86.4492 150.016 88.9844 150.398C89.0078 150.402 89.0312 150.406 89.0547 150.41C90.1836 150.555 91.3945 150.711 92.6602 150.871C97.4062 151.484 102.781 152.176 107.555 152.664C117.32 153.652 122.844 148.527 123.992 143.004C125.16 137.375 121.953 129.891 112.148 126.762C112.031 126.727 111.91 126.695 111.785 126.672L95.6484 123.711C86.8906 122.105 80.0781 123.344 69.7656 125.219C67.0391 125.715 63.9453 126.273 60.5 126.84L52.8516 128.098L50.4961 125.688L43.1328 118.148C29.3711 103.395 26.3203 80.2852 35.7266 61.9375C36.4648 60.5 35.8945 58.7344 34.457 57.9961C33.0156 57.2578 31.25 57.8242 30.5117 59.2656C19.9961 79.7813 23.4336 105.648 38.875 122.172C38.8906 122.188 38.9062 122.203 38.918 122.219L45.793 129.258L32.9891 131.363V131.028C32.9891 128.766 30.9934 126.926 28.5402 126.926H4.4375C1.99062 126.926 0 128.766 0 131.028V182.577C0 184.839 1.99062 186.679 4.4375 186.679H28.5406C30.9938 186.679 32.9895 184.839 32.9895 182.577V182.222L59.3359 189.391L83.6562 196C89.207 197.723 93.6797 198.434 97.7617 198.434C104.223 198.434 109.711 196.66 116.961 194.316C117.605 194.109 118.266 193.895 118.945 193.676L166.871 178.309C172.426 176.527 176.379 172.527 177.441 167.609C178.266 163.797 177.117 160.031 174.367 157.535C172.141 155.516 166.906 152.617 156.816 155.809L139.418 159.211L175.566 122.219C175.582 122.203 175.594 122.188 175.609 122.172ZM5.85938 180.82V132.785H27.1297V134.798C27.1297 134.804 27.1289 134.81 27.1289 134.816V178.386C27.1289 178.39 27.1297 178.393 27.1297 178.396V180.82H5.85938ZM158.438 161.441C163.844 159.707 168.215 159.863 170.434 161.875C171.629 162.961 172.098 164.602 171.715 166.367C171.098 169.215 168.617 171.594 165.082 172.727L117.152 188.098C116.469 188.316 115.805 188.531 115.156 188.742C103.691 192.445 97.9375 194.309 85.3438 190.391C85.3125 190.379 85.2773 190.371 85.2422 190.359L32.9891 176.149V137.301L61.4492 132.625C64.9414 132.051 68.0625 131.48 70.8164 130.98C80.8359 129.16 86.8867 128.062 94.5898 129.477L110.539 132.402C116.758 134.445 118.902 138.699 118.254 141.813C117.508 145.41 113.539 147.383 108.148 146.836C103.453 146.355 98.1172 145.668 93.4102 145.062C92.1523 144.898 90.9453 144.742 89.8242 144.602C84.2227 143.773 80.2734 147.691 79.2656 152C79.0508 152.918 78.9648 153.895 79.0273 154.879C79.2422 158.441 81.3711 162.137 86.2305 163.688C86.3516 163.727 87.9688 164.027 87.9688 164.027L111.895 168.402C111.918 168.406 111.945 168.41 111.973 168.414C116.91 169.184 119.047 169.117 122.074 168.582C122.867 168.441 126.102 167.785 126.934 167.625L132.207 166.594C132.207 166.594 158.328 161.477 158.438 161.441Z" fill="#3E517A"/>
</g>
<defs>
<clipPath id="clip0_0_21">
<rect width="200" height="200" fill="white"/>
</clipPath>
</defs>
</svg>
