<?xml version="1.0" encoding="UTF-8"?>
<svg id="Layer_2" data-name="Layer 2" xmlns="http://www.w3.org/2000/svg" viewBox="0 0 313.52 113.79">
  <defs>
    <style>
      .cls-1 {
        fill: #cbe6f6;
      }

      .cls-2 {
        fill: #465278;
      }
    </style>
  </defs>
  <g id="Layer_1-2" data-name="Layer 1">
    <g>
      <path class="cls-1" d="M.12,101.79L13.26,12C14.23,5.37,20.61,0,27.5,0h275.16c6.9,0,11.7,5.37,10.74,12l-13.13,89.79c-.97,6.63-7.35,12-14.25,12H10.86c-6.9,0-11.7-5.37-10.74-12Z"/>
      <g>
        <g>
          <path class="cls-2" d="M29.06,85.67c-.15,0-.27-.05-.34-.14s-.1-.21-.07-.36l3.01-14.08h-4.51c-.15,0-.27-.05-.34-.14-.08-.09-.1-.21-.07-.36l.07-.34c.03-.17.1-.3.22-.39s.25-.14.4-.14h10.43c.17,0,.28.05.35.14s.09.22.06.39l-.07.34c-.03.15-.1.27-.2.36-.11.09-.24.14-.41.14h-4.49l-3.01,14.08c-.03.15-.1.27-.21.36-.11.09-.24.14-.41.14h-.41Z"/>
          <path class="cls-2" d="M37.76,85.67c-.15,0-.27-.05-.34-.14s-.1-.21-.07-.36l3.17-14.92c.03-.17.1-.3.22-.39s.25-.14.4-.14h8.88c.17,0,.28.05.35.14s.09.22.06.39l-.07.34c-.03.15-.1.27-.2.36-.11.09-.24.14-.41.14h-7.95l-1.25,5.81h7.45c.17,0,.28.05.35.14.07.09.09.22.06.39l-.07.34c-.03.15-.1.27-.2.36-.11.09-.24.14-.41.14h-7.45l-1.3,6.04h8.13c.17,0,.28.05.35.14.07.09.09.22.06.39l-.07.34c-.03.15-.1.27-.21.36-.11.09-.24.14-.41.14h-9.07Z"/>
          <path class="cls-2" d="M55.66,85.9c-1.03,0-1.9-.15-2.6-.46-.7-.3-1.24-.74-1.63-1.3-.39-.56-.63-1.22-.74-1.97-.11-.75-.08-1.57.07-2.45.11-.62.24-1.29.4-2,.16-.71.31-1.4.47-2.05.3-1.18.75-2.24,1.34-3.18s1.37-1.67,2.33-2.2c.96-.53,2.14-.8,3.52-.8,1.08,0,1.97.14,2.69.43.71.29,1.27.68,1.67,1.16.4.49.66,1.02.79,1.59s.14,1.15.05,1.73c-.02.14-.06.25-.13.33s-.17.12-.31.12h-.52c-.12,0-.24-.03-.34-.1s-.15-.19-.14-.38c.14-1.29-.15-2.2-.87-2.73-.71-.53-1.68-.8-2.89-.8-1.38,0-2.59.39-3.61,1.17-1.03.78-1.75,2.03-2.18,3.75-.32,1.25-.59,2.52-.82,3.83-.3,1.72-.15,2.96.46,3.75s1.6,1.17,2.98,1.17c1.21,0,2.29-.25,3.22-.75.93-.5,1.69-1.43,2.27-2.78.08-.18.16-.31.25-.38.09-.07.2-.1.32-.1h.52c.14,0,.24.04.32.12.08.08.09.19.05.33-.17.53-.41,1.09-.73,1.66-.32.58-.75,1.11-1.29,1.61-.54.49-1.21.89-2.02,1.2-.81.3-1.78.46-2.92.46Z"/>
          <path class="cls-2" d="M65,85.67c-.15,0-.27-.05-.34-.14s-.1-.21-.07-.36l3.17-14.92c.03-.17.1-.3.22-.39s.25-.14.4-.14h.41c.17,0,.28.05.35.14s.09.22.06.39l-1.41,6.65h8.79l1.41-6.65c.03-.17.1-.3.22-.39.11-.09.25-.14.4-.14h.41c.17,0,.28.05.35.14s.09.22.06.39l-3.17,14.92c-.03.15-.1.27-.21.36-.11.09-.24.14-.41.14h-.41c-.15,0-.27-.05-.34-.14-.08-.09-.1-.21-.07-.36l1.48-6.9h-8.79l-1.48,6.9c-.03.15-.1.27-.2.36-.11.09-.24.14-.41.14h-.41Z"/>
          <path class="cls-2" d="M80.51,85.67c-.15,0-.27-.05-.34-.14s-.1-.21-.07-.36l3.17-14.92c.03-.17.1-.3.21-.39.11-.09.24-.14.39-.14h.46c.15,0,.26.03.32.09.06.06.1.12.11.18l5.72,13.01,2.71-12.76c.03-.17.1-.3.22-.39.11-.09.25-.14.4-.14h.41c.17,0,.28.05.35.14s.09.22.06.39l-3.17,14.9c-.03.15-.1.28-.21.38-.11.1-.24.15-.39.15h-.46c-.15,0-.25-.03-.31-.09-.05-.06-.1-.12-.12-.18l-5.69-12.96-2.71,12.73c-.03.15-.1.27-.21.36-.11.09-.24.14-.41.14h-.43Z"/>
          <path class="cls-2" d="M100.67,85.9c-.88,0-1.67-.13-2.36-.38-.69-.25-1.25-.63-1.69-1.15-.43-.52-.72-1.17-.87-1.96-.14-.79-.12-1.72.08-2.8.12-.68.25-1.32.38-1.91.13-.59.28-1.23.44-1.91.5-2.13,1.38-3.71,2.63-4.74s2.77-1.55,4.57-1.55c.9,0,1.69.13,2.37.39.68.26,1.24.65,1.67,1.17s.72,1.18.87,1.96c.14.78.12,1.71-.08,2.77-.12.68-.25,1.32-.38,1.91-.13.59-.28,1.23-.44,1.91-.52,2.16-1.4,3.74-2.65,4.76-1.25,1.02-2.77,1.53-4.54,1.53ZM100.67,84.53c1.35,0,2.55-.39,3.59-1.18,1.04-.79,1.77-2.07,2.2-3.85.17-.68.31-1.28.42-1.8.11-.52.23-1.12.35-1.8.32-1.78.19-3.06-.4-3.85-.58-.79-1.58-1.18-2.97-1.18s-2.58.4-3.6,1.18c-1.02.79-1.75,2.07-2.19,3.85-.17.68-.31,1.28-.42,1.8-.11.52-.23,1.12-.35,1.8-.32,1.78-.19,3.06.39,3.85.58.79,1.57,1.18,2.98,1.18Z"/>
          <path class="cls-2" d="M110.33,85.67c-.15,0-.27-.05-.34-.14s-.1-.21-.07-.36l3.19-14.94c.03-.15.1-.27.21-.36.11-.09.23-.14.39-.14h.43c.15,0,.27.05.34.14.08.09.1.21.07.36l-3.01,14.08h7.86c.17,0,.29.05.35.14.07.09.09.22.06.39l-.07.34c-.03.15-.1.27-.21.36s-.24.14-.41.14h-8.79Z"/>
          <path class="cls-2" d="M126.76,85.9c-.88,0-1.67-.13-2.36-.38-.69-.25-1.25-.63-1.69-1.15-.43-.52-.72-1.17-.87-1.96-.14-.79-.12-1.72.08-2.8.12-.68.25-1.32.38-1.91.13-.59.28-1.23.44-1.91.5-2.13,1.38-3.71,2.63-4.74s2.77-1.55,4.57-1.55c.9,0,1.69.13,2.37.39.68.26,1.24.65,1.67,1.17s.72,1.18.87,1.96c.14.78.12,1.71-.08,2.77-.12.68-.25,1.32-.38,1.91-.13.59-.28,1.23-.44,1.91-.52,2.16-1.4,3.74-2.65,4.76-1.25,1.02-2.77,1.53-4.54,1.53ZM126.76,84.53c1.35,0,2.55-.39,3.59-1.18,1.04-.79,1.77-2.07,2.2-3.85.17-.68.31-1.28.42-1.8.11-.52.23-1.12.35-1.8.32-1.78.19-3.06-.4-3.85-.58-.79-1.58-1.18-2.97-1.18s-2.58.4-3.6,1.18c-1.02.79-1.75,2.07-2.19,3.85-.17.68-.31,1.28-.42,1.8-.11.52-.23,1.12-.35,1.8-.32,1.78-.19,3.06.39,3.85.58.79,1.57,1.18,2.98,1.18Z"/>
          <path class="cls-2" d="M141.63,85.9c-1.31,0-2.35-.25-3.13-.76-.78-.51-1.31-1.22-1.58-2.13-.27-.91-.3-1.96-.09-3.14.12-.68.27-1.4.43-2.16.17-.76.33-1.48.5-2.16.29-1.2.76-2.25,1.42-3.15.66-.9,1.49-1.61,2.49-2.12,1-.51,2.15-.76,3.44-.76,1.05,0,1.91.16,2.6.47.68.31,1.21.7,1.58,1.16.37.46.62.93.74,1.4.12.47.16.87.11,1.18-.02.14-.08.25-.18.33-.11.08-.24.13-.39.13h-.5c-.14,0-.23-.03-.27-.1-.05-.07-.08-.19-.11-.35-.05-.47-.2-.92-.47-1.36-.27-.43-.67-.79-1.22-1.07s-1.28-.42-2.19-.42c-1.35,0-2.52.37-3.52,1.1-.99.74-1.71,1.96-2.13,3.68-.17.68-.33,1.37-.48,2.05s-.29,1.37-.41,2.05c-.29,1.7-.09,2.92.59,3.67.68.74,1.7,1.12,3.05,1.12.9,0,1.73-.17,2.52-.51.78-.34,1.45-.87,2.02-1.57s.96-1.61,1.18-2.7l.25-1.16h-3.96c-.15,0-.26-.05-.33-.15-.07-.1-.09-.22-.06-.38l.07-.32c.03-.17.1-.3.22-.39.11-.09.25-.14.4-.14h4.87c.17,0,.28.05.35.14.07.09.09.22.06.39l-.43,2c-.26,1.21-.73,2.29-1.4,3.21-.68.93-1.53,1.65-2.55,2.16-1.02.52-2.19.77-3.5.77Z"/>
          <path class="cls-2" d="M154.68,85.67c-.15,0-.27-.05-.34-.14-.08-.09-.1-.21-.07-.36l1.16-5.58-3.62-9.11c-.06-.17-.04-.33.07-.5.11-.17.26-.25.46-.25h.39c.11,0,.2.03.27.08.08.05.14.14.18.26l3.17,7.97,6.54-7.97c.09-.12.19-.21.29-.26.1-.05.2-.08.31-.08h.71c.26,0,.39.08.4.25,0,.17-.06.33-.19.5l-7.49,9.11-1.21,5.58c-.03.15-.1.27-.21.36s-.24.14-.41.14h-.39Z"/>
          <path class="cls-2" d="M173.47,85.9c-1.23,0-2.24-.19-3.02-.57s-1.35-.88-1.7-1.51c-.35-.63-.48-1.3-.39-2.02.01-.12.06-.23.15-.32.08-.09.19-.14.33-.14h.55c.15,0,.26.05.32.14.06.09.09.2.09.32-.03.43.07.85.31,1.26.24.42.63.77,1.17,1.05.55.28,1.28.42,2.19.42,1.49,0,2.65-.27,3.5-.81.84-.54,1.36-1.26,1.56-2.18.14-.61.06-1.1-.22-1.47-.28-.37-.76-.71-1.42-1-.67-.3-1.53-.63-2.6-.99-1-.35-1.8-.73-2.4-1.13s-1-.88-1.21-1.45c-.21-.56-.22-1.26-.06-2.1.26-1.15.89-2.1,1.89-2.82,1-.73,2.35-1.09,4.03-1.09.9,0,1.66.12,2.29.36.63.24,1.13.57,1.51.97.38.4.64.83.77,1.3s.17.92.09,1.35c-.01.11-.06.21-.12.31-.07.1-.19.15-.35.15h-.55c-.08,0-.17-.03-.27-.09-.11-.06-.15-.18-.14-.36.08-.76-.19-1.39-.81-1.88-.62-.49-1.42-.74-2.43-.74-1.12,0-2.11.22-2.96.66-.85.44-1.38,1.13-1.59,2.07-.12.61-.06,1.1.17,1.49s.66.73,1.28,1.03c.62.3,1.43.62,2.45.97,1.06.36,1.92.74,2.57,1.14.65.4,1.1.87,1.36,1.42.25.55.28,1.25.1,2.08-.29,1.38-1,2.42-2.12,3.12-1.12.7-2.57,1.05-4.33,1.05Z"/>
          <path class="cls-2" d="M187.37,85.9c-.88,0-1.67-.13-2.36-.38-.69-.25-1.25-.63-1.69-1.15-.43-.52-.72-1.17-.87-1.96s-.12-1.72.08-2.8c.12-.68.25-1.32.38-1.91s.28-1.23.44-1.91c.5-2.13,1.38-3.71,2.63-4.74s2.78-1.55,4.57-1.55c.9,0,1.69.13,2.37.39s1.24.65,1.67,1.17c.43.52.72,1.18.87,1.96.14.78.12,1.71-.08,2.77-.12.68-.25,1.32-.38,1.91s-.28,1.23-.44,1.91c-.52,2.16-1.4,3.74-2.65,4.76-1.25,1.02-2.77,1.53-4.54,1.53ZM187.37,84.53c1.35,0,2.55-.39,3.59-1.18s1.77-2.07,2.2-3.85c.17-.68.31-1.28.42-1.8.11-.52.23-1.12.35-1.8.32-1.78.19-3.06-.4-3.85-.58-.79-1.58-1.18-2.97-1.18s-2.58.4-3.6,1.18c-1.02.79-1.75,2.07-2.19,3.85-.17.68-.31,1.28-.42,1.8-.11.52-.23,1.12-.35,1.8-.32,1.78-.19,3.06.39,3.85s1.57,1.18,2.98,1.18Z"/>
          <path class="cls-2" d="M197.03,85.67c-.15,0-.27-.05-.34-.14-.08-.09-.1-.21-.07-.36l3.19-14.94c.03-.15.1-.27.21-.36s.24-.14.39-.14h.43c.15,0,.27.05.34.14.08.09.1.21.07.36l-3.01,14.08h7.86c.17,0,.29.05.35.14.07.09.09.22.06.39l-.07.34c-.03.15-.1.27-.21.36s-.24.14-.41.14h-8.79Z"/>
          <path class="cls-2" d="M213.64,85.9c-.97,0-1.81-.13-2.51-.38s-1.24-.64-1.63-1.16c-.39-.52-.62-1.19-.71-1.99-.08-.81-.01-1.76.22-2.87l1.96-9.25c.03-.17.1-.3.22-.39.11-.09.25-.14.4-.14h.41c.17,0,.28.05.35.14s.09.22.06.39l-1.98,9.32c-.36,1.7-.3,2.95.18,3.76.49.81,1.5,1.21,3.03,1.21s2.69-.4,3.66-1.21c.96-.8,1.63-2.06,1.99-3.76l1.98-9.32c.03-.17.11-.3.23-.39.12-.09.26-.14.41-.14h.41c.15,0,.26.05.33.14s.09.22.06.39l-1.96,9.25c-.47,2.2-1.28,3.82-2.43,4.85-1.15,1.03-2.71,1.55-4.68,1.55Z"/>
          <path class="cls-2" d="M227.03,85.67c-.15,0-.27-.05-.34-.14s-.1-.21-.07-.36l3.01-14.08h-4.51c-.15,0-.27-.05-.34-.14-.08-.09-.1-.21-.07-.36l.07-.34c.03-.17.1-.3.22-.39.11-.09.25-.14.4-.14h10.43c.17,0,.28.05.35.14s.09.22.06.39l-.07.34c-.03.15-.1.27-.21.36-.11.09-.24.14-.41.14h-4.49l-3.01,14.08c-.03.15-.1.27-.21.36-.11.09-.24.14-.41.14h-.41Z"/>
          <path class="cls-2" d="M235.71,85.67c-.15,0-.27-.05-.34-.14s-.1-.21-.07-.36l3.21-14.94c.03-.15.1-.27.21-.36s.24-.14.39-.14h.43c.15,0,.27.05.34.14.08.09.1.21.07.36l-3.19,14.94c-.03.15-.1.27-.21.36s-.24.14-.39.14h-.46Z"/>
          <path class="cls-2" d="M245.98,85.9c-.88,0-1.67-.13-2.36-.38-.69-.25-1.25-.63-1.69-1.15-.43-.52-.72-1.17-.87-1.96s-.12-1.72.08-2.8c.12-.68.25-1.32.38-1.91s.28-1.23.44-1.91c.5-2.13,1.38-3.71,2.63-4.74s2.78-1.55,4.57-1.55c.9,0,1.69.13,2.37.39s1.24.65,1.67,1.17c.43.52.72,1.18.87,1.96.14.78.12,1.71-.08,2.77-.12.68-.25,1.32-.38,1.91s-.28,1.23-.44,1.91c-.52,2.16-1.4,3.74-2.65,4.76-1.25,1.02-2.77,1.53-4.54,1.53ZM245.98,84.53c1.35,0,2.55-.39,3.59-1.18s1.77-2.07,2.2-3.85c.17-.68.31-1.28.42-1.8.11-.52.23-1.12.35-1.8.32-1.78.19-3.06-.4-3.85-.58-.79-1.58-1.18-2.97-1.18s-2.58.4-3.6,1.18c-1.02.79-1.75,2.07-2.19,3.85-.17.68-.31,1.28-.42,1.8-.11.52-.23,1.12-.35,1.8-.32,1.78-.19,3.06.39,3.85s1.57,1.18,2.98,1.18Z"/>
          <path class="cls-2" d="M255.64,85.67c-.15,0-.27-.05-.34-.14-.08-.09-.1-.21-.07-.36l3.17-14.92c.03-.17.1-.3.21-.39s.24-.14.39-.14h.46c.15,0,.26.03.32.09.06.06.1.12.11.18l5.72,13.01,2.71-12.76c.03-.17.1-.3.22-.39.11-.09.25-.14.4-.14h.41c.17,0,.29.05.35.14s.09.22.06.39l-3.17,14.9c-.03.15-.1.28-.21.38s-.24.15-.39.15h-.46c-.15,0-.25-.03-.31-.09-.05-.06-.09-.12-.12-.18l-5.7-12.96-2.71,12.73c-.03.15-.1.27-.21.36-.11.09-.24.14-.41.14h-.43Z"/>
          <path class="cls-2" d="M275.16,85.9c-1.23,0-2.24-.19-3.02-.57s-1.35-.88-1.7-1.51c-.35-.63-.48-1.3-.39-2.02.01-.12.06-.23.15-.32.08-.09.19-.14.33-.14h.55c.15,0,.26.05.32.14.06.09.09.2.09.32-.03.43.07.85.31,1.26.24.42.63.77,1.17,1.05.55.28,1.28.42,2.19.42,1.49,0,2.65-.27,3.5-.81.84-.54,1.36-1.26,1.56-2.18.14-.61.06-1.1-.22-1.47-.28-.37-.76-.71-1.42-1-.67-.3-1.53-.63-2.6-.99-1-.35-1.8-.73-2.4-1.13s-1-.88-1.21-1.45c-.21-.56-.22-1.26-.06-2.1.26-1.15.89-2.1,1.89-2.82,1-.73,2.35-1.09,4.03-1.09.9,0,1.66.12,2.29.36.63.24,1.13.57,1.51.97.38.4.64.83.77,1.3s.17.92.09,1.35c-.01.11-.06.21-.12.31-.07.1-.19.15-.35.15h-.55c-.08,0-.17-.03-.27-.09-.11-.06-.15-.18-.14-.36.08-.76-.19-1.39-.81-1.88-.62-.49-1.42-.74-2.43-.74-1.12,0-2.11.22-2.96.66-.85.44-1.38,1.13-1.59,2.07-.12.61-.06,1.1.17,1.49s.66.73,1.28,1.03c.62.3,1.43.62,2.45.97,1.06.36,1.92.74,2.57,1.14.65.4,1.1.87,1.36,1.42.25.55.28,1.25.1,2.08-.29,1.38-1,2.42-2.12,3.12-1.12.7-2.57,1.05-4.33,1.05Z"/>
        </g>
        <g>
          <path class="cls-2" d="M28.65,54c-.25,0-.43-.07-.55-.22s-.16-.34-.11-.59l5.11-24.08c.05-.27.17-.48.35-.62.18-.15.4-.22.64-.22h9.6c1.54,0,2.8.31,3.77.92.97.61,1.64,1.42,2.02,2.41.38.99.45,2.08.2,3.25-.25,1.15-.61,2.1-1.1,2.85-.49.75-1.03,1.34-1.62,1.76-.59.43-1.15.75-1.69.97.86.59,1.56,1.4,2.1,2.43.54,1.03.65,2.32.33,3.86-.27,1.23-.76,2.4-1.47,3.51-.71,1.12-1.69,2.02-2.94,2.72-1.25.7-2.83,1.05-4.74,1.05h-9.89ZM30.6,51.79h7.94c1.74,0,3.24-.48,4.49-1.43s2.03-2.17,2.35-3.64c.32-1.49.15-2.71-.5-3.66-.65-.94-2.03-1.42-4.14-1.42h-7.98l-2.17,10.15ZM33.25,39.44h7.43c1.74,0,3.21-.4,4.41-1.21,1.2-.81,1.96-1.94,2.28-3.38.32-1.45.13-2.54-.55-3.27-.69-.73-1.91-1.1-3.68-1.1h-7.98l-1.91,8.97Z"/>
          <path class="cls-2" d="M60.6,54.37c-1.57,0-2.92-.2-4.04-.61-1.13-.4-2-1.03-2.63-1.88-.62-.85-1.01-1.92-1.14-3.22-.13-1.3-.02-2.84.35-4.63l3.16-14.93c.05-.27.17-.48.35-.62.18-.15.4-.22.64-.22h.66c.27,0,.46.07.57.22s.14.36.09.62l-3.2,15.04c-.59,2.75-.49,4.77.29,6.07.78,1.3,2.41,1.95,4.89,1.95s4.34-.65,5.9-1.95c1.56-1.3,2.63-3.32,3.22-6.07l3.2-15.04c.05-.27.17-.48.37-.62.2-.15.42-.22.66-.22h.66c.24,0,.42.07.53.22s.14.36.09.62l-3.16,14.93c-.76,3.55-2.06,6.16-3.92,7.83-1.85,1.67-4.37,2.5-7.56,2.5Z"/>
          <path class="cls-2" d="M76.7,54c-.25,0-.43-.07-.55-.22-.12-.15-.16-.34-.11-.59l5.18-24.12c.05-.24.16-.44.33-.59s.38-.22.62-.22h.7c.24,0,.43.07.55.22s.16.34.11.59l-5.15,24.12c-.05.25-.16.44-.33.59s-.38.22-.62.22h-.73Z"/>
          <path class="cls-2" d="M85.27,54c-.25,0-.43-.07-.55-.22s-.16-.34-.11-.59l5.15-24.12c.05-.24.16-.44.33-.59s.38-.22.62-.22h.7c.24,0,.43.07.55.22s.16.34.11.59l-4.85,22.72h12.68c.27,0,.46.07.57.22s.14.36.09.62l-.11.55c-.05.25-.16.44-.33.59-.17.15-.39.22-.66.22h-14.19Z"/>
          <path class="cls-2" d="M105.42,54c-.25,0-.43-.07-.55-.22s-.16-.34-.11-.59l4.85-22.72h-7.28c-.25,0-.43-.07-.55-.22-.12-.15-.16-.34-.11-.59l.11-.55c.05-.27.17-.48.35-.62.18-.15.4-.22.64-.22h16.84c.27,0,.46.07.57.22.11.15.14.36.09.62l-.11.55c-.05.25-.16.44-.33.59-.17.15-.39.22-.66.22h-7.24l-4.85,22.72c-.05.25-.16.44-.33.59s-.39.22-.66.22h-.66Z"/>
          <path class="cls-2" d="M127.51,54c-.25,0-.43-.07-.55-.22s-.16-.34-.11-.59l5.11-24.08c.05-.27.17-.48.35-.62.18-.15.4-.22.64-.22h14.19c.27,0,.46.07.57.22s.14.36.09.62l-.11.55c-.05.25-.16.44-.33.59-.17.15-.39.22-.66.22h-12.68l-2.13,9.89h11.95c.27,0,.46.07.57.22.11.15.14.36.09.62l-.11.55c-.02.25-.13.44-.31.59s-.41.22-.68.22h-11.95l-2.28,10.63c-.05.25-.16.44-.33.59s-.39.22-.66.22h-.66Z"/>
          <path class="cls-2" d="M155.86,54.37c-1.42,0-2.69-.2-3.81-.61-1.12-.4-2.02-1.02-2.72-1.86-.7-.83-1.16-1.89-1.4-3.16-.23-1.27-.19-2.78.13-4.52.2-1.1.4-2.13.61-3.09.21-.96.45-1.99.72-3.09.81-3.43,2.22-5.98,4.25-7.65,2.02-1.67,4.48-2.5,7.37-2.5,1.45,0,2.72.21,3.82.62,1.1.42,2,1.05,2.7,1.89.7.85,1.16,1.9,1.4,3.16.23,1.26.19,2.75-.13,4.47-.2,1.1-.4,2.13-.61,3.09s-.45,1.99-.72,3.09c-.83,3.48-2.26,6.04-4.28,7.68-2.02,1.64-4.47,2.46-7.33,2.46ZM155.86,52.16c2.18,0,4.11-.64,5.79-1.91,1.68-1.27,2.86-3.35,3.55-6.21.27-1.1.5-2.07.68-2.9.18-.83.37-1.8.57-2.9.51-2.87.3-4.94-.64-6.21-.95-1.27-2.54-1.91-4.8-1.91s-4.17.64-5.81,1.91c-1.64,1.27-2.82,3.35-3.53,6.21-.27,1.1-.5,2.07-.68,2.9-.18.83-.37,1.8-.57,2.9-.51,2.87-.31,4.94.62,6.21.93,1.27,2.54,1.91,4.82,1.91Z"/>
          <path class="cls-2" d="M171.92,54c-.25,0-.42-.07-.53-.22-.11-.15-.14-.34-.09-.59l5.11-24.08c.05-.27.17-.48.35-.62s.4-.22.64-.22h8.57c2.57,0,4.5.61,5.77,1.84s1.64,3.09,1.1,5.59c-.42,1.96-1.24,3.53-2.46,4.71-1.23,1.18-2.76,1.97-4.6,2.39l3.79,10.07c.02.07.04.14.04.2s-.01.13-.04.2c-.02.2-.13.37-.31.51s-.37.22-.57.22h-.44c-.39,0-.66-.1-.81-.31-.15-.21-.27-.44-.37-.68l-3.75-9.89h-7.57l-2.13,10.07c-.05.25-.17.44-.35.59-.18.15-.41.22-.68.22h-.66ZM176.23,40.91h6.88c2.13,0,3.81-.43,5.04-1.31,1.22-.87,2.02-2.17,2.39-3.92.37-1.74.12-3.04-.74-3.92-.86-.87-2.35-1.31-4.49-1.31h-6.88l-2.21,10.44Z"/>
          <path class="cls-2" d="M202.66,54.37c-2.11,0-3.79-.41-5.05-1.23-1.26-.82-2.11-1.97-2.56-3.44-.44-1.47-.49-3.16-.15-5.07.2-1.1.43-2.27.7-3.49.27-1.23.54-2.39.81-3.49.47-1.94,1.23-3.63,2.3-5.09,1.07-1.46,2.41-2.6,4.03-3.42,1.62-.82,3.47-1.23,5.55-1.23,1.69,0,3.09.25,4.19.75s1.95,1.13,2.55,1.88,1,1.5,1.2,2.26c.2.76.26,1.4.18,1.91-.02.22-.12.4-.29.53-.17.14-.38.2-.62.2h-.81c-.22,0-.37-.06-.44-.17-.07-.11-.13-.3-.18-.57-.07-.76-.33-1.49-.75-2.19-.43-.7-1.08-1.27-1.97-1.73-.88-.45-2.06-.68-3.53-.68-2.18,0-4.08.59-5.68,1.78-1.61,1.19-2.75,3.17-3.44,5.94-.27,1.1-.53,2.21-.77,3.31-.25,1.1-.47,2.21-.66,3.31-.47,2.75-.15,4.72.96,5.92,1.1,1.2,2.74,1.8,4.93,1.8,1.45,0,2.8-.28,4.06-.83,1.26-.55,2.35-1.4,3.25-2.54.91-1.14,1.54-2.59,1.91-4.36l.4-1.88h-6.4c-.25,0-.42-.08-.53-.24-.11-.16-.14-.36-.09-.61l.11-.51c.05-.27.17-.48.35-.62.18-.15.4-.22.64-.22h7.87c.27,0,.46.07.57.22.11.15.14.36.09.62l-.7,3.23c-.42,1.96-1.17,3.69-2.26,5.18-1.09,1.5-2.46,2.66-4.12,3.49-1.65.83-3.54,1.25-5.64,1.25Z"/>
          <path class="cls-2" d="M225.93,54.37c-1.42,0-2.69-.2-3.8-.61-1.12-.4-2.02-1.02-2.72-1.86-.7-.83-1.17-1.89-1.4-3.16-.23-1.27-.19-2.78.13-4.52.2-1.1.4-2.13.61-3.09.21-.96.45-1.99.72-3.09.81-3.43,2.22-5.98,4.25-7.65,2.02-1.67,4.48-2.5,7.37-2.5,1.45,0,2.72.21,3.82.62,1.1.42,2,1.05,2.7,1.89.7.85,1.16,1.9,1.4,3.16.23,1.26.19,2.75-.13,4.47-.2,1.1-.4,2.13-.61,3.09-.21.96-.45,1.99-.72,3.09-.83,3.48-2.26,6.04-4.28,7.68-2.02,1.64-4.47,2.46-7.33,2.46ZM225.93,52.16c2.18,0,4.11-.64,5.79-1.91,1.68-1.27,2.86-3.35,3.55-6.21.27-1.1.5-2.07.68-2.9.18-.83.37-1.8.57-2.9.51-2.87.3-4.94-.64-6.21-.94-1.27-2.54-1.91-4.8-1.91s-4.17.64-5.81,1.91c-1.64,1.27-2.82,3.35-3.53,6.21-.27,1.1-.5,2.07-.68,2.9-.18.83-.37,1.8-.57,2.9-.51,2.87-.31,4.94.62,6.21.93,1.27,2.54,1.91,4.82,1.91Z"/>
          <path class="cls-2" d="M249.54,54.37c-1.42,0-2.69-.2-3.8-.61-1.12-.4-2.02-1.02-2.72-1.86-.7-.83-1.17-1.89-1.4-3.16-.23-1.27-.19-2.78.13-4.52.2-1.1.4-2.13.61-3.09.21-.96.45-1.99.72-3.09.81-3.43,2.22-5.98,4.25-7.65,2.02-1.67,4.48-2.5,7.37-2.5,1.45,0,2.72.21,3.82.62,1.1.42,2,1.05,2.7,1.89.7.85,1.16,1.9,1.4,3.16.23,1.26.19,2.75-.13,4.47-.2,1.1-.4,2.13-.61,3.09-.21.96-.45,1.99-.72,3.09-.83,3.48-2.26,6.04-4.28,7.68-2.02,1.64-4.47,2.46-7.33,2.46ZM249.54,52.16c2.18,0,4.11-.64,5.79-1.91,1.68-1.27,2.86-3.35,3.55-6.21.27-1.1.5-2.07.68-2.9.18-.83.37-1.8.57-2.9.51-2.87.3-4.94-.64-6.21-.94-1.27-2.54-1.91-4.8-1.91s-4.17.64-5.81,1.91c-1.64,1.27-2.82,3.35-3.53,6.21-.27,1.1-.5,2.07-.68,2.9-.18.83-.37,1.8-.57,2.9-.51,2.87-.31,4.94.62,6.21.93,1.27,2.54,1.91,4.82,1.91Z"/>
          <path class="cls-2" d="M265.12,54c-.25,0-.43-.07-.55-.22s-.16-.34-.11-.59l5.11-24.08c.05-.27.17-.48.35-.62s.4-.22.64-.22h7.46c1.67,0,3.11.21,4.32.64,1.21.43,2.18,1.07,2.9,1.91.72.85,1.19,1.89,1.42,3.12.22,1.24.17,2.65-.15,4.25-.22,1.1-.42,2.08-.59,2.92-.17.85-.39,1.82-.66,2.92-.51,2.26-1.23,4.12-2.13,5.59-.91,1.47-2.13,2.57-3.66,3.29-1.53.72-3.52,1.08-5.97,1.08h-8.38ZM267.07,51.79h6.32c1.96,0,3.57-.26,4.82-.79,1.25-.53,2.25-1.37,3-2.54.75-1.16,1.34-2.7,1.78-4.61.17-.74.32-1.38.44-1.93.12-.55.24-1.1.35-1.64.11-.54.24-1.18.39-1.91.51-2.7.31-4.69-.61-5.97-.92-1.29-2.85-1.93-5.79-1.93h-6.14l-4.56,21.32Z"/>
        </g>
      </g>
    </g>
  </g>
</svg>