<svg width="200" height="200" viewBox="0 0 200 200" fill="none" xmlns="http://www.w3.org/2000/svg">
<g clip-path="url(#clip0_0_163)">
<path d="M157.5 140.312H148.438C142.751 140.312 138.125 135.686 138.125 130V123.75C138.125 118.064 142.751 113.438 148.438 113.438C154.124 113.438 158.75 118.064 158.75 123.75V130C158.75 131.381 159.869 132.5 161.25 132.5C162.631 132.5 163.75 131.381 163.75 130V123.75C163.75 115.307 156.881 108.438 148.438 108.438C139.994 108.438 133.125 115.307 133.125 123.75C133.548 127.52 131.521 134.285 137.233 140.422C131.688 141.034 126.916 144.246 124.167 148.81C121.102 143.723 115.526 140.313 109.167 140.313H100C94.3138 140.313 89.6875 135.687 89.6875 130V123.75C89.6875 118.064 94.3138 113.438 100 113.438C105.686 113.438 110.312 118.064 110.312 123.75V130C110.312 131.381 111.432 132.5 112.812 132.5C114.193 132.5 115.312 131.381 115.312 130V123.75C115.312 118.074 112.206 113.113 107.606 110.469C109.706 108.957 112.237 108.125 114.896 108.125H124.062C132.506 108.125 139.375 101.256 139.375 92.8128V86.5628C139.375 78.92 133.746 72.5675 126.417 71.4316C125.13 63.7706 118.933 57.8806 111.194 56.995C116.916 50.8594 114.895 44.0341 115.312 40.3125C115.312 31.8691 108.443 25 100 25C91.5566 25 84.6875 31.8691 84.6875 40.3125C85.1131 44.1038 83.0744 50.8488 88.8053 56.9947C86.2794 57.2881 83.8447 58.125 81.6716 59.4625C80.4956 60.1862 80.1291 61.7262 80.8528 62.9019C81.5763 64.0778 83.1166 64.4447 84.2922 63.7206C86.2537 62.5131 88.5156 61.875 90.8331 61.875H109.167C115.085 61.875 120.04 65.9466 121.335 71.4981C114.189 72.7888 108.75 79.0503 108.75 86.5625C109.176 90.3547 107.138 97.0972 112.866 103.243C108.784 103.713 105.027 105.597 102.193 108.597C92.9356 107.262 84.6875 114.465 84.6875 123.75C85.1131 127.541 83.0737 134.287 88.8066 140.433C83.3016 141.072 78.5672 144.271 75.8331 148.809C72.7684 143.723 67.1922 140.312 60.8331 140.312H51.5625C45.8763 140.312 41.25 135.686 41.25 130V123.75C41.25 118.064 45.8763 113.438 51.5625 113.438C57.2487 113.438 61.875 118.064 61.875 123.75V130C61.875 131.381 62.9944 132.5 64.375 132.5C65.7556 132.5 66.875 131.381 66.875 130V123.75C66.875 118.098 63.7941 113.154 59.2256 110.502C61.3334 108.968 63.8812 108.125 66.5625 108.125H75.625C84.0684 108.125 90.9375 101.256 90.9375 92.8125V86.5625C90.9375 78.9572 85.3634 72.6319 78.0866 71.4506C76.8025 63.7494 70.5569 57.8328 62.7681 56.9834C68.4756 50.85 66.4569 44.0438 66.875 40.3125C66.875 31.8691 60.0059 25 51.5625 25C43.1191 25 36.25 31.8691 36.25 40.3125C36.6763 44.0981 34.6328 50.8591 40.3806 57.0078C31.7275 58.0581 25 65.4431 25 74.375V89.0625C25 90.4431 26.1194 91.5625 27.5 91.5625C28.8806 91.5625 30 90.4431 30 89.0625V74.375C30 67.4825 35.6075 61.875 42.5 61.875H60.8334C66.7456 61.875 71.6969 65.9378 72.9984 71.48C65.8028 72.73 60.3125 79.015 60.3125 86.5625C60.7391 90.3534 58.6963 97.1066 64.44 103.255C60.3856 103.743 56.6622 105.624 53.8478 108.609C44.5503 107.212 36.25 114.442 36.25 123.75C36.6763 127.535 34.6328 134.297 40.3806 140.445C31.7275 141.496 25 148.881 25 157.812V172.5C25 173.881 26.1194 175 27.5 175C28.8806 175 30 173.881 30 172.5V157.812C30 150.92 35.6075 145.312 42.5 145.312H60.8334C67.7259 145.312 73.3334 150.92 73.3334 157.812V172.5C73.3334 173.881 74.4528 175 75.8334 175C77.2141 175 78.3334 173.881 78.3334 172.5V157.812C78.3334 150.92 83.9409 145.312 90.8334 145.312H109.167C116.059 145.312 121.667 150.92 121.667 157.812V172.5C121.667 173.881 122.786 175 124.167 175C125.548 175 126.667 173.881 126.667 172.5V157.812C126.667 150.92 132.274 145.312 139.167 145.312H157.5C164.393 145.312 170 150.92 170 157.812V172.5C170 173.881 171.119 175 172.5 175C173.881 175 175 173.881 175 172.5V157.812C175 148.163 167.149 140.312 157.5 140.312ZM89.6875 40.3125C89.6875 34.6263 94.3138 30 100 30C105.686 30 110.312 34.6263 110.312 40.3125V46.5625C110.312 52.2487 105.686 56.875 100 56.875C94.3138 56.875 89.6875 52.2487 89.6875 46.5625V40.3125ZM113.75 86.5625C113.75 80.8763 118.376 76.25 124.062 76.25C129.749 76.25 134.375 80.8763 134.375 86.5625V92.8125C134.375 98.4987 129.749 103.125 124.062 103.125C118.376 103.125 113.75 98.4987 113.75 92.8125V86.5625ZM41.25 40.3125C41.25 34.6263 45.8763 30 51.5625 30C57.2487 30 61.875 34.6263 61.875 40.3125V46.5625C61.875 52.2487 57.2487 56.875 51.5625 56.875C45.8763 56.875 41.25 52.2487 41.25 46.5625V40.3125ZM65.3125 86.5625C65.3125 80.8763 69.9388 76.25 75.625 76.25C81.3112 76.25 85.9375 80.8763 85.9375 86.5625V92.8125C85.9375 98.4987 81.3112 103.125 75.625 103.125C69.9388 103.125 65.3125 98.4987 65.3125 92.8125V86.5625ZM159.619 57.0078C165.357 50.8694 163.332 44.03 163.75 40.3125C163.75 31.8691 156.881 25 148.438 25C139.994 25 133.125 31.8691 133.125 40.3125C133.551 44.1122 131.515 50.8381 137.23 56.9812C135.238 57.1987 133.317 57.7531 131.501 58.6397C130.26 59.2453 129.745 60.7419 130.35 61.9828C130.956 63.2241 132.452 63.7394 133.693 63.1331C137.129 61.4566 137.905 61.875 157.5 61.875C164.393 61.875 170 67.4825 170 74.375V89.0625C170 90.4431 171.119 91.5625 172.5 91.5625C173.881 91.5625 175 90.4431 175 89.0625V74.375C175 65.4431 168.273 58.0581 159.619 57.0078ZM138.125 40.3125C138.125 34.6263 142.751 30 148.438 30C154.124 30 158.75 34.6263 158.75 40.3125V46.5625C158.75 52.2487 154.124 56.875 148.438 56.875C142.751 56.875 138.125 52.2487 138.125 46.5625V40.3125Z" fill="#3E517A"/>
</g>
<defs>
<clipPath id="clip0_0_163">
<rect width="150" height="150" fill="white" transform="translate(25 25)"/>
</clipPath>
</defs>
</svg>
