<?xml version="1.0" encoding="UTF-8"?>
<svg id="Layer_2" data-name="Layer 2" xmlns="http://www.w3.org/2000/svg" viewBox="0 0 500 500">
  <defs>
    <style>
      .cls-1 {
        fill: #fff;
      }

      .cls-2 {
        fill: #465278;
      }
    </style>
  </defs>
  <g id="Layer_1-2" data-name="Layer 1">
    <g>
      <rect class="cls-1" width="500" height="500"/>
      <g>
        <path class="cls-2" d="M334.55,98.99l-10.54,8.34h0l-34.39,27.19-170.4,134.75-2.86,2.25c.97,14.95,4.4,29.44,10.21,43.19,1.66,3.9,3.47,7.7,5.47,11.4h139.6l-16.53,69.09-.3,1.28c16.42-.57,32.34-4.07,47.38-10.43,4.05-1.72,8-3.62,11.83-5.7l12.98-54.24,13.6-56.85,19.8-82.73,10.94-45.7,3.29-13.78,17.64-73.72-57.73,45.65ZM208.93,269.27l94.14-74.45-17.81,74.45h-76.33Z"/>
        <path class="cls-2" d="M434.03,269.27c-.71,19.91-4.59,39.03-11.14,56.85-20.26,55.08-66.09,97.8-123.11,113.76-15.82,4.43-32.49,6.8-49.72,6.8-2.42,0-4.83-.05-7.22-.14-76.2-2.94-140.52-52.2-165.61-120.42l-5.84-19.02c-3.54-14.25-5.42-29.17-5.42-44.51,0-101.67,82.42-184.09,184.09-184.09,30.46,0,59.19,7.39,84.5,20.5l-10.54,8.34h0l-34.39,27.19c-12.73-3.93-25.99-5.92-39.56-5.92-18.11,0-35.65,3.53-52.14,10.51-15.95,6.74-30.29,16.42-42.6,28.74-12.32,12.32-21.99,26.66-28.74,42.6-6.97,16.49-10.51,34.03-10.51,52.14,0,3,.1,5.98.29,8.94.97,14.95,4.4,29.44,10.21,43.19,1.66,3.9,3.47,7.7,5.47,11.4,6.16,11.44,13.96,21.9,23.27,31.2,12.32,12.32,26.65,21.99,42.6,28.74,16.49,6.97,34.03,10.51,52.14,10.51,1.59,0,3.18-.02,4.76-.08,16.42-.57,32.34-4.07,47.38-10.43,4.05-1.72,8-3.62,11.83-5.7,11.27-6.13,21.58-13.84,30.78-23.03,9.3-9.3,17.1-19.76,23.26-31.2h-41.06l13.6-56.85h93.42Z"/>
      </g>
    </g>
  </g>
</svg>