<svg width="166" height="166" viewBox="0 0 166 166" fill="none" xmlns="http://www.w3.org/2000/svg">
<path d="M84.9367 31.6535C84.3412 31.6535 83.8126 31.2724 83.6243 30.7076C83.436 30.1427 83.6303 29.5207 84.1067 29.1635L93.4774 22.197C93.3489 22.0905 93.2403 21.9622 93.1564 21.818C92.774 21.1571 92.9994 20.3113 93.66 19.9283L106.55 12.4915C107.184 12.131 107.989 12.3249 108.39 12.9345C108.79 13.5441 108.649 14.36 108.066 14.7989L104.918 17.1395L117.091 10.1122C117.519 9.86114 118.049 9.85879 118.479 10.106C118.91 10.3533 119.175 10.8122 119.174 11.3086C119.173 11.805 118.906 12.2628 118.474 12.5081L85.6283 31.4681C85.4184 31.5903 85.1796 31.6542 84.9367 31.6535Z" fill="#3E517A"/>
<path d="M81.3096 154.457C80.7272 154.459 80.2061 154.096 80.0061 153.549C79.806 153.002 79.9699 152.389 80.4159 152.014L87.6093 145.972L78.85 151.027C78.2076 151.408 77.3784 151.211 76.977 150.581C76.5756 149.95 76.7471 149.115 77.3643 148.694L81.8657 145.546L76.5205 148.634C75.8746 149.008 75.0482 148.802 74.6531 148.169C74.258 147.536 74.4367 146.703 75.0569 146.287L83.7359 140.444L74.0139 146.055C73.3693 146.422 72.5498 146.216 72.1563 145.587C71.7627 144.958 71.9354 144.131 72.5475 143.712L96.8665 127.267L70.5223 142.483C69.873 142.872 69.0317 142.667 68.6343 142.023C68.2369 141.379 68.431 140.535 69.0698 140.129L102.92 117.86L66.8427 138.687C66.1923 139.04 65.3798 138.818 64.9984 138.184C64.6171 137.55 64.8019 136.729 65.4178 136.319L84.7845 124.207L64.278 136.045C63.6258 136.399 62.8108 136.175 62.4307 135.538C62.0505 134.901 62.2406 134.078 62.8614 133.671L67.6201 130.75L62.1808 133.89C61.5253 134.283 60.6756 134.07 60.2829 133.414C59.8902 132.759 60.1033 131.909 60.7588 131.516L88.5223 114.227L59.3865 131.032C58.734 131.381 57.9227 131.154 57.545 130.518C57.1673 129.882 57.357 129.061 57.9755 128.656L61.3564 126.594L57.3281 128.918C56.678 129.276 55.8617 129.057 55.4778 128.422C55.0939 127.787 55.2792 126.962 55.8977 126.553L105.103 95.3753L53.6125 125.1C52.959 125.469 52.1311 125.249 51.7462 124.605C51.3613 123.961 51.5595 123.128 52.1932 122.727L85.0778 102.381L50.7711 122.184C50.1154 122.558 49.2813 122.337 48.8964 121.688C48.5114 121.039 48.7178 120.201 49.3601 119.805L57.6269 114.778L48.6242 119.977C47.9685 120.35 47.1344 120.129 46.7494 119.48C46.3645 118.831 46.5708 117.993 47.2132 117.597L51.4572 115.024L46.563 117.86C45.9052 118.25 45.0561 118.032 44.6665 117.374C44.2768 116.717 44.4942 115.868 45.152 115.478L52.622 110.946L44.4299 115.674C43.7764 116.042 42.9485 115.823 42.5636 115.179C42.1787 114.535 42.377 113.702 43.0106 113.301L82.3388 88.9843L41.4419 112.603C40.7901 112.962 39.971 112.741 39.5882 112.103C39.2055 111.465 39.3962 110.638 40.0198 110.232L85.8441 81.7633L38.2049 109.267C37.5512 109.628 36.7286 109.405 36.3467 108.763C35.9648 108.121 36.1616 107.292 36.7911 106.89L65.8107 89.1254L35.5849 106.575C35.1608 106.829 34.6332 106.838 34.2008 106.598C33.7683 106.358 33.4968 105.906 33.4884 105.411C33.48 104.917 33.736 104.455 34.16 104.201L85.3046 72.3317L32.1348 103.042C31.4809 103.397 30.6627 103.172 30.2835 102.531C29.9043 101.89 30.1002 101.065 30.7266 100.662L39.5523 95.3172L29.9907 100.823C29.3388 101.182 28.5198 100.961 28.137 100.323C27.7542 99.6845 27.9449 98.8578 28.5686 98.4518L79.3674 66.8316L26.56 97.312C25.9037 97.7031 25.0546 97.4882 24.6635 96.8319C24.2723 96.1757 24.4872 95.3266 25.1435 94.9354L63.1602 71.546L23.6799 94.3433C23.0221 94.733 22.173 94.5156 21.7834 93.8578C21.3937 93.2 21.6111 92.3509 22.2689 91.9612L33.0146 85.4513L21.497 92.0913C20.8466 92.4436 20.0341 92.2219 19.6528 91.5881C19.2714 90.9542 19.4562 90.1326 20.0722 89.723L72.9155 56.689L17.9308 88.4337C17.2737 88.8241 16.4246 88.608 16.0342 87.9509C15.6438 87.2939 15.86 86.4448 16.517 86.0544L43.9983 69.2331L15.4076 85.739C14.7585 86.0859 13.9514 85.8639 13.5712 85.2337C13.1909 84.6036 13.3706 83.7861 13.98 83.3735L66.7348 50.2095L12.1457 81.7246C11.4917 82.0802 10.6735 81.8545 10.2943 81.2139C9.91517 80.5732 10.111 79.7474 10.7374 79.3452L15.7728 76.3019L10.4718 79.3508C10.0468 79.6033 9.51934 79.6099 9.08812 79.3681C8.6569 79.1263 8.38743 78.6728 8.38124 78.1784C8.37504 77.6841 8.63305 77.224 9.05808 76.9714L22.3713 68.843L8.94464 76.5896C8.29279 76.9486 7.47372 76.7276 7.09096 76.0894C6.70819 75.4512 6.8989 74.6246 7.52258 74.2186L11.3046 71.8614L7.53364 74.036C6.88226 74.4083 6.05288 74.1934 5.66413 73.5518C5.27538 72.9101 5.46897 72.0755 6.10051 71.6705L22.1942 61.4504L6.28588 70.633C5.64068 70.9892 4.82952 70.777 4.44137 70.1505C4.05323 69.524 4.2244 68.7032 4.83061 68.2841L36.8382 47.0416L4.74484 65.5783C4.0987 65.9458 3.27761 65.737 2.88557 65.1054C2.49354 64.4739 2.67073 63.6454 3.28681 63.2294L33.8889 42.8308L3.84291 60.1778C3.19535 60.5532 2.36661 60.3455 1.97272 59.709C1.57884 59.0725 1.7627 58.2381 2.38764 57.8261L27.0967 41.5L3.69351 55.0179C3.04897 55.3853 2.22941 55.1788 1.83589 54.5499C1.44237 53.921 1.615 53.0936 2.22718 52.6746L28.5299 34.86L4.21088 48.887C3.5694 49.2551 2.75182 49.0536 2.35498 48.4294C1.95814 47.8053 2.12244 46.9794 2.72794 46.5547L26.8865 29.7057L5.90684 41.8182C5.26899 42.1786 4.46069 41.9793 4.06364 41.3635C3.66659 40.7477 3.81851 39.9292 4.41008 39.4969L22.5456 26.4936L9.29324 34.1407C8.67422 34.4982 7.88475 34.3252 7.47197 33.7416C7.05919 33.1579 7.15908 32.3559 7.70241 31.8914L19.0236 22.208C18.3588 22.3441 17.6934 21.9778 17.4528 21.3433C17.2122 20.7087 17.4674 19.9934 18.0553 19.6544L30.3752 12.5413C30.9943 12.1838 31.7837 12.3568 32.1965 12.9404C32.6093 13.524 32.5094 14.326 31.9661 14.7906L20.9354 24.2249L45.4425 10.079C46.0787 9.72977 46.8767 9.93163 47.2703 10.5414C47.6639 11.1511 47.5194 11.9614 46.9393 12.3974L28.8121 25.4008L53.5488 11.1192C54.1892 10.7559 55.0019 10.9578 55.3978 11.5786C55.7937 12.1993 55.634 13.0214 55.0345 13.4488L30.8649 30.3061L60.3991 13.2551C61.0436 12.8878 61.8632 13.0943 62.2567 13.7232C62.6502 14.3521 62.4776 15.1794 61.8654 15.5985L35.5627 33.4241L65.617 16.0743C66.2622 15.7181 67.0734 15.9303 67.4615 16.5568C67.8497 17.1833 67.6785 18.0041 67.0723 18.4232L42.3521 34.7466L69.72 18.9517C70.364 18.6 71.1705 18.8124 71.5578 19.4356C71.9451 20.0589 71.7785 20.876 71.178 21.2978L40.587 41.6881L73.8977 22.457C74.5471 22.0544 75.3999 22.2545 75.8025 22.9038C76.2051 23.5532 76.0051 24.4061 75.3557 24.8087L43.3371 46.0539L77.6631 26.2363C78.3145 25.864 79.1439 26.0789 79.5326 26.7205C79.9214 27.3622 79.7278 28.1968 79.0962 28.6018L62.9832 38.8385L80.2555 28.8785C80.9049 28.5359 81.7088 28.7605 82.0868 29.3899C82.4647 30.0194 82.2851 30.8345 81.6775 31.2467L77.9259 33.5901L118.568 10.1232C119.225 9.73283 120.074 9.94898 120.465 10.606C120.855 11.263 120.639 12.1122 119.982 12.5026L106.672 20.6144L124.655 10.2394C125.313 9.84979 126.162 10.0672 126.551 10.725C126.941 11.3828 126.724 12.2319 126.066 12.6215L121.086 15.6455L129.109 11.0196C129.761 10.6545 130.585 10.8726 130.97 11.5123C131.356 12.1519 131.164 12.9822 130.537 13.3879L77.7433 46.5547L135.719 13.078C136.375 12.7044 137.209 12.9252 137.594 13.5743C137.979 14.2234 137.772 15.0612 137.13 15.4574L109.607 32.3064L139.692 14.94C140.345 14.5632 141.18 14.7793 141.568 15.4258C141.957 16.0724 141.756 16.9109 141.117 17.311L88.3037 50.3312L144.55 17.8588C145.204 17.5032 146.022 17.7289 146.401 18.3695C146.781 19.0101 146.585 19.836 145.958 20.2382L135.251 26.7288L146.987 19.9532C147.64 19.5996 148.455 19.8233 148.835 20.4604C149.215 21.0974 149.025 21.921 148.404 22.327L110.373 45.7358L150.197 22.7448C150.85 22.368 151.685 22.5841 152.074 23.2306C152.462 23.8771 152.261 24.7157 151.622 25.1158L100.812 56.7416L153.185 26.5047C153.839 26.149 154.657 26.3747 155.036 27.0153C155.415 27.656 155.219 28.4818 154.593 28.884L145.803 34.2043L155.055 28.8646C155.708 28.4879 156.543 28.704 156.932 29.3505C157.32 29.997 157.119 30.8355 156.48 31.2357L105.297 63.1243L157.365 33.0672C158.022 32.6768 158.871 32.8929 159.262 33.55C159.652 34.207 159.436 35.0561 158.779 35.4465L129.798 53.1919L159.031 36.3153C159.683 35.9562 160.502 36.1773 160.884 36.8155C161.267 37.4536 161.077 38.2803 160.453 38.6863L114.617 67.1498L160.445 40.6949C161.095 40.3473 161.904 40.5716 162.283 41.2046C162.662 41.8376 162.478 42.6566 161.864 43.0659L122.527 67.3877L161.629 44.82C162.286 44.4304 163.136 44.6477 163.525 45.3055C163.915 45.9633 163.697 46.8125 163.04 47.2021L155.528 51.7367L161.969 48.0183C162.627 47.6294 163.475 47.8474 163.864 48.5052C164.253 49.163 164.035 50.0115 163.377 50.4004L159.202 52.9319L162.262 51.164C162.918 50.7903 163.752 51.0112 164.137 51.6602C164.522 52.3093 164.316 53.1472 163.673 53.5433L155.453 58.5399L162.34 54.567C162.99 54.2286 163.79 54.4555 164.166 55.0844C164.542 55.7134 164.362 56.5262 163.756 56.938L130.816 77.3339L161.894 59.3948C162.542 59.0525 163.344 59.2747 163.724 59.9015C164.103 60.5283 163.928 61.3422 163.325 61.7575L114.142 92.924L160.345 66.2506C161.002 65.8602 161.851 66.0763 162.241 66.7334C162.632 67.3904 162.416 68.2395 161.759 68.6299L158.378 70.6911L159.006 70.3287C159.658 69.9697 160.477 70.1907 160.86 70.8289C161.242 71.467 161.052 72.2937 160.428 72.6997L132.656 89.9914L155.763 76.6367C156.417 76.2752 157.24 76.4981 157.622 77.1401C158.003 77.782 157.807 78.6112 157.177 79.0132L151.367 82.5878C152.028 82.3904 152.733 82.7096 153.02 83.3362C153.308 83.9629 153.09 84.7057 152.51 85.0778L133.104 97.2262L142.442 91.834C143.091 91.4451 143.932 91.6503 144.33 92.2944C144.727 92.9386 144.533 93.7825 143.894 94.1884L110.08 116.443L129.331 105.33C129.975 104.962 130.795 105.169 131.188 105.798C131.582 106.427 131.409 107.254 130.797 107.673L106.45 124.127L116.964 118.059C117.383 117.797 117.91 117.779 118.346 118.011C118.782 118.243 119.062 118.69 119.079 119.184C119.097 119.678 118.849 120.143 118.43 120.405L108.558 127.045C109.095 126.974 109.625 127.217 109.92 127.671C110.319 128.296 110.154 129.124 109.546 129.549L100.892 135.603C101.377 135.75 101.743 136.152 101.844 136.649C101.946 137.146 101.767 137.658 101.379 137.985L90.1933 147.416C90.536 147.708 90.7156 148.147 90.6749 148.595C90.6342 149.043 90.3782 149.444 89.9886 149.668L82.0123 154.272C81.7994 154.397 81.5564 154.461 81.3096 154.457Z" fill="#3E517A"/>
<path d="M81.1712 155.835C81.6669 156.279 82.3218 156.503 82.9855 156.454C83.6492 156.406 84.2646 156.089 84.6904 155.578L128.11 110.943C144.276 94.3433 164.113 79.3314 165.27 54.3512C164.188 30.9313 147.751 10.8841 123.493 9.6114C106.179 8.70117 94.4817 18.1881 83.1937 29.5729C65.9601 12.5579 43.99 1.58253 20.869 16.968C-2.76667 32.7048 -5.15984 65.5368 13.3049 86.0931C34.9292 110.163 58.6008 132.642 81.1712 155.835ZM4.9551 50.6521C7.0467 28.3583 27.1493 9.20194 50.3865 13.0974C63.874 15.3578 72.1934 23.8155 81.1712 33.0451C81.6673 33.4887 82.3224 33.7117 82.9861 33.6626C83.6498 33.6136 84.265 33.2968 84.6904 32.785C94.9631 22.2274 104.519 12.8346 120.593 12.7543C143.856 12.6354 160.171 32.3977 161.197 54.6306C160.03 79.8405 137.354 96.6839 120.978 113.522L83.1937 152.352L25.8241 93.3944C14.11 81.34 3.22316 69.1307 4.9551 50.6521Z" fill="#3E517A"/>
</svg>
