<svg width="161" height="161" viewBox="0 0 161 161" fill="none" xmlns="http://www.w3.org/2000/svg">
<g clip-path="url(#clip0_0_188)">
<path d="M147.792 34.5901H125.588C123.852 34.5901 122.443 35.9978 122.443 37.7347C122.443 39.4715 123.852 40.8792 125.588 40.8792H147.792C151.606 40.8792 154.71 43.9832 154.71 47.7971V110.688C154.71 111.915 154.377 113.095 153.787 114.124V111.303C153.787 106.462 149.847 102.522 145.005 102.522C143.79 102.522 142.633 102.77 141.582 103.217C140.136 100.344 137.16 98.3686 133.73 98.3686C132.419 98.3686 131.172 98.6573 130.053 99.1756C128.53 96.5605 125.696 94.7979 122.457 94.7979C121.592 94.7979 120.754 94.9231 119.965 95.1578V85.1444C119.965 80.3024 116.025 76.3631 111.183 76.3631C106.852 76.3631 103.246 79.515 102.532 83.6446H101.881C100.146 83.6446 98.7367 85.0523 98.7367 86.7892C98.7367 88.526 100.146 89.9337 101.881 89.9337H102.402V98.7383H58.5961V89.9337H59.117C60.8526 89.9337 62.2615 88.526 62.2615 86.7892C62.2615 85.0523 60.8526 83.6446 59.117 83.6446H58.4659C57.7523 79.515 54.1459 76.3631 49.8148 76.3631C44.9728 76.3631 41.0335 80.3024 41.0335 85.1444V95.1578C40.2437 94.9231 39.4072 94.7979 38.5412 94.7979C35.3021 94.7979 32.4684 96.5605 30.9453 99.1756C29.8263 98.6573 28.5795 98.3686 27.2676 98.3686C23.8382 98.3686 20.8619 100.344 19.4174 103.217C18.3647 102.77 17.2076 102.522 15.9941 102.522C11.152 102.522 7.21274 106.461 7.21274 111.303V114.123C6.62191 113.096 6.28904 111.916 6.28904 110.688V47.7971C6.28904 43.9832 9.39179 40.8792 13.207 40.8792H99.3484C101.085 40.8792 102.493 39.4715 102.493 37.7347C102.493 35.9978 101.085 34.5901 99.3484 34.5901H83.6835V28.3011C83.6835 22.0587 78.6056 16.9808 72.3632 16.9808H41.6121C38.8373 16.9808 36.5808 14.7244 36.5808 11.9496V3.14495C36.5808 1.40809 35.1732 0.000427246 33.4363 0.000427246C31.6995 0.000427246 30.2918 1.40809 30.2918 3.14495V11.9496C30.2918 18.192 35.3697 23.2699 41.6121 23.2699H72.3632C75.1368 23.2699 77.3945 25.5275 77.3945 28.3011V34.5901H13.207C5.92422 34.5901 0 40.5144 0 47.7971V110.688C0 115.661 2.84726 120.223 7.21274 122.456V131.085C7.21274 136.914 8.09714 142.689 9.84013 148.251L13.148 158.796C13.5693 160.14 14.8099 161 16.1476 161C16.4584 161 16.7765 160.953 17.0897 160.855C18.7467 160.335 19.668 158.571 19.1484 156.914L15.8417 146.369C14.2891 141.417 13.5018 136.275 13.5018 131.085V111.304C13.5018 109.93 14.6196 108.812 15.9941 108.812C17.3686 108.812 18.4863 109.93 18.4863 111.304V118.184C18.4863 119.921 19.8952 121.328 21.6308 121.328C23.3677 121.328 24.7754 119.921 24.7754 118.184V107.15C24.7754 105.775 25.8931 104.658 27.2676 104.658C28.6421 104.658 29.7612 105.775 29.7612 107.15V118.184C29.7612 119.921 31.1688 121.328 32.9057 121.328C34.6413 121.328 36.049 119.921 36.049 118.184V103.579C36.049 102.205 37.168 101.087 38.5425 101.087C39.917 101.087 41.0347 102.206 41.0347 103.579V118.184C41.0347 119.921 42.4424 121.328 44.1793 121.328C45.9149 121.328 47.3238 119.921 47.3238 118.184V85.1444C47.3238 83.7699 48.4416 82.6521 49.8161 82.6521C51.1906 82.6521 52.3083 83.7699 52.3083 85.1444V125.963C52.3083 127.403 53.2861 128.658 54.6827 129.01C56.0781 129.364 57.5349 128.724 58.219 127.457L64.8397 115.198C65.5657 113.855 67.2018 113.342 68.564 114.029C69.7309 114.617 70.3316 115.915 70.0245 117.185L65.734 134.974C64.9011 138.426 63.4161 141.628 61.3218 144.495L52.9127 155.999C51.8882 157.402 52.1953 159.37 53.5968 160.394C54.9996 161.419 56.9662 161.113 57.9918 159.71L66.3985 148.206C68.9853 144.665 70.818 140.71 71.8461 136.449L74.8739 123.894H86.1242L89.1532 136.449C90.1814 140.71 92.014 144.665 94.5997 148.206L103.008 159.71C104.032 161.113 106 161.417 107.401 160.393C108.804 159.369 109.11 157.402 108.085 155.999L99.6776 144.495C97.5833 141.628 96.0994 138.424 95.2666 134.974L90.9749 117.184C90.669 115.915 91.2697 114.617 92.4353 114.029C93.7976 113.341 95.4349 113.854 96.1609 115.198L102.78 127.457C103.464 128.723 104.924 129.364 106.318 129.01C107.713 128.658 108.692 127.401 108.692 125.962V85.1444C108.692 83.7699 109.81 82.6521 111.185 82.6521C112.558 82.6521 113.677 83.7699 113.677 85.1444V118.184C113.677 119.921 115.084 121.328 116.821 121.328C118.557 121.328 119.966 119.921 119.966 118.184V103.579C119.966 102.205 121.084 101.087 122.458 101.087C123.833 101.087 124.95 102.205 124.95 103.579V118.184C124.95 119.921 126.358 121.328 128.095 121.328C129.832 121.328 131.239 119.921 131.239 118.184V107.15C131.239 105.775 132.357 104.658 133.732 104.658C135.106 104.658 136.224 105.775 136.224 107.15V118.184C136.224 119.921 137.633 121.328 139.369 121.328C141.105 121.328 142.513 119.921 142.513 118.184V111.303C142.513 109.93 143.632 108.811 145.007 108.811C146.38 108.811 147.499 109.93 147.499 111.303V131.085C147.499 136.275 146.711 141.417 145.159 146.369L141.851 156.914C141.331 158.571 142.254 160.335 143.911 160.855C144.224 160.953 144.541 161 144.853 161C146.191 161 147.43 160.14 147.853 158.795L151.159 148.251C152.903 142.688 153.788 136.912 153.788 131.084V122.448C158.182 120.203 161.001 115.643 161.001 110.688V47.7971C160.998 40.5144 155.074 34.5901 147.792 34.5901ZM101.693 112.209C99.3385 107.849 94.0273 106.182 89.6028 108.414C86.1389 110.162 84.2203 113.836 84.6785 117.605H76.3209C76.7791 113.836 74.8592 110.161 71.3965 108.414C66.9721 106.182 61.6608 107.849 59.3049 112.209L58.5961 113.522V105.027H102.402V113.522L101.693 112.209Z" fill="#3E517A"/>
<path d="M31.4452 53.4572H18.8671C17.1303 53.4572 15.7226 54.8648 15.7226 56.6017C15.7226 58.3385 17.1303 59.7462 18.8671 59.7462H31.4452C33.182 59.7462 34.5897 58.3385 34.5897 56.6017C34.5897 54.8648 33.182 53.4572 31.4452 53.4572Z" fill="#3E517A"/>
<path d="M59.117 53.4572H46.5389C44.802 53.4572 43.3944 54.8648 43.3944 56.6017C43.3944 58.3385 44.802 59.7462 46.5389 59.7462H59.117C60.8526 59.7462 62.2615 58.3385 62.2615 56.6017C62.2615 54.8648 60.8538 53.4572 59.117 53.4572Z" fill="#3E517A"/>
<path d="M86.7887 53.4572H74.2107C72.4738 53.4572 71.0661 54.8648 71.0661 56.6017C71.0661 58.3385 72.4738 59.7462 74.2107 59.7462H86.7887C88.5244 59.7462 89.9332 58.3385 89.9332 56.6017C89.9332 54.8648 88.5256 53.4572 86.7887 53.4572Z" fill="#3E517A"/>
<path d="M101.882 53.4572C100.146 53.4572 98.7379 54.8648 98.7379 56.6017C98.7379 58.3385 100.146 59.7462 101.882 59.7462H114.46C116.196 59.7462 117.605 58.3385 117.605 56.6017C117.605 54.8648 116.196 53.4572 114.46 53.4572H101.882Z" fill="#3E517A"/>
<path d="M129.554 59.7462H142.132C143.868 59.7462 145.277 58.3385 145.277 56.6017C145.277 54.8648 143.868 53.4572 142.132 53.4572H129.554C127.817 53.4572 126.41 54.8648 126.41 56.6017C126.41 58.3385 127.817 59.7462 129.554 59.7462Z" fill="#3E517A"/>
<path d="M31.4452 68.5508H18.8671C17.1303 68.5508 15.7226 69.9585 15.7226 71.6954C15.7226 73.4322 17.1303 74.8399 18.8671 74.8399H31.4452C33.182 74.8399 34.5897 73.4322 34.5897 71.6954C34.5897 69.9585 33.182 68.5508 31.4452 68.5508Z" fill="#3E517A"/>
<path d="M59.117 68.5508H46.5389C44.802 68.5508 43.3944 69.9585 43.3944 71.6954C43.3944 73.4322 44.802 74.8399 46.5389 74.8399H59.117C60.8526 74.8399 62.2615 73.4322 62.2615 71.6954C62.2615 69.9585 60.8538 68.5508 59.117 68.5508Z" fill="#3E517A"/>
<path d="M86.7887 68.5508H74.2107C72.4738 68.5508 71.0661 69.9585 71.0661 71.6954C71.0661 73.4322 72.4738 74.8399 74.2107 74.8399H86.7887C88.5244 74.8399 89.9332 73.4322 89.9332 71.6954C89.9332 69.9585 88.5256 68.5508 86.7887 68.5508Z" fill="#3E517A"/>
<path d="M114.46 68.5508H101.882C100.146 68.5508 98.7379 69.9585 98.7379 71.6954C98.7379 73.4322 100.146 74.8399 101.882 74.8399H114.46C116.196 74.8399 117.605 73.4322 117.605 71.6954C117.605 69.9585 116.197 68.5508 114.46 68.5508Z" fill="#3E517A"/>
<path d="M129.554 74.8399H142.132C143.868 74.8399 145.277 73.4322 145.277 71.6954C145.277 69.9585 143.868 68.5508 142.132 68.5508H129.554C127.817 68.5508 126.41 69.9585 126.41 71.6954C126.41 73.4322 127.817 74.8399 129.554 74.8399Z" fill="#3E517A"/>
<path d="M31.4452 83.6445H18.8671C17.1303 83.6445 15.7226 85.0522 15.7226 86.7891C15.7226 88.5259 17.1303 89.9336 18.8671 89.9336H31.4452C33.182 89.9336 34.5897 88.5259 34.5897 86.7891C34.5897 85.0522 33.182 83.6445 31.4452 83.6445Z" fill="#3E517A"/>
<path d="M86.7887 83.6445H74.2107C72.4738 83.6445 71.0661 85.0522 71.0661 86.7891C71.0661 88.5259 72.4738 89.9336 74.2107 89.9336H86.7887C88.5244 89.9336 89.9332 88.5259 89.9332 86.7891C89.9332 85.0522 88.5256 83.6445 86.7887 83.6445Z" fill="#3E517A"/>
<path d="M129.554 89.9336H142.132C143.868 89.9336 145.277 88.5259 145.277 86.7891C145.277 85.0522 143.868 83.6445 142.132 83.6445H129.554C127.817 83.6445 126.41 85.0522 126.41 86.7891C126.41 88.5259 127.817 89.9336 129.554 89.9336Z" fill="#3E517A"/>
<path d="M112.469 34.59C111.639 34.59 110.831 34.9266 110.246 35.5113C109.659 36.096 109.325 36.9079 109.325 37.7345C109.325 38.5612 109.659 39.3731 110.246 39.9578C110.831 40.5425 111.643 40.8791 112.469 40.8791C113.296 40.8791 114.104 40.5425 114.693 39.9578C115.277 39.3731 115.614 38.5612 115.614 37.7345C115.614 36.9079 115.277 36.096 114.693 35.5113C114.108 34.9266 113.296 34.59 112.469 34.59Z" fill="#3E517A"/>
<path d="M125.588 26.7815C126.394 26.7815 127.197 26.4744 127.811 25.8603L132.264 21.4088C133.491 20.1805 133.491 18.1894 132.264 16.9623C131.036 15.7339 129.044 15.7339 127.816 16.9623L123.365 21.4137C122.136 22.642 122.136 24.6332 123.365 25.8603C123.979 26.4744 124.783 26.7815 125.588 26.7815Z" fill="#3E517A"/>
<path d="M97.1251 25.8603C97.7393 26.4744 98.5438 26.7815 99.3484 26.7815C100.153 26.7815 100.959 26.4744 101.573 25.8603C102.8 24.6332 102.8 22.642 101.573 21.4137L97.1214 16.9623C95.8931 15.7339 93.9032 15.7339 92.6736 16.9623C91.4453 18.1894 91.4453 20.1805 92.6736 21.4088L97.1251 25.8603Z" fill="#3E517A"/>
<path d="M112.468 27.3417C114.205 27.3417 115.613 25.934 115.613 24.1971V3.14482C115.613 1.40797 114.205 0.000305176 112.468 0.000305176C110.733 0.000305176 109.324 1.40797 109.324 3.14482V24.1971C109.324 25.934 110.733 27.3417 112.468 27.3417Z" fill="#3E517A"/>
</g>
<defs>
<clipPath id="clip0_0_188">
<rect width="161" height="161" fill="white"/>
</clipPath>
</defs>
</svg>
