<svg width="200" height="200" viewBox="0 0 200 200" fill="none" xmlns="http://www.w3.org/2000/svg">
<path d="M30.6041 53.2291H36.8541V59.4791C36.8541 60.0317 37.0736 60.5616 37.4643 60.9523C37.855 61.343 38.3849 61.5625 38.9375 61.5625H51.3333C51.8858 61.5625 52.4158 61.343 52.8065 60.9523C53.1972 60.5616 53.4166 60.0317 53.4166 59.4791V53.2291H59.6666C60.2192 53.2291 60.7491 53.0097 61.1398 52.6189C61.5305 52.2283 61.75 51.6983 61.75 51.1458V38.75C61.75 38.1974 61.5305 37.6675 61.1398 37.2768C60.7491 36.8861 60.2192 36.6666 59.6666 36.6666H53.4166V30.4166C53.4166 29.8641 53.1972 29.3342 52.8065 28.9435C52.4158 28.5528 51.8858 28.3333 51.3333 28.3333H38.875C38.3224 28.3333 37.7925 28.5528 37.4018 28.9435C37.0111 29.3342 36.7916 29.8641 36.7916 30.4166V36.6666H30.5416C29.9891 36.6666 29.4592 36.8861 29.0685 37.2768C28.6778 37.6675 28.4583 38.1974 28.4583 38.75V51.1458C28.4582 51.4247 28.5141 51.7008 28.6227 51.9578C28.7312 52.2147 28.8903 52.4472 29.0904 52.6415C29.2906 52.8358 29.5277 52.9879 29.7877 53.0889C30.0477 53.1898 30.3253 53.2375 30.6041 53.2291ZM32.6875 40.8333H38.9375C39.49 40.8333 40.0199 40.6138 40.4106 40.2231C40.8013 39.8324 41.0208 39.3025 41.0208 38.75V32.5H49.25V38.75C49.25 39.3025 49.4695 39.8324 49.8602 40.2231C50.2509 40.6138 50.7808 40.8333 51.3333 40.8333H57.5833V49.0625H51.3333C50.7808 49.0625 50.2509 49.282 49.8602 49.6727C49.4695 50.0634 49.25 50.5933 49.25 51.1458V57.3958H40.9583V51.1458C40.9583 50.5933 40.7388 50.0634 40.3481 49.6727C39.9574 49.282 39.4275 49.0625 38.875 49.0625H32.625L32.6875 40.8333Z" fill="#3E517A"/>
<path d="M29.4583 85.9583H119.938C120.49 85.9583 121.02 85.7388 121.411 85.3481C121.801 84.9574 122.021 84.4275 122.021 83.875C122.021 83.3225 121.801 82.7926 121.411 82.4019C121.02 82.0112 120.49 81.7917 119.938 81.7917H29.4583C28.9058 81.7917 28.3759 82.0112 27.9852 82.4019C27.5945 82.7926 27.375 83.3225 27.375 83.875C27.375 84.4275 27.5945 84.9574 27.9852 85.3481C28.3759 85.7388 28.9058 85.9583 29.4583 85.9583Z" fill="#3E517A"/>
<path d="M29.4583 155.5H75.8958C76.4484 155.5 76.9783 155.28 77.369 154.89C77.7597 154.499 77.9792 153.969 77.9792 153.417C77.9792 152.864 77.7597 152.334 77.369 151.944C76.9783 151.553 76.4484 151.333 75.8958 151.333H29.4583C28.9058 151.333 28.3759 151.553 27.9852 151.944C27.5945 152.334 27.375 152.864 27.375 153.417C27.375 153.969 27.5945 154.499 27.9852 154.89C28.3759 155.28 28.9058 155.5 29.4583 155.5Z" fill="#3E517A"/>
<path d="M192.187 96.1667C191.521 95.25 192.75 95.8958 156.937 85.5833V21.5625C156.932 19.5861 156.144 17.6922 154.747 16.2947C153.349 14.8972 151.456 14.1097 149.479 14.1042H119.667C105.854 0.291656 105.854 0.104156 105.229 0.104156C104.604 0.104156 111.479 0.104156 14.2083 0.104156C12.4175 0.109408 10.7003 0.817446 9.42628 2.07592C8.15222 3.3344 7.4231 5.04272 7.39581 6.83332V170.021C7.40131 171.826 8.12082 173.556 9.39722 174.832C10.6736 176.108 12.4032 176.828 14.2083 176.833H22.3333V183.458C22.3306 184.437 22.5209 185.406 22.8935 186.311C23.266 187.216 23.8134 188.038 24.5043 188.731C25.1952 189.424 26.0161 189.973 26.9198 190.349C27.8235 190.724 28.7924 190.917 29.7708 190.917H130.229C134.396 193.604 138.562 195.771 142.042 197.646C146.5 200 146.271 200 146.896 200C147.521 200 147.625 199.875 151.625 197.75C165.958 190.271 192.604 176.333 192.604 140.042C192.604 94.6875 192.792 96.7708 192.187 96.1667ZM185.937 98.25L179.312 103.25C139.292 91.6667 151.271 95.2083 148.979 94.5208V87.625C151.583 88.4167 182.667 97.2917 185.937 98.25ZM146.937 183.333C141.089 180.436 135.6 176.863 130.583 172.687C125.87 168.686 122.122 163.672 119.618 158.019C117.115 152.366 115.92 146.221 116.125 140.042V107.104L146.896 98.25L177.646 107.104V140.021C177.646 159.75 167.229 170.646 156.937 177.521C153.707 179.629 150.369 181.569 146.937 183.333ZM144.854 87.6458V94.5417L114.583 103.25L107.958 98.25L144.854 87.6458ZM149.479 18.2708C150.352 18.2708 151.189 18.6176 151.807 19.2349C152.424 19.8522 152.771 20.6895 152.771 21.5625V84.375C146.354 82.5208 147.312 82.75 146.771 82.7917C145.146 83.0915 143.55 83.5307 142 84.1041V37.3125C141.999 37.0368 141.943 36.7642 141.836 36.5103C141.728 36.2564 141.572 36.0263 141.375 35.8333L123.812 18.2708H149.479ZM134.896 35.2292H109.437C108.734 35.2237 108.061 34.9403 107.565 34.4408C107.07 33.9413 106.792 33.2661 106.792 32.5625V7.12499L134.896 35.2292ZM14.2291 172.729C13.5274 172.729 12.8545 172.45 12.3583 171.954C11.8621 171.458 11.5833 170.785 11.5833 170.083V6.83332C11.5806 6.48586 11.6463 6.14127 11.7767 5.81921C11.9072 5.49715 12.0997 5.20394 12.3435 4.95631C12.5873 4.70869 12.8774 4.5115 13.1974 4.37601C13.5173 4.24052 13.8609 4.16938 14.2083 4.16666H102.625V32.5625C102.625 34.3712 103.342 36.1061 104.619 37.387C105.896 38.6679 107.629 39.3903 109.437 39.3958H137.833V85.2292L109.708 93.3333H29.4583C28.9058 93.3333 28.3759 93.5528 27.9852 93.9435C27.5945 94.3342 27.375 94.8641 27.375 95.4167C27.375 95.9692 27.5945 96.4991 27.9852 96.8898C28.3759 97.2805 28.9058 97.5 29.4583 97.5H101.187V104.917H29.4583C28.9058 104.917 28.3759 105.136 27.9852 105.527C27.5945 105.918 27.375 106.447 27.375 107C27.375 107.553 27.5945 108.082 27.9852 108.473C28.3759 108.864 28.9058 109.083 29.4583 109.083H101.187V116.667H29.4583C28.9058 116.667 28.3759 116.886 27.9852 117.277C27.5945 117.668 27.375 118.197 27.375 118.75C27.375 119.303 27.5945 119.832 27.9852 120.223C28.3759 120.614 28.9058 120.833 29.4583 120.833H101.187V128.271H29.4583C28.9058 128.271 28.3759 128.49 27.9852 128.881C27.5945 129.272 27.375 129.802 27.375 130.354C27.375 130.907 27.5945 131.437 27.9852 131.827C28.3759 132.218 28.9058 132.437 29.4583 132.437H101.187V139.854H29.4583C28.9058 139.854 28.3759 140.074 27.9852 140.464C27.5945 140.855 27.375 141.385 27.375 141.937C27.375 142.49 27.5945 143.02 27.9852 143.411C28.3759 143.801 28.9058 144.021 29.4583 144.021H101.312C101.647 154.287 104.868 164.251 110.604 172.771L14.2291 172.729ZM29.7916 186.812C29.3604 186.812 28.9333 186.727 28.5351 186.562C28.1369 186.396 27.7754 186.153 27.4714 185.847C27.1674 185.541 26.9269 185.178 26.7638 184.779C26.6006 184.38 26.5181 183.952 26.5208 183.521V176.833H113.729C116.813 180.524 120.308 183.852 124.146 186.75L29.7916 186.812ZM138.396 190.979C119.167 180.187 106.812 166.562 105.5 143.979C105.333 141.417 105.375 144.167 105.375 101.667L111.979 106.646V139.979C111.979 163.062 124.354 176.604 144.833 186.854V194.354C144.437 194.187 140.958 192.375 138.375 190.917L138.396 190.979ZM149.729 194.104L149 194.5V186.958C169.25 176.833 181.812 162.5 181.812 140.021V106.687L188.437 101.687V140.021C188.437 173.792 163.229 186.958 149.708 194.042L149.729 194.104Z" fill="#3E517A"/>
<path d="M170.375 125.125C171.403 123.791 171.881 122.115 171.71 120.44C171.54 118.765 170.734 117.219 169.459 116.12C168.183 115.02 166.535 114.452 164.854 114.53C163.172 114.609 161.584 115.328 160.417 116.542L140.729 139.458C137.083 136.604 138.917 138.021 132.396 132.979C131.712 132.448 130.93 132.058 130.095 131.829C129.26 131.6 128.388 131.538 127.529 131.647C126.67 131.755 125.841 132.032 125.089 132.46C124.337 132.889 123.677 133.462 123.146 134.146C122.615 134.83 122.224 135.612 121.996 136.447C121.767 137.282 121.705 138.154 121.813 139.012C121.922 139.871 122.198 140.701 122.627 141.453C123.056 142.205 123.629 142.865 124.312 143.396L137.792 153.812C139.125 154.754 140.761 155.167 142.382 154.971C144.003 154.775 145.493 153.983 146.562 152.75L170.375 125.125ZM143.437 150C143.026 150.451 142.463 150.735 141.855 150.796C141.248 150.858 140.639 150.693 140.146 150.333L126.917 139.917C126.646 139.73 126.416 139.49 126.241 139.212C126.066 138.933 125.95 138.622 125.9 138.297C125.85 137.972 125.866 137.64 125.949 137.322C126.031 137.003 126.177 136.705 126.379 136.445C126.581 136.186 126.833 135.97 127.121 135.811C127.409 135.652 127.726 135.554 128.053 135.522C128.381 135.49 128.711 135.525 129.024 135.625C129.337 135.725 129.627 135.888 129.875 136.104L139.729 143.792C140.152 144.118 140.683 144.27 141.214 144.215C141.746 144.161 142.236 143.905 142.583 143.5L163.562 119.271C163.986 118.806 164.573 118.525 165.201 118.486C165.828 118.447 166.446 118.655 166.923 119.064C167.4 119.473 167.699 120.052 167.756 120.678C167.813 121.304 167.624 121.928 167.229 122.417L143.437 150Z" fill="#3E517A"/>
</svg>
