<?xml version="1.0" encoding="utf-8"?>
<!-- Generator: Adobe Illustrator 27.5.0, SVG Export Plug-In . SVG Version: 6.00 Build 0)  -->
<svg version="1.1" id="Layer_1" xmlns="http://www.w3.org/2000/svg" xmlns:xlink="http://www.w3.org/1999/xlink" x="0px" y="0px"
	 viewBox="0 0 1000 1000" style="enable-background:new 0 0 1000 1000;" xml:space="preserve">
<style type="text/css">
	.st0{clip-path:url(#SVGID_00000054243456655905716960000014418688282436108169_);}
	.st1{fill:none;stroke:#40537C;stroke-width:38.227;stroke-linecap:round;stroke-linejoin:round;stroke-miterlimit:5.8594;}
</style>
<g transform="matrix(1,0,0,1,0,0)">
	<g id="g1959" transform="matrix(1.3333333,0,0,-1.3333333,0,682.66667)">
		<g id="g1961">
			<g>
				<defs>
					<rect id="SVGID_1_" x="48.8" y="-189.2" width="652.4" height="652.4"/>
				</defs>
				<clipPath id="SVGID_00000012455465810526078570000018225789052960203678_">
					<use xlink:href="#SVGID_1_"  style="overflow:visible;"/>
				</clipPath>
				<g id="g1963" style="clip-path:url(#SVGID_00000012455465810526078570000018225789052960203678_);">
					<g id="g1969" transform="translate(63.2002,352.4004)">
						<path id="path1971" class="st1" d="M127.5-123.3H81.5"/>
					</g>
					<g id="g1973" transform="translate(448.7998,159.5996)">
						<path id="path1975" class="st1" d="M110.5-114.7h46.1"/>
					</g>
					<g id="g1977" transform="translate(91.4375,420.5625)">
						<path id="path1979" class="st1" d="M126.3-126.3L93.7-93.7"/>
					</g>
					<g id="g1981" transform="translate(420.5625,91.4375)">
						<path id="path1983" class="st1" d="M111.7-111.7l32.6-32.6"/>
					</g>
					<g id="g1985" transform="translate(159.5996,448.7998)">
						<path id="path1987" class="st1" d="M123.3-127.5v46.1"/>
					</g>
					<g id="g1989" transform="translate(352.4004,63.2002)">
						<path id="path1991" class="st1" d="M114.7-110.5v-46.1"/>
					</g>
					<g id="g1993" transform="translate(308.5781,308.5781)">
						<path id="path1995" class="st1" d="M116.7-121.3c23.1-23.1,60.6-23.1,83.8,0"/>
					</g>
					<g id="g1997" transform="translate(115.7783,115.7783)">
						<path id="path1999" class="st1" d="M125.2-112.8c23.1-23.1,60.6-23.1,83.8,0"/>
					</g>
					<g id="g2001" transform="translate(393.7158,398.5752)">
						<path id="path2003" class="st1" d="M112.9-125.3v-14.5"/>
					</g>
					<g id="g2005" transform="translate(200.915,205.7754)">
						<path id="path2007" class="st1" d="M121.4-116.8v-14.5"/>
					</g>
					<g id="g2009" transform="translate(311.085,398.5752)">
						<path id="path2011" class="st1" d="M116.6-125.3v-14.5"/>
					</g>
					<g id="g2013" transform="translate(118.2842,205.7754)">
						<path id="path2015" class="st1" d="M125.1-116.8v-14.5"/>
					</g>
					<g id="g2017" transform="translate(221.8828,290.1172)">
						<path id="path2019" class="st1" d="M120.5-120.5c28.5-13.6,51.6-36.7,65.2-65.2c18-8.6,38.2-13.5,59.5-13.5
							c76.3,0,138.2,61.9,138.2,138.2c0,76.3-61.9,138.2-138.2,138.2C169,77.2,107.1,15.3,107.1-61
							C107.1-82.3,111.9-102.5,120.5-120.5z"/>
					</g>
					<g id="g2021" transform="translate(159.5996,304.2002)">
						<path id="path2023" class="st1" d="M123.3-121.1c-76.3,0-138.2-61.9-138.2-138.2c0-76.3,61.9-138.2,138.2-138.2
							c76.3,0,138.2,61.9,138.2,138.2C261.5-183.1,199.5-121.1,123.3-121.1z"/>
					</g>
				</g>
			</g>
		</g>
	</g>
</g>
</svg>
