<svg width="91" height="91" viewBox="0 0 91 91" fill="none" xmlns="http://www.w3.org/2000/svg">
<path d="M50.3864 44.3403C50.2361 44.936 50.8869 45.4144 51.4108 45.0986C56.5468 41.9909 61.5739 38.6128 66.3514 35.0569L77.623 35.2955C85.733 35.4513 87.997 32.8371 88.0852 25.6605L88.2989 12.5923C88.423 5.44471 86.5203 2.4817 77.9525 2.14665C72.2043 1.90261 66.4589 1.65994 60.6983 1.42968C51.5142 1.03811 46.0211 3.3393 46.1507 13.938C46.1797 15.5402 45.3607 23.2518 45.4793 25.6798C45.6599 29.7569 47.6743 33.2521 51.9168 34.3469C51.739 37.5443 51.295 40.7251 50.3864 44.3403ZM74.8737 29.7362L76.4441 31.3066L74.7165 33.0343L73.146 31.4638L74.8737 29.7362ZM74.2904 33.583C74.2808 33.6782 74.3028 33.7719 74.3718 33.8477L70.8379 33.7733L72.6593 31.9519L74.2904 33.583ZM67.5523 33.703L68.4485 32.8068L69.3833 33.7416L67.5523 33.703ZM75.3659 33.8684C75.3755 33.7691 75.3535 33.6699 75.2776 33.594L75.2046 33.521L76.9322 31.7933L78.4544 33.3155C78.5716 33.4341 78.7591 33.4644 78.9204 33.3252C78.7591 33.4865 78.4626 33.7209 78.4585 33.9263C78.1883 33.925 77.9166 33.9236 77.6519 33.9181L75.3659 33.8684ZM81.1099 27.6156L82.8706 29.3763L81.365 30.882L79.6043 29.1213L81.1099 27.6156ZM80.8755 31.3687L78.9507 33.2935C79.0679 33.1583 79.0707 32.957 78.9411 32.8274L77.4189 31.3053L79.1162 29.608L80.8755 31.3687ZM81.3636 31.8568L82.8844 33.3776C81.791 33.7498 80.5515 33.8822 79.3051 33.9139L81.3636 31.8568ZM86.6747 26.8104C86.6637 26.7415 86.6485 26.6698 86.5947 26.6174L85.3966 25.4192L86.7326 24.0832L86.7064 25.6412C86.7009 26.0355 86.6899 26.4257 86.6747 26.8104ZM86.7519 17.0348C86.7795 17.0582 86.814 17.061 86.8457 17.0734L86.8057 19.5318C86.7933 19.4656 86.7795 19.3967 86.7285 19.3457L85.5841 18.2013L86.7519 17.0348ZM86.8002 19.8544C86.7878 19.8213 86.7822 19.7869 86.7602 19.7565C86.7795 19.7221 86.796 19.689 86.8043 19.6504L86.8002 19.8544ZM86.7974 20.0819L86.7588 22.4507C86.745 22.39 86.7354 22.3266 86.6885 22.2797L85.682 21.2732C85.8281 21.1229 86.7257 20.2625 86.7974 20.0819ZM46.8553 25.6164C46.745 23.2945 47.5585 15.6408 47.5295 13.9201C47.411 4.38856 52.0092 2.44033 60.6418 2.80985C66.4024 3.04011 72.1478 3.28277 77.896 3.52682C85.6654 3.83015 87.0318 6.17133 86.9201 12.5703V12.5717L86.8622 16.0903C86.8374 16.0903 86.8167 16.1124 86.7933 16.1193L86.0074 15.3334C85.8722 15.1983 85.6544 15.1983 85.5193 15.3334C85.3842 15.4685 85.3842 15.6863 85.5193 15.8201L86.2569 16.5577L85.0119 17.8014C84.9002 17.9117 84.9043 18.073 84.976 18.204C84.9043 18.335 84.9002 18.4949 85.0119 18.6066L86.1921 19.7869L85.1911 20.7879L85.118 20.7148C84.9815 20.5797 84.7637 20.581 84.63 20.7148C84.4948 20.8499 84.4948 21.0678 84.63 21.2029L84.703 21.276L83.9337 22.0453C83.7985 22.1804 83.7985 22.3983 83.9337 22.532C84.0674 22.6658 84.2853 22.6672 84.4218 22.532L85.1911 21.7627L86.1976 22.7692C86.3314 22.9029 86.5492 22.9043 86.6857 22.7692C86.7312 22.7237 86.7395 22.6616 86.7547 22.6037L86.7464 23.0946L84.9071 24.9339L83.7268 23.7536C83.5917 23.6185 83.3739 23.6185 83.2388 23.7536C83.1036 23.8888 83.1036 24.1066 83.2388 24.2417L84.419 25.422L83.2388 26.6036C83.1036 26.7387 83.1036 26.9566 83.2388 27.0903C83.3725 27.224 83.5903 27.2254 83.7268 27.0903L84.9071 25.9101L86.1053 27.1082C86.239 27.242 86.4569 27.2433 86.592 27.1082C86.6416 27.0586 86.654 26.9924 86.6664 26.9276C86.5451 29.6218 86.0184 31.945 83.5835 33.1073L81.8489 31.3728L83.3546 29.8672L84.6465 31.1577C84.7802 31.2915 84.9981 31.2928 85.1346 31.1577C85.2697 31.0226 85.2697 30.8048 85.1346 30.6696L83.844 29.3791L85.3759 27.8473C85.511 27.7121 85.511 27.4943 85.3759 27.3592C85.2408 27.224 85.0229 27.224 84.8878 27.3592L83.356 28.891L81.5952 27.1303L81.86 26.8656C81.9951 26.7304 81.9951 26.5126 81.86 26.3788C81.7248 26.2437 81.507 26.2437 81.3719 26.3788L80.9403 26.8104C80.9045 26.827 80.8617 26.8256 80.8328 26.8545C80.8024 26.8849 80.8052 26.9262 80.7887 26.9621L79.1148 28.6359L78.0931 27.6142C77.958 27.4791 77.7402 27.4791 77.605 27.6142C77.4699 27.7494 77.4699 27.9672 77.605 28.1023L78.6267 29.124L76.9294 30.8213L75.359 29.2509L75.9794 28.6304C76.1146 28.4953 76.1146 28.2774 75.9794 28.1423C75.8443 28.0072 75.6265 28.0072 75.4913 28.1423L74.7785 28.8551C74.7013 28.862 74.6227 28.8841 74.5634 28.9448C74.5041 29.0041 74.4807 29.0826 74.4738 29.1599L72.6538 30.9799L72.0747 30.4008C71.9396 30.2656 71.7217 30.2656 71.5866 30.4008C71.4515 30.5359 71.4515 30.7537 71.5866 30.8875L72.1657 31.4666L70.121 33.5113L68.9311 32.3214L71.0489 30.2036C71.184 30.0685 71.184 29.8506 71.0489 29.7155C70.9138 29.5804 70.6959 29.5804 70.5608 29.7155L68.443 31.8333L68.0845 31.4748C67.9494 31.3397 67.7315 31.3397 67.5964 31.4748C67.4613 31.61 67.4613 31.8278 67.5964 31.9629L67.9549 32.3214L66.8918 33.3845L66.2493 32.742C66.1142 32.6068 65.8964 32.6068 65.7612 32.742C65.6261 32.8771 65.6261 33.0949 65.7612 33.23L66.208 33.6768L66.1363 33.6754C66.0273 33.6699 65.8316 33.7209 65.7089 33.8119C61.3464 37.0672 56.7757 40.1736 52.0975 43.0608C52.7841 39.9544 53.1426 37.1637 53.2929 34.2862C53.3549 33.7361 53.3053 33.2425 52.7607 33.1308C48.8504 32.3269 47.0235 29.375 46.8553 25.6164Z" fill="#3E517A"/>
<path d="M59.3954 18.1405C60.0187 14.9045 55.3266 12.6295 52.7993 14.8921C51.4371 16.1137 51.091 18.1874 51.455 19.5179C51.7004 20.4058 52.2106 21.0649 52.9303 21.422C55.0688 22.4795 58.8977 20.7381 59.3954 18.1405ZM53.8968 20.2955L54.6786 19.5138L55.368 20.2032C54.8289 20.3548 54.3118 20.3893 53.8968 20.2955ZM55.6851 19.5331C55.6824 19.5358 55.6837 19.54 55.681 19.5427L55.1667 19.0271L55.7361 18.4576L56.249 18.9705L55.6851 19.5331ZM56.7358 19.4572L56.7992 19.5207C56.6834 19.602 56.5675 19.6806 56.4393 19.7537L56.7358 19.4572ZM58.0415 17.8799C57.9615 18.2991 57.7064 18.7127 57.3383 19.0836L57.2238 18.9692L57.5575 18.6355C57.6926 18.5004 57.6926 18.2825 57.5575 18.1474C57.2707 17.8606 57.0212 18.197 56.7371 18.4811L56.2242 17.9681L56.6585 17.5338L56.944 17.8192C57.0763 17.9516 57.2955 17.9557 57.432 17.8192C57.5672 17.6841 57.5672 17.4663 57.432 17.3325L57.1466 17.0471L57.1908 17.003C57.3259 16.8679 57.3259 16.65 57.1908 16.5163C57.0556 16.3812 56.8378 16.3812 56.7027 16.5163L56.6585 16.5604L56.4159 16.3177L56.8957 15.8379C57.7078 16.304 58.1904 17.1009 58.0415 17.8799ZM53.7204 15.9193C54.4525 15.263 55.2963 15.2519 56.2187 15.5387L55.9223 15.8352C55.7858 15.7138 55.5817 15.7138 55.4535 15.8434C55.3239 15.973 55.3266 16.1771 55.4452 16.3122L55.2991 16.4584C55.1639 16.5935 55.1639 16.8113 55.2991 16.9451C55.4328 17.0788 55.6507 17.0802 55.7872 16.9451L55.9278 16.8045L56.1705 17.0471L55.7361 17.4814C55.4535 17.1988 55.2025 16.8624 54.9158 17.1491C54.7806 17.2843 54.7806 17.5021 54.9158 17.6372L55.248 17.9695L54.6786 18.539L54.2498 18.1102C54.1161 17.9764 53.8982 17.9737 53.7617 18.1102C53.6266 18.2453 53.6266 18.4631 53.7617 18.5983L54.1905 19.0271L53.2653 19.9522C53.0558 19.7578 52.8834 19.5138 52.7855 19.1539C52.5263 18.2081 52.8048 16.7396 53.7204 15.9193Z" fill="#3E517A"/>
<path d="M66.3142 21.7391C68.3714 21.7391 70.9194 20.2376 71.322 18.1391C71.6157 16.6018 70.634 15.012 68.9877 14.3612C67.3442 13.7105 65.8303 13.9021 64.7245 14.8935C63.3636 16.1151 63.0175 18.1888 63.3815 19.5193C63.78 20.9656 64.8513 21.7391 66.3142 21.7391ZM65.8427 20.3024L66.63 19.5152L67.3138 20.199C66.7761 20.3507 66.2591 20.3907 65.8427 20.3024ZM68.4155 19.5317C68.4679 19.5855 68.5382 19.6006 68.6085 19.6117C68.4265 19.7302 68.2238 19.8281 68.0156 19.9247L67.1194 19.0284L67.5165 18.6313L68.4155 19.5317ZM65.6441 15.9193C66.3639 15.274 67.1925 15.2519 68.1053 15.5277C68.0846 15.5415 68.057 15.5373 68.0391 15.5553L67.6682 15.9262L67.6241 15.882C67.4889 15.7469 67.2711 15.7469 67.136 15.882C67.0009 16.0172 67.0009 16.235 67.136 16.3701L67.1801 16.4143L66.9429 16.6514C66.8078 16.7865 66.8078 17.0044 66.9429 17.1395C67.0105 17.2071 67.0987 17.2401 67.187 17.2401C67.2766 17.2401 67.3635 17.2071 67.431 17.1395L67.6682 16.9023L68.6816 17.9158C68.8153 18.0495 69.0332 18.0509 69.1697 17.9158C69.3048 17.7806 69.3048 17.5628 69.1697 17.4277L68.1563 16.4143L68.5272 16.0434C68.6209 15.9496 68.6251 15.8241 68.5892 15.7056C69.5488 16.1371 70.1293 17.0264 69.9666 17.8799C69.8687 18.3914 69.5047 18.8892 68.9918 19.3152C69.0001 19.2173 68.9767 19.1194 68.9022 19.0436L67.9412 18.0826C67.9522 17.9819 67.9315 17.8813 67.8543 17.8041C67.7771 17.7269 67.6751 17.7062 67.5744 17.7172L67.0463 17.1891C66.9112 17.054 66.6934 17.054 66.5583 17.1891C66.4231 17.3243 66.4231 17.5421 66.5583 17.6772L67.0257 18.1446L66.63 18.5403L66.1239 18.0343C65.9888 17.8992 65.771 17.8992 65.6359 18.0343C65.5007 18.1695 65.5007 18.3873 65.6359 18.521L66.1419 19.0271L65.2043 19.9646C64.9878 19.7702 64.81 19.522 64.7093 19.1539C64.4515 18.2081 64.73 16.7396 65.6441 15.9193Z" fill="#3E517A"/>
<path d="M79.2072 21.382C80.8962 20.7437 82.1068 19.5014 82.3674 18.1391C82.6611 16.6018 81.6794 15.012 80.0331 14.3612C78.3896 13.7105 76.8757 13.9021 75.7699 14.8935C74.409 16.1151 74.0629 18.1888 74.4269 19.5193C75.0281 21.6978 77.099 22.179 79.2072 21.382ZM77.0397 20.33L77.6051 19.7647L78.1124 20.2721C77.725 20.3562 77.3582 20.3728 77.0397 20.33ZM79.5836 18.885L79.0335 18.3349L79.5064 17.862L80.0565 18.4121L79.5836 18.885ZM79.0955 19.3731L78.7812 19.6875C78.726 19.7427 78.7095 19.8143 78.6984 19.886L78.0904 19.278L78.5454 18.823L79.0955 19.3731ZM81.0051 17.5642C80.9445 17.578 80.8797 17.5876 80.8328 17.6359L80.5446 17.924L79.9945 17.3739L80.2909 17.0775C80.4261 16.9423 80.4261 16.7245 80.2909 16.5907C80.1558 16.4556 79.938 16.4556 79.8028 16.5907L79.5064 16.8872L79.0721 16.4529L79.6181 15.9082C79.6663 15.86 79.676 15.7966 79.6898 15.7359C80.4964 16.1206 80.9955 16.8293 81.0051 17.5642ZM76.6909 15.9193C77.3858 15.2961 78.1786 15.2561 79.0528 15.4974L78.0518 16.497C77.9167 16.6321 77.9167 16.85 78.0518 16.9851C78.1883 17.1216 78.4061 17.1174 78.5399 16.9851L78.584 16.941L79.0183 17.3753L78.5454 17.8482L78.0394 17.3422C77.9042 17.2071 77.6864 17.2071 77.5513 17.3422C77.4162 17.4773 77.4162 17.6952 77.5513 17.8303L78.0573 18.3363L77.6037 18.7899L77.0784 18.2646C76.9432 18.1295 76.7254 18.1295 76.5903 18.2646C76.4551 18.3997 76.4551 18.6176 76.5903 18.7527L77.1156 19.278L76.3476 20.046C76.0801 19.8502 75.8719 19.5744 75.7575 19.1539C75.4983 18.2081 75.7768 16.7397 76.6909 15.9193Z" fill="#3E517A"/>
<path d="M60.202 87.4908C60.3358 87.6245 60.5536 87.6259 60.6901 87.4908L60.7756 87.4053C65.1615 88.9537 69.7736 89.9823 74.4022 89.4804C80.5447 88.8117 87.3862 84.5816 88.5761 77.791C90.0307 69.5073 80.8632 56.4722 74.3442 52.5716C70.4354 50.2318 64.5135 49.2074 60.0945 52.1842C55.5845 55.2217 53.8858 61.4221 49.2131 63.2269C40.2013 66.6973 25.9447 51.1336 27.9425 41.4021C28.5644 38.366 32.294 38.3122 34.7965 36.1392C37.9939 33.3624 39.8663 28.7834 39.5657 24.4733C38.7426 12.7536 23.234 -0.431736 12.3402 3.2579C8.2231 4.65323 4.84782 8.35804 3.31323 13.17C2.11093 16.9424 1.95375 21.2152 2.81687 26.6201C7.24829 54.3709 29.7556 74.1745 55.8685 85.4667C56.0395 85.5412 56.2173 85.6129 56.3897 85.686C56.3538 85.8032 56.3593 85.93 56.4517 86.0224C56.5855 86.1561 56.8033 86.1575 56.9398 86.0224L57.0129 85.9493C58.0249 86.3726 59.0645 86.7849 60.1303 87.1764C60.1055 87.2881 60.1152 87.4039 60.202 87.4908ZM61.0982 81.864L63.2188 83.9859L61.4236 85.7811L59.3017 83.6592L61.0982 81.864ZM63.7069 84.4726L65.9916 86.7573L65.3904 87.3584C64.1936 87.0661 63.0175 86.7118 61.8607 86.3188L63.7069 84.4726ZM66.805 81.3759L69.0897 83.6605L66.4796 86.2706L64.195 83.9859L66.805 81.3759ZM66.4783 87.2454L66.9333 87.7004C66.6837 87.6521 66.4369 87.5901 66.1887 87.5363L66.4783 87.2454ZM67.5827 87.8203C67.6944 87.6852 67.6971 87.4894 67.5703 87.3626L66.965 86.7573L69.575 84.1459L71.5343 86.1038L70.1472 87.4908C70.0121 87.6259 70.0121 87.8438 70.1472 87.9789C70.281 88.1126 70.4988 88.114 70.6353 87.9789L72.0224 86.5918L73.5749 88.1444C71.5715 88.2946 69.5626 88.165 67.5827 87.8203ZM78.7095 83.007L77.4837 84.2314L75.9326 82.6802L77.157 81.4558L78.7095 83.007ZM76.997 84.7194L74.0602 87.6549L72.5105 86.1051L75.4473 83.1683L76.997 84.7194ZM77.4851 85.2075L79.09 86.8138C77.6395 87.437 76.1229 87.8562 74.6366 88.0561L77.4851 85.2075ZM72.0224 85.6184L70.0645 83.6605L73.0013 80.7237L74.9592 82.683L72.0224 85.6184ZM84.7582 82.7147L81.274 79.2388L82.7273 77.7855L84.6231 79.6814L83.4498 80.8547C83.3146 80.9898 83.3146 81.2077 83.4498 81.3428C83.5173 81.4104 83.6042 81.4434 83.6938 81.4434C83.7834 81.4434 83.8703 81.4104 83.9379 81.3428L85.1112 80.1694L85.4697 80.5279C85.6034 80.6617 85.8213 80.663 85.9578 80.5279C86.0929 80.3928 86.0929 80.175 85.9578 80.0398L85.5993 79.6814L87.0649 78.2157C86.6513 79.9102 85.8433 81.4186 84.7582 82.7147ZM85.3042 67.9879L84.6631 67.3467L84.8685 67.1413C85.0174 67.4212 85.1636 67.7038 85.3042 67.9879ZM85.7413 69.3997C85.8089 69.4673 85.8957 69.5004 85.9854 69.5004C85.9895 69.5004 85.9923 69.4962 85.9978 69.4949C86.1508 69.8589 86.2942 70.227 86.4266 70.5979L85.8185 71.2059L84.7279 70.1153L85.5938 69.2508L85.7413 69.3997ZM86.6748 71.3259C86.7809 71.6651 86.8747 72.0056 86.9588 72.3476L86.3052 71.694L86.6748 71.3259ZM60.8625 53.3286C64.7851 50.6868 70.1031 51.6409 73.6342 53.756C78.1869 56.4791 81.9414 61.8978 84.5225 66.5126L84.1764 66.86L84.0661 66.7497C83.931 66.6146 83.7131 66.6146 83.578 66.7497C83.4429 66.8848 83.4429 67.1027 83.578 67.2378L85.1057 68.7655L84.2398 69.6286L83.7434 69.1322C83.6083 68.9971 83.3905 68.9971 83.2554 69.1322C83.1202 69.2674 83.1202 69.4852 83.2554 69.6203L83.76 70.125C83.6456 70.2601 83.6428 70.46 83.771 70.5869C83.8868 70.7027 84.0688 70.7358 84.2329 70.5979L85.3318 71.6968L84.095 72.9349C83.9599 73.0701 83.9599 73.2879 84.095 73.423C84.2288 73.5568 84.4466 73.5582 84.5817 73.423L85.8199 72.1849L86.7382 73.1032C86.8057 73.1707 86.8926 73.2038 86.9822 73.2038C87.0387 73.2038 87.087 73.1666 87.138 73.139C87.3848 74.4171 87.4538 75.7146 87.2911 77.0175L85.1112 79.196L83.2154 77.3002L84.8534 75.6622L85.5248 76.3337L84.4811 77.3774C84.346 77.5125 84.346 77.7304 84.4811 77.8655C84.6148 77.9992 84.8327 78.0006 84.9692 77.8655L86.0129 76.8217L86.4142 77.223C86.5479 77.3567 86.7657 77.3581 86.9023 77.223C87.0374 77.0879 87.0374 76.87 86.9023 76.7349L86.501 76.3337L87.258 75.5767C87.3931 75.4416 87.3931 75.2237 87.258 75.0886C87.1229 74.9521 86.905 74.9549 86.7699 75.0886L86.0129 75.8456L85.3332 75.1658C85.4476 75.0307 85.4504 74.8308 85.3222 74.7039C85.1939 74.5757 84.9954 74.5785 84.8603 74.6943L83.4856 73.321C83.3505 73.1859 83.1326 73.1859 82.9975 73.321C82.8624 73.4561 82.8624 73.674 82.9975 73.8091L84.3639 75.1755L82.7273 76.8107L81.3609 75.4443C81.2258 75.3092 81.0079 75.3092 80.8728 75.4443C80.7377 75.5795 80.7377 75.7973 80.8728 75.9324L82.2392 77.2988L80.7846 78.7521L78.7316 76.7032C78.7191 76.6866 78.7233 76.6632 78.7081 76.648C78.6929 76.6329 78.6695 76.637 78.653 76.6246C78.5041 76.4757 58.1931 56.1868 58.0125 56.0765C58.8687 55.0272 59.7856 54.0538 60.8625 53.3286ZM38.1869 24.5712C38.4034 27.6721 37.3624 30.9109 35.479 33.3706L18.3958 16.1744L19.7456 14.8246L21.88 16.9589C22.0137 17.0927 22.2316 17.094 22.3667 16.9589C22.5018 16.8238 22.5018 16.6059 22.3667 16.4722L20.2323 14.3378L20.9355 13.6347C21.0706 13.4995 21.0706 13.2817 20.9355 13.1466C20.8004 13.0114 20.5826 13.0114 20.4474 13.1466L19.7442 13.8497L18.4992 12.6033C18.564 12.5909 18.6316 12.5785 18.6826 12.5275L20.2585 10.9515L21.0927 11.7857C21.2264 11.9194 21.4443 11.9208 21.5808 11.7857C21.7159 11.6506 21.7159 11.4327 21.5808 11.2976L20.7466 10.4634L21.8179 9.39213C21.9531 9.25701 21.9531 9.03916 21.8179 8.90404C21.6828 8.76892 21.465 8.76892 21.3299 8.90404L20.2585 9.97535L19.1596 8.87646L20.5757 7.46045C20.7108 7.32532 20.7108 7.10748 20.5757 6.97373C20.4405 6.83861 20.2227 6.83861 20.0889 6.97373L18.6729 8.38975L17.4803 7.1971L17.7161 6.96132C17.8512 6.8262 17.8512 6.60835 17.7161 6.47461C17.5809 6.33949 17.3631 6.33949 17.2293 6.47461L16.9936 6.71038L16.0808 5.79763L17.8071 4.07276C17.8884 4.08242 17.9711 4.09069 18.0525 4.10034C18.069 4.1417 18.069 4.18858 18.1035 4.22167L23.0134 9.13292C23.1471 9.26666 23.3649 9.26804 23.5014 9.13292C23.6366 8.99779 23.6366 8.77995 23.5014 8.64482L19.1348 4.2782C20.1841 4.49467 21.2002 4.81455 22.1626 5.20061L24.8182 7.85616C24.9519 7.9899 25.1698 7.99128 25.3049 7.85616C25.44 7.72104 25.44 7.50319 25.3049 7.36945L23.9496 6.0141C30.2989 9.23357 37.623 16.4956 38.1869 24.5712ZM4.17911 26.4036C4.06743 25.7032 3.97643 25.0248 3.89922 24.3644L5.67923 26.1444L4.36939 27.4543C4.30734 27.1027 4.23564 26.7524 4.17911 26.4036ZM3.73101 18.408L5.30558 19.984L3.68551 21.6041C3.64139 20.4859 3.65655 19.4228 3.73101 18.408ZM3.93782 17.64C3.9006 17.6028 3.84958 17.6001 3.80132 17.5835C3.8096 17.5091 3.82201 17.436 3.83028 17.3615C3.83855 17.436 3.85923 17.5104 3.91576 17.567C4.04951 17.7007 4.26735 17.7021 4.40385 17.567L6.16732 15.8035L7.82601 17.4622L5.79367 19.4959L3.93782 17.64ZM3.84545 17.2512C3.98195 16.1578 4.1929 15.1155 4.47969 14.1172L5.67923 15.3168C5.53308 15.4643 3.8937 17.0485 3.84545 17.2512ZM4.87126 13.534C4.81749 13.4802 4.74717 13.4651 4.67823 13.454C5.09187 12.1966 5.6489 11.0343 6.30934 9.97398L6.65955 10.3242L5.78264 11.1997C5.64752 11.3348 5.64752 11.5527 5.78264 11.6878C5.91914 11.8243 6.13699 11.8202 6.26935 11.6878L7.14626 10.8109L8.66569 12.3303L6.16732 14.8287L4.87126 13.534ZM7.63436 10.3242L9.14275 8.81579L10.6567 10.3394L9.15378 11.8422L7.63436 10.3242ZM10.1465 7.32532C10.0128 7.19158 9.79492 7.1902 9.65979 7.32532L9.63222 7.3529L9.02969 6.74623C9.51502 6.32846 10.0307 5.9686 10.5615 5.64045L11.3254 6.40429L10.9159 6.81379C10.7807 6.94892 10.7807 7.16676 10.9159 7.30051C11.0496 7.43425 11.2675 7.43563 11.404 7.30051L11.8135 6.89101L12.9124 7.9899L11.6632 9.24046C11.6328 9.27079 11.6342 9.31354 11.6177 9.35076L10.1176 7.84099L10.1465 7.81204C10.2816 7.67829 10.2816 7.45907 10.1465 7.32532ZM15.106 5.79763L13.4004 7.50319L12.3002 6.40429L14.0057 4.69873L15.106 5.79763ZM18.12 12.2242L16.9674 11.0715L18.6729 9.36593L19.7718 10.4648L18.1959 12.0408C18.1449 12.0904 18.1324 12.158 18.12 12.2242ZM16.4793 10.5834L15.2866 9.39075L16.9922 7.68519L18.1848 8.87784L16.4793 10.5834ZM14.7999 8.90266L13.8872 7.9899L15.5927 6.28434L16.5055 7.1971L14.7999 8.90266ZM12.1499 9.72717L13.3991 8.47799L14.3118 9.39075L12.9799 10.7227L12.0382 9.77405C12.0754 9.75751 12.1196 9.75888 12.1499 9.72717ZM14.7999 9.87746L15.9926 11.0701L15.7706 11.2921C15.6355 11.4272 15.6355 11.6451 15.7706 11.7802C15.9043 11.9139 16.1222 11.9153 16.2587 11.7802L16.4807 11.5582L19.2589 14.3365L17.9105 15.6849L13.4652 11.2121L14.7999 9.87746ZM16.3869 3.98314C16.5592 3.98314 16.7288 3.99693 16.8998 4.00382L15.5927 5.30954L14.4345 4.15135C15.0881 4.03967 15.7389 3.98314 16.3869 3.98314ZM12.7814 4.56499C12.9606 4.50432 13.1412 4.45882 13.3219 4.40781L11.8135 5.9162L11.1751 5.2792C11.6963 5.00069 12.2285 4.75251 12.7814 4.56499ZM8.03834 7.70449L8.65741 8.3277L7.14764 9.8361L6.68989 9.37834C7.10352 8.77719 7.55438 8.21878 8.03834 7.70449ZM4.52105 28.2774L6.16732 26.6311L6.51892 26.9827C6.65266 27.1164 6.87051 27.1178 7.00563 26.9827C7.14075 26.8476 7.14075 26.6297 7.00563 26.4946L6.65404 26.143L8.82563 23.9714C8.96075 23.8363 8.96075 23.6185 8.82563 23.4847C8.69051 23.3496 8.47266 23.3496 8.33892 23.4847L6.16732 25.6563L3.79581 23.2848C3.77375 23.0339 3.74893 22.7788 3.73239 22.5334L5.79505 20.4707L7.25381 21.9308C7.38755 22.0646 7.6054 22.0659 7.74052 21.9308C7.87564 21.7957 7.87564 21.5779 7.74052 21.4441L6.28176 19.984L8.3141 17.9516L9.11517 18.7527C9.24892 18.8865 9.46676 18.8878 9.60326 18.7527C9.73839 18.6176 9.73839 18.3997 9.60326 18.2646L8.80219 17.4636L10.294 15.9717C10.4292 15.8366 10.4292 15.6187 10.294 15.4836C10.1589 15.3485 9.94107 15.3485 9.80595 15.4836L8.3141 16.9755L6.65542 15.3168L9.15378 12.8184L10.778 14.444C10.9117 14.5777 11.1296 14.5791 11.2647 14.444C11.3998 14.3089 11.3998 14.091 11.2647 13.9559L9.64049 12.3303L11.142 10.8288L34.5772 34.4185C31.7204 37.3691 27.431 37.0175 26.5886 41.1263C24.3797 51.8919 39.5933 68.4249 49.7067 64.5133C53.1068 63.2007 55.0316 60.0019 57.1742 57.1409C57.1742 57.1409 77.3128 77.234 77.4741 77.3953L76.3449 78.5246C76.2097 78.6597 76.2097 78.8775 76.3449 79.0126C76.4786 79.1464 76.6965 79.1478 76.833 79.0126L77.9622 77.8834L82.6969 82.6085L80.4206 84.8849C80.2854 85.02 80.2854 85.2379 80.4206 85.373C80.5571 85.5095 80.7749 85.5053 80.9087 85.373L83.185 83.0966L83.8124 83.7226C82.6363 84.8587 81.2492 85.7949 79.7615 86.5119L77.9718 84.7222L79.1962 83.4978L79.9311 84.2327C80.0648 84.3665 80.2827 84.3679 80.4192 84.2327C80.5543 84.0976 80.5543 83.8798 80.4192 83.7446L79.6843 83.0098L80.2648 82.4293C80.3999 82.2942 80.3999 82.0763 80.2648 81.9412C80.1296 81.8061 79.9118 81.8061 79.7767 81.9412L79.1976 82.5203L75.0392 78.3619C74.904 78.2267 74.6862 78.2267 74.5511 78.3619C74.4159 78.497 74.4159 78.7148 74.5511 78.8499L76.6716 80.9705L75.4473 82.1949L73.4894 80.2356L73.9113 79.8137C74.0464 79.6786 74.0464 79.4607 73.9113 79.3256C73.7762 79.1905 73.5583 79.1905 73.4232 79.3256L73.0013 79.7475L71.2889 78.0351C71.1537 77.9 70.9359 77.9 70.8008 78.0351C70.6656 78.1702 70.6656 78.3881 70.8008 78.5232L72.5132 80.2356L69.5764 83.1724L67.2917 80.8878L67.8708 80.3087C68.006 80.1736 68.006 79.9557 67.8708 79.8206C67.7357 79.6855 67.5179 79.6855 67.3828 79.8206L63.7055 83.4978L61.5849 81.3759L63.0258 79.9351C63.1609 79.7999 63.1609 79.5821 63.0258 79.447C62.8907 79.3118 62.6728 79.3118 62.5377 79.447L61.0638 80.9223C60.9383 80.8671 60.7935 80.8671 60.6915 80.9691C60.5881 81.0725 60.5895 81.2159 60.6446 81.3414L58.815 83.1711L56.9384 81.2945C56.8033 81.1594 56.5855 81.1594 56.4503 81.2945C56.3152 81.4297 56.3152 81.6475 56.4503 81.7826L58.3269 83.6592L57.3796 84.6064C57.0584 84.4713 56.7289 84.3375 56.4131 84.201C31.5232 73.4368 9.72184 54.859 4.52105 28.2774ZM58.815 84.1472L60.5288 85.8611C59.6905 85.5522 58.8729 85.2268 58.0663 84.8959L58.815 84.1472Z" fill="#3E517A"/>
</svg>
