<svg width="200" height="200" viewBox="0 0 200 200" fill="none" xmlns="http://www.w3.org/2000/svg">
<path d="M100 121.875C104.326 121.875 108.556 120.592 112.153 118.188C115.75 115.785 118.554 112.368 120.21 108.371C121.866 104.374 122.299 99.9757 121.455 95.7324C120.611 91.4891 118.527 87.5913 115.468 84.5321C112.409 81.4728 108.511 79.3894 104.268 78.5453C100.024 77.7013 95.6259 78.1345 91.6288 79.7901C87.6317 81.4458 84.2153 84.2496 81.8116 87.8469C79.4079 91.4442 78.125 95.6735 78.125 100C78.125 105.802 80.4297 111.366 84.532 115.468C88.6344 119.57 94.1984 121.875 100 121.875ZM100 84.375C103.09 84.375 106.111 85.2914 108.681 87.0083C111.25 88.7252 113.253 91.1655 114.436 94.0206C115.618 96.8757 115.928 100.017 115.325 103.048C114.722 106.079 113.234 108.863 111.049 111.049C108.863 113.234 106.079 114.722 103.048 115.325C100.017 115.928 96.8757 115.618 94.0206 114.436C91.1655 113.253 88.7252 111.25 87.0083 108.681C85.2914 106.111 84.375 103.09 84.375 100C84.375 95.856 86.0212 91.8817 88.9515 88.9515C91.8817 86.0212 95.856 84.375 100 84.375Z" fill="#3E517A"/>
<path d="M96.875 59.375H103.125V71.875H96.875V59.375Z" fill="#3E517A"/>
<path d="M96.875 128.125H103.125V140.625H96.875V128.125Z" fill="#3E517A"/>
<path d="M128.125 96.875H140.625V103.125H128.125V96.875Z" fill="#3E517A"/>
<path d="M59.375 96.875H71.875V103.125H59.375V96.875Z" fill="#3E517A"/>
<path d="M117.647 77.894L126.486 69.0552L130.905 73.4746L122.066 82.3134L117.647 77.894Z" fill="#3E517A"/>
<path d="M69.0531 126.525L77.8919 117.686L82.3114 122.105L73.4725 130.944L69.0531 126.525Z" fill="#3E517A"/>
<path d="M117.65 122.103L122.069 117.684L130.908 126.523L126.489 130.942L117.65 122.103Z" fill="#3E517A"/>
<path d="M69.0503 73.4781L73.4697 69.0587L82.3085 77.8975L77.8891 82.317L69.0503 73.4781Z" fill="#3E517A"/>
<path d="M159.063 79.4688L164.937 77.4062C161.51 67.6228 155.924 58.7365 148.594 51.4062C141.264 44.076 132.377 38.49 122.594 35.0625L120.531 40.9375C129.429 44.0644 137.512 49.1502 144.181 55.8193C150.85 62.4885 155.936 70.5706 159.063 79.4688Z" fill="#3E517A"/>
<path d="M164.937 122.594L159.062 120.531C155.579 130.522 149.616 139.465 141.732 146.521C133.848 153.578 124.302 158.518 113.988 160.878C103.674 163.238 92.9294 162.941 82.7615 160.014C72.5936 157.088 63.335 151.628 55.8533 144.147C48.3717 136.665 42.9119 127.406 39.9855 117.238C37.0592 107.071 36.7621 96.3261 39.122 86.012C41.482 75.6979 46.4218 66.1518 53.4786 58.2681C60.5353 50.3844 69.478 44.4213 79.4687 40.9375L77.4062 35.0625C66.4048 38.8833 56.5542 45.4361 48.7788 54.1063C41.0033 62.7765 35.5578 73.2798 32.953 84.6308C30.3483 95.9818 30.6698 107.808 33.8873 119.001C37.1048 130.194 43.1129 140.386 51.3478 148.621C59.5828 156.856 69.7748 162.864 80.9675 166.081C92.1603 169.299 103.987 169.62 115.338 167.016C126.689 164.411 137.192 158.965 145.862 151.19C154.533 143.414 161.085 133.564 164.906 122.562L164.937 122.594Z" fill="#3E517A"/>
<path d="M25.9063 146.562C15.3465 129.777 10.8017 109.903 13.0166 90.196C15.2315 70.4894 24.0748 52.1197 38.0972 38.0972C52.1197 24.0748 70.4894 15.2315 90.196 13.0166C109.903 10.8017 129.777 15.3465 146.562 25.9063L150 20.5938C132.006 9.15958 110.652 4.20017 89.4598 6.53354C68.268 8.86692 48.5045 18.3537 33.4291 33.4291C18.3537 48.5045 8.86692 68.268 6.53354 89.4598C4.20017 110.652 9.15958 132.006 20.5938 150L25.9063 146.562Z" fill="#3E517A"/>
<path d="M178.125 60.6875C184.315 72.8659 187.528 86.3388 187.5 100C187.5 123.206 178.281 145.462 161.872 161.872C145.462 178.281 123.206 187.5 100 187.5C86.3388 187.528 72.8659 184.315 60.6875 178.125L57.875 183.687C70.9237 190.325 85.3603 193.773 100 193.75C124.864 193.75 148.71 183.873 166.291 166.291C183.873 148.71 193.75 124.864 193.75 100C193.792 85.3654 190.365 70.9291 183.75 57.875L178.125 60.6875Z" fill="#3E517A"/>
<path d="M115.625 34.375C115.625 31.2847 114.709 28.2637 112.992 25.6942C111.275 23.1247 108.835 21.122 105.979 19.9394C103.124 18.7568 99.9827 18.4473 96.9517 19.0502C93.9208 19.6531 91.1367 21.1413 88.9515 23.3265C86.7663 25.5117 85.2781 28.2958 84.6752 31.3267C84.0723 34.3577 84.3818 37.4993 85.5644 40.3544C86.747 43.2095 88.7497 45.6498 91.3192 47.3667C93.8887 49.0836 96.9097 50 100 50C104.144 50 108.118 48.3538 111.049 45.4235C113.979 42.4933 115.625 38.519 115.625 34.375ZM100 43.75C98.1458 43.75 96.3333 43.2002 94.7915 42.17C93.2498 41.1399 92.0482 39.6757 91.3386 37.9627C90.6291 36.2496 90.4434 34.3646 90.8051 32.546C91.1669 30.7275 92.0598 29.057 93.3709 27.7459C94.682 26.4348 96.3525 25.5419 98.171 25.1801C99.9896 24.8184 101.875 25.0041 103.588 25.7136C105.301 26.4232 106.765 27.6248 107.795 29.1665C108.825 30.7082 109.375 32.5208 109.375 34.375C109.375 36.8614 108.387 39.246 106.629 41.0041C104.871 42.7623 102.486 43.75 100 43.75Z" fill="#3E517A"/>
<path d="M181.25 100C181.25 96.9097 180.334 93.8887 178.617 91.3192C176.9 88.7497 174.46 86.747 171.604 85.5644C168.749 84.3818 165.608 84.0723 162.577 84.6752C159.546 85.2781 156.762 86.7663 154.576 88.9515C152.391 91.1367 150.903 93.9208 150.3 96.9517C149.697 99.9827 150.007 103.124 151.189 105.979C152.372 108.835 154.375 111.275 156.944 112.992C159.514 114.709 162.535 115.625 165.625 115.625C169.769 115.625 173.743 113.979 176.674 111.049C179.604 108.118 181.25 104.144 181.25 100ZM156.25 100C156.25 98.1458 156.8 96.3333 157.83 94.7915C158.86 93.2498 160.324 92.0482 162.037 91.3386C163.75 90.6291 165.635 90.4434 167.454 90.8051C169.273 91.1669 170.943 92.0598 172.254 93.3709C173.565 94.682 174.458 96.3525 174.82 98.171C175.182 99.9896 174.996 101.875 174.286 103.588C173.577 105.301 172.375 106.765 170.833 107.795C169.292 108.825 167.479 109.375 165.625 109.375C163.139 109.375 160.754 108.387 158.996 106.629C157.238 104.871 156.25 102.486 156.25 100Z" fill="#3E517A"/>
<path d="M150 37.5C150 41.2084 151.1 44.8335 153.16 47.9169C155.22 51.0004 158.149 53.4036 161.575 54.8227C165.001 56.2419 168.771 56.6132 172.408 55.8897C176.045 55.1663 179.386 53.3805 182.008 50.7583C184.63 48.136 186.416 44.7951 187.14 41.1579C187.863 37.5208 187.492 33.7508 186.073 30.3247C184.654 26.8986 182.25 23.9702 179.167 21.9099C176.084 19.8497 172.458 18.75 168.75 18.75C163.777 18.75 159.008 20.7254 155.492 24.2417C151.975 27.7581 150 32.5272 150 37.5ZM168.75 25C171.222 25 173.639 25.7331 175.695 27.1066C177.75 28.4801 179.352 30.4324 180.298 32.7165C181.245 35.0005 181.492 37.5139 181.01 39.9386C180.528 42.3634 179.337 44.5907 177.589 46.3388C175.841 48.087 173.613 49.2775 171.189 49.7598C168.764 50.2421 166.251 49.9946 163.966 49.0485C161.682 48.1024 159.73 46.5002 158.357 44.4446C156.983 42.389 156.25 39.9723 156.25 37.5C156.25 34.1848 157.567 31.0054 159.911 28.6612C162.255 26.317 165.435 25 168.75 25Z" fill="#3E517A"/>
<path d="M37.5 150C33.7916 150 30.1665 151.1 27.0831 153.16C23.9996 155.22 21.5964 158.149 20.1773 161.575C18.7581 165.001 18.3868 168.771 19.1103 172.408C19.8338 176.045 21.6195 179.386 24.2418 182.008C26.864 184.63 30.2049 186.416 33.8421 187.14C37.4792 187.863 41.2492 187.492 44.6753 186.073C48.1014 184.654 51.0298 182.25 53.0901 179.167C55.1503 176.084 56.25 172.458 56.25 168.75C56.25 163.777 54.2746 159.008 50.7583 155.492C47.242 151.975 42.4728 150 37.5 150ZM37.5 181.25C35.0277 181.25 32.611 180.517 30.5554 179.143C28.4998 177.77 26.8976 175.818 25.9515 173.534C25.0054 171.249 24.7579 168.736 25.2402 166.311C25.7225 163.887 26.913 161.659 28.6612 159.911C30.4093 158.163 32.6366 156.972 35.0614 156.49C37.4861 156.008 39.9995 156.255 42.2836 157.202C44.5676 158.148 46.5199 159.75 47.8934 161.805C49.2669 163.861 50 166.278 50 168.75C50 172.065 48.683 175.245 46.3388 177.589C43.9946 179.933 40.8152 181.25 37.5 181.25Z" fill="#3E517A"/>
</svg>
