<svg width="200" height="200" viewBox="0 0 200 200" fill="none" xmlns="http://www.w3.org/2000/svg">
<path d="M188.338 79.934C190.573 77.7555 191.964 74.716 191.964 71.3559C191.964 65.6875 188.008 60.9289 182.713 59.6883V36.9484L185.061 36.3195C187.896 35.5598 189.802 33.077 189.802 30.1414C189.802 27.2059 187.896 24.723 185.061 23.9629L104.128 2.27656C100.574 1.32383 97.2629 1.32422 93.7086 2.27656L12.7761 23.9621C9.9406 24.7223 8.03552 27.2051 8.03552 30.1406C8.03552 33.0762 9.9406 35.559 12.7765 36.3187L42.0894 44.173V81.3297C42.0894 82.2898 42.5933 83.1797 43.4164 83.6742C59.6765 93.4348 78.8687 98.5937 98.9183 98.5937C118.968 98.5937 138.16 93.4348 154.42 83.6742C155.244 83.1797 155.747 82.2902 155.747 81.3297V44.1734L177.244 38.4133V59.6879C171.948 60.9289 167.992 65.6875 167.992 71.3555C167.992 74.9379 169.574 78.1559 172.073 80.3543L170.693 83.3219C169.294 86.3273 168.643 89.2711 168.643 92.5867V107.101C168.643 111.385 172.128 114.87 176.412 114.87H184.195C188.479 114.87 191.964 111.385 191.964 107.101V92.5867C191.964 89.2711 191.313 86.327 189.914 83.3219L188.338 79.934ZM13.5043 30.1406C13.5043 29.6949 13.7613 29.3598 14.1922 29.2445L95.1242 7.55859C97.7484 6.85547 100.089 6.85547 102.713 7.55859L183.645 29.2441C184.076 29.3594 184.333 29.6945 184.333 30.1402C184.333 30.5859 184.076 30.9211 183.645 31.0363L179.741 32.0824L101.739 25.0312C100.237 24.8996 98.9058 26.0043 98.7699 27.5082C98.634 29.0125 99.7429 30.3418 101.247 30.4777L164.417 36.1883L102.712 52.7219C100.089 53.425 97.7484 53.425 95.1238 52.7219L14.1918 31.0367C13.7609 30.9215 13.5043 30.5863 13.5043 30.1406ZM98.9183 93.125C80.4043 93.125 62.682 88.5109 47.5578 79.7672V69.3582C62.8945 77.5934 80.5457 81.9285 98.9183 81.9285C117.291 81.9285 134.942 77.5934 150.279 69.3582V79.7672C135.154 88.5109 117.432 93.125 98.9183 93.125ZM150.279 63.1004C135.154 71.8445 117.432 76.4594 98.9183 76.4594C80.4043 76.4594 62.6828 71.8441 47.5578 63.1004V45.6387L93.7086 58.0047C95.4859 58.4812 97.2019 58.7191 98.9183 58.7191C100.635 58.7191 102.351 58.4809 104.128 58.0047L150.279 45.6387V63.1004ZM179.978 64.8383C183.572 64.8383 186.495 67.7621 186.495 71.3559C186.495 74.9496 183.572 77.873 179.978 77.873C176.384 77.873 173.461 74.9496 173.461 71.3559C173.461 67.7621 176.384 64.8383 179.978 64.8383ZM186.495 107.1C186.495 108.369 185.463 109.401 184.195 109.401H176.412C175.143 109.401 174.111 108.369 174.111 107.1V92.5863C174.111 90.0625 174.586 87.9168 175.651 85.6285L176.902 82.9394C177.884 83.2004 178.915 83.3414 179.978 83.3414C181.25 83.3414 182.475 83.1406 183.626 82.7719L184.956 85.6289C186.021 87.9164 186.495 90.0621 186.495 92.5863V107.1ZM183.677 168.65C184.074 167.575 183.759 166.368 182.888 165.624C179.957 163.12 178.312 158.757 178.374 153.653C178.434 148.622 180.187 143.979 182.837 141.823C183.521 141.267 183.895 140.415 183.841 139.534C183.787 138.654 183.312 137.854 182.564 137.386L127.685 102.979C127.25 102.705 126.746 102.561 126.232 102.561H28.9113C23.5457 102.561 19.159 106.438 17.1769 112.933C15.0957 119.753 16.032 129.103 21.7652 133.358C18.989 135.844 17.0273 139.828 16.3777 144.609C15.3851 151.908 17.6476 158.585 22.1437 161.633L70.5351 195.953C72.4715 197.579 74.8508 198.438 77.4258 198.438H181.112C182.258 198.438 183.281 197.724 183.678 196.65C184.074 195.576 183.759 194.368 182.888 193.624C179.958 191.121 178.312 186.757 178.374 181.653C178.435 176.623 180.187 171.979 182.837 169.824L182.833 169.818C183.205 169.516 183.504 169.12 183.678 168.649L183.677 168.65ZM98.2359 150.649H82.3746C80.8644 150.649 79.6402 151.873 79.6402 153.384V164.969H77.425C76.0949 164.969 74.9742 164.56 73.9984 163.72C73.998 163.72 73.9976 163.719 73.9972 163.718C70.6605 160.843 69.5929 153.314 71.7129 147.605C72.4293 145.675 74.1246 142.437 77.4254 142.437H175.557C173.916 145.573 172.956 149.474 172.906 153.587C172.854 157.838 173.77 161.759 175.502 164.968H100.97V153.383C100.97 151.873 99.7461 150.649 98.2359 150.649ZM95.5015 156.118V172.067L91.6804 169.844C90.8304 169.349 89.7801 169.349 88.9301 169.844L85.109 172.067V156.118H95.5015ZM171.603 136.968H78.2965L37.4898 108.03H125.447L171.604 136.968H171.603ZM22.4078 114.529C22.964 112.706 24.5929 108.629 28.1215 108.091L71.5047 138.856C69.4109 140.342 67.714 142.664 66.5863 145.702C65.2996 149.167 64.8531 153.537 65.45 157.642L25.282 129.154C25.264 129.141 25.2457 129.129 25.2269 129.116C21.9008 126.878 20.6359 120.334 22.4074 114.53L22.4078 114.529ZM25.2273 157.116C22.5133 155.29 21.1027 150.449 21.7965 145.345C22.3535 141.248 24.1324 137.983 26.4379 136.678L70.3324 167.809C68.7738 169.266 67.4957 171.253 66.5863 173.702C65.2996 177.167 64.8531 181.537 65.45 185.643L25.282 157.155C25.264 157.142 25.2457 157.129 25.2269 157.117L25.2273 157.116ZM77.4254 192.969C76.0953 192.969 74.9746 192.561 73.9988 191.72C70.6613 188.846 69.5929 181.315 71.7129 175.605C72.4293 173.675 74.1246 170.438 77.4254 170.438H79.6406V176.822C79.6406 177.8 80.1637 178.704 81.0117 179.192C81.8597 179.68 82.9043 179.677 83.75 179.185L90.3055 175.371L96.8609 179.185C97.2859 179.432 97.7609 179.556 98.2363 179.556C98.707 179.556 99.1773 179.435 99.5996 179.192C100.448 178.704 100.971 177.8 100.971 176.822V170.438H175.559C173.917 173.575 172.955 177.475 172.906 181.588C172.854 185.839 173.77 189.76 175.502 192.969H77.4254Z" fill="#3E517A"/>
</svg>
