<?xml version="1.0" encoding="UTF-8"?>
<svg id="Layer_2" data-name="Layer 2" xmlns="http://www.w3.org/2000/svg" viewBox="0 0 81.05 81.05">
  <defs>
    <style>
      .cls-1, .cls-2 {
        fill: #3e517a;
      }

      .cls-2 {
        fill-rule: evenodd;
      }
    </style>
  </defs>
  <g id="Layer_1-2" data-name="Layer 1">
    <g>
      <path class="cls-1" d="M63.26,9.06l-.19.19c-.11.11-.11.3,0,.41.11.11.3.11.41,0l.23-.23c.1.02.16.04.26-.06.07-.07.08-.17.06-.26l1.86-1.86c.11-.11.11-.3,0-.41,0,0-.01,0-.02,0,0-.07-.02-.13-.07-.18l-1.23-1.23,1.3-1.3c.11-.11.11-.3,0-.41s-.3-.11-.41,0l-1.3,1.3-.02-.02c-.11-.11-.3-.11-.41,0s-.11.3,0,.41l.04.04c-.07.11-.07.25.02.35.12.12.23.1.35.02l1.18,1.18-1.65,1.65-1.11-1.11c-.11-.11-.3-.11-.41,0-.11.11-.11.3,0,.41l1.1,1.11Z"/>
      <path class="cls-1" d="M63.26,13.63l-.19.19c-.11.11-.11.3,0,.41.11.11.3.11.41,0l.23-.23c.1.02.16.04.26-.06.07-.07.08-.17.06-.26l1.86-1.86c.11-.11.11-.3,0-.41,0,0-.01,0-.02,0,0-.07-.02-.13-.07-.18l-1.23-1.23,1.3-1.3c.11-.11.11-.3,0-.41s-.3-.11-.41,0l-1.3,1.3-.02-.02c-.11-.11-.3-.11-.41,0s-.11.3,0,.41l.04.04c-.07.11-.07.25.02.35.12.12.23.1.35.02l1.18,1.18-1.65,1.65-1.11-1.11c-.11-.11-.3-.11-.41,0-.11.11-.11.3,0,.41l1.1,1.11Z"/>
      <path class="cls-1" d="M63.26,17.84l-.19.19c-.11.11-.11.3,0,.41.11.11.3.11.41,0l.23-.23c.1.02.16.04.26-.06.07-.07.08-.17.06-.26l1.86-1.86c.11-.11.11-.3,0-.41,0,0-.01,0-.02,0,0-.07-.02-.13-.07-.18l-1.23-1.23,1.3-1.3c.11-.11.11-.3,0-.41s-.3-.11-.41,0l-1.3,1.3-.02-.02c-.11-.11-.3-.11-.41,0s-.11.3,0,.41l.04.04c-.07.11-.07.25.02.35.12.12.23.1.35.02l1.18,1.18-1.65,1.65-1.11-1.11c-.11-.11-.3-.11-.41,0-.11.11-.11.3,0,.41l1.1,1.11Z"/>
      <path class="cls-1" d="M63.26,22.42l-.19.19c-.11.11-.11.3,0,.41.11.11.3.11.41,0l.23-.23c.1.02.16.04.26-.06.07-.07.08-.17.06-.26l1.86-1.86c.11-.11.11-.3,0-.41,0,0-.01,0-.02,0,0-.07-.02-.13-.07-.18l-1.23-1.23,1.3-1.3c.11-.11.11-.3,0-.41s-.3-.11-.41,0l-1.3,1.3-.02-.02c-.11-.11-.3-.11-.41,0s-.11.3,0,.41l.04.04c-.07.11-.07.25.02.35.12.12.23.1.35.02l1.18,1.18-1.65,1.65-1.11-1.11c-.11-.11-.3-.11-.41,0-.11.11-.11.3,0,.41l1.1,1.11Z"/>
      <path class="cls-1" d="M13.29,51.71h2.39v3.22h-1.22c-.18,0-.33.15-.33.33s.15.33.33.33h1.22v3.13h-1.32c-.18,0-.33.15-.33.33s.15.33.33.33h1.32v3.61h-.35c-.18,0-.33.15-.33.33s.15.33.33.33h.35v2.35h-.64c-.18,0-.33.15-.33.33s.15.33.33.33h.64v4.34c0,.18.15.33.33.33s.33-.15.33-.33v-4.34h2.97c.18,0,.33-.15.33-.33s-.15-.33-.33-.33h-2.97v-2.35h2.41c.18,0,.33-.15.33-.33s-.15-.33-.33-.33h-2.41v-3.61h1.92c.18,0,.33-.15.33-.33s-.15-.33-.33-.33h-1.92v-3.13h1.55c.18,0,.33-.15.33-.33s-.15-.33-.33-.33h-1.55v-3.22h2.2c.18,0,.33-.15.33-.33s-.15-.33-.33-.33h-2.2v-2.97c0-.18-.15-.33-.33-.33s-.33.15-.33.33v2.97h-2.39c-.18,0-.33.15-.33.33s.15.33.33.33Z"/>
      <path class="cls-1" d="M16.52,53.75h2.39v3.22h-1.22c-.18,0-.33.15-.33.33s.15.33.33.33h1.22v3.13h-1.32c-.18,0-.33.15-.33.33s.15.33.33.33h1.32v3.61h-.35c-.18,0-.33.15-.33.33s.15.33.33.33h.35v2.35h-.64c-.18,0-.33.15-.33.33s.15.33.33.33h.64v4.34c0,.18.15.33.33.33s.33-.15.33-.33v-4.34h2.97c.18,0,.33-.15.33-.33s-.15-.33-.33-.33h-2.97v-2.35h2.41c.18,0,.33-.15.33-.33s-.15-.33-.33-.33h-2.41v-3.61h1.92c.18,0,.33-.15.33-.33s-.15-.33-.33-.33h-1.92v-3.13h1.55c.18,0,.33-.15.33-.33s-.15-.33-.33-.33h-1.55v-3.22h2.2c.18,0,.33-.15.33-.33s-.15-.33-.33-.33h-2.2v-2.97c0-.18-.15-.33-.33-.33s-.33.15-.33.33v2.97h-2.39c-.18,0-.33.15-.33.33s.15.33.33.33Z"/>
      <path class="cls-2" d="M81.04,39.42s0-.06,0-.08c0-.24-.14-.46-.34-.57l-11.31-6.57V6.35c0-1.75-.72-3.34-1.87-4.48C66.37.72,64.79,0,63.04,0H7.22C3.3-.2,0,2.94,0,6.85v9.4c0,.37.3.67.66.67h11.71v57.78c0,3.5,2.86,6.36,6.36,6.36h50c4.24,0,7.71-3.47,7.71-7.71v-2.31c0-.36-.3-.66-.67-.66h-6.37v-9.52c6.34-5.4,10.56-13.03,11.64-21.44ZM12.37,15.59H1.33V6.85c0-1.52.62-2.9,1.62-3.9.95-.95,2.24-1.55,3.66-1.61h.47c2.93.12,5.29,2.56,5.29,5.51v8.74ZM13.7,74.69V6.85c0-2.24-1.08-4.26-2.79-5.52h52.14c2.76,0,5.03,2.26,5.03,5.02v25.07l-3.71-2.14c-.22-.13-.47-.12-.68,0l-16.34,9.49c-.25.14-.37.43-.32.7.68,5.27,2.58,10.16,5.4,14.38,2.89,4.33,6.75,7.96,11.27,10.58.22.13.47.11.68,0,1.28-.74,2.52-1.57,3.7-2.47v8.44H25.77c-.36,0-.67.3-.67.66v2.31c0,3.5-2.87,6.37-6.37,6.37-2.76,0-5.03-2.26-5.03-5.02ZM75.11,71.7v1.64c0,3.5-2.87,6.37-6.38,6.37H23.04c2.07-1.4,3.39-3.76,3.39-6.37v-1.64h48.68ZM68.34,60.02s-.05.04-.07.06c-1.33,1.11-2.74,2.11-4.25,3.01-8.43-5.02-14.24-13.59-15.63-23.4l15.63-9.08,15.64,9.08c-.7,4.91-2.49,9.47-5.13,13.43-1.72,2.58-3.82,4.91-6.19,6.91ZM25.47,10.4h30.01c.88,0,.88-1.33,0-1.33h-30.01c-.87,0-.87,1.33,0,1.33ZM25.47,14.31h30.01c.88,0,.88-1.33,0-1.33h-30.01c-.87,0-.87,1.33,0,1.33ZM25.47,18.21h30.01c.88,0,.88-1.33,0-1.33h-30.01c-.87,0-.87,1.33,0,1.33ZM25.47,22.12h30.01c.88,0,.88-1.33,0-1.33h-30.01c-.87,0-.87,1.33,0,1.33ZM25.47,26.03h30.01c.88,0,.88-1.33,0-1.33h-30.01c-.87,0-.87,1.33,0,1.33ZM55.47,20.8h-30.01c-.87,0-.87,1.33,0,1.33h30.01c.88,0,.88-1.33,0-1.33ZM55.47,16.89h-30.01c-.87,0-.87,1.33,0,1.33h30.01c.88,0,.88-1.33,0-1.33ZM55.47,12.98h-30.01c-.87,0-.87,1.33,0,1.33h30.01c.88,0,.88-1.33,0-1.33ZM55.47,9.08h-30.01c-.87,0-.87,1.33,0,1.33h30.01c.88,0,.88-1.33,0-1.33ZM25.47,10.4h30.01c.88,0,.88-1.33,0-1.33h-30.01c-.87,0-.87,1.33,0,1.33ZM55.47,12.98h-30.01c-.87,0-.87,1.33,0,1.33h30.01c.88,0,.88-1.33,0-1.33ZM55.47,16.89h-30.01c-.87,0-.87,1.33,0,1.33h30.01c.88,0,.88-1.33,0-1.33ZM55.47,20.8h-30.01c-.87,0-.87,1.33,0,1.33h30.01c.88,0,.88-1.33,0-1.33Z"/>
    </g>
  </g>
</svg>