<?xml version="1.0" encoding="utf-8"?>
<!-- Generator: Adobe Illustrator 27.5.0, SVG Export Plug-In . SVG Version: 6.00 Build 0)  -->
<svg version="1.1" id="Layer_1" xmlns="http://www.w3.org/2000/svg" xmlns:xlink="http://www.w3.org/1999/xlink" x="0px" y="0px"
	 viewBox="0 0 200 200" style="enable-background:new 0 0 200 200;" xml:space="preserve">
<style type="text/css">
	.st0{fill:#40537C;}
	.st1{fill-rule:evenodd;clip-rule:evenodd;fill:#40537C;}
</style>
<g id="Layer_x0020_1">
	<g id="_255393456">
		<g>
			<path id="_255394584" class="st0" d="M40.9,111h40c2.2,0,4.2,0.9,5.7,2.3c1.4,1.4,2.3,3.4,2.3,5.7v40c0,2.2-0.9,4.2-2.3,5.7
				c-1.4,1.4-3.4,2.3-5.7,2.3h-40c-2.2,0-4.2-0.9-5.7-2.3c-1.4-1.4-2.3-3.4-2.3-5.7v-40c0-2.2,0.9-4.2,2.3-5.7
				C36.7,111.9,38.7,111,40.9,111z M81,117.4h-40c-0.5,0-0.9,0.2-1.2,0.5c-0.3,0.3-0.5,0.7-0.5,1.2v40c0,0.5,0.2,0.9,0.5,1.2
				c0.3,0.3,0.7,0.5,1.2,0.5h40c0.5,0,0.9-0.2,1.2-0.5c0.3-0.3,0.5-0.7,0.5-1.2v-40c0-0.5-0.2-0.9-0.5-1.2
				C81.8,117.5,81.4,117.4,81,117.4L81,117.4z"/>
			<path id="_255393768" class="st0" d="M54.2,104.5c0,1.2,1,2.2,2.2,2.2s2.2-1,2.2-2.2V92.9c0-1.2-1-2.2-2.2-2.2s-2.2,1-2.2,2.2
				V104.5z M54.2,84.9c0,1.2,1,2.2,2.2,2.2s2.2-1,2.2-2.2V73.3c0-1.2-1-2.2-2.2-2.2s-2.2,1-2.2,2.2V84.9z M54.2,65.3
				c0,1.2,1,2.2,2.2,2.2s2.2-1,2.2-2.2V53.7c0-1.2-1-2.2-2.2-2.2s-2.2,1-2.2,2.2V65.3z M54.2,45.7c0,1.2,1,2.2,2.2,2.2
				s2.2-1,2.2-2.2c0-2.3,1-4.4,2.5-5.9c1.5-1.5,3.6-2.5,5.9-2.5c1.2,0,2.2-1,2.2-2.2c0-1.2-1-2.2-2.2-2.2c-3.5,0-6.7,1.4-9,3.8
				C55.7,39,54.2,42.2,54.2,45.7L54.2,45.7z M75,32.9c-1.2,0-2.2,1-2.2,2.2c0,1.2,1,2.2,2.2,2.2h11.8c1.2,0,2.2-1,2.2-2.2
				c0-1.2-1-2.2-2.2-2.2H75z M94.8,32.9c-1.2,0-2.2,1-2.2,2.2c0,1.2,1,2.2,2.2,2.2h11.8c1.2,0,2.2-1,2.2-2.2c0-1.2-1-2.2-2.2-2.2
				H94.8z M114.7,32.9c-1.2,0-2.2,1-2.2,2.2c0,1.2,1,2.2,2.2,2.2h11.8c1.2,0,2.2-1,2.2-2.2c0-1.2-1-2.2-2.2-2.2H114.7z M134.5,32.9
				c-1.2,0-2.2,1-2.2,2.2c0,1.2,1,2.2,2.2,2.2h11.8c1.2,0,2.2-1,2.2-2.2c0-1.2-1-2.2-2.2-2.2H134.5z M154.3,32.9
				c-1.2,0-2.2,1-2.2,2.2c0,1.2,1,2.2,2.2,2.2c2.3,0,4.4,1,5.9,2.5c1.5,1.5,2.5,3.6,2.5,5.9c0,1.2,1,2.2,2.2,2.2
				c1.2,0,2.2-1,2.2-2.2c0-3.5-1.4-6.7-3.8-9S157.8,32.9,154.3,32.9z M167.1,53.7c0-1.2-1-2.2-2.2-2.2c-1.2,0-2.2,1-2.2,2.2v11.8
				c0,1.2,1,2.2,2.2,2.2c1.2,0,2.2-1,2.2-2.2V53.7z M167.1,73.5c0-1.2-1-2.2-2.2-2.2c-1.2,0-2.2,1-2.2,2.2v11.8c0,1.2,1,2.2,2.2,2.2
				c1.2,0,2.2-1,2.2-2.2V73.5z M167.1,93.3c0-1.2-1-2.2-2.2-2.2c-1.2,0-2.2,1-2.2,2.2v11.8c0,1.2,1,2.2,2.2,2.2c1.2,0,2.2-1,2.2-2.2
				V93.3z M167.1,113.2c0-1.2-1-2.2-2.2-2.2c-1.2,0-2.2,1-2.2,2.2V125c0,1.2,1,2.2,2.2,2.2c1.2,0,2.2-1,2.2-2.2V113.2z M167.1,133
				c0-1.2-1-2.2-2.2-2.2c-1.2,0-2.2,1-2.2,2.2c0,2.3-1,4.4-2.5,5.9s-3.6,2.5-5.9,2.5c-1.2,0-2.2,1-2.2,2.2c0,1.2,1,2.2,2.2,2.2
				c3.5,0,6.7-1.4,9-3.8C165.6,139.7,167.1,136.5,167.1,133L167.1,133z M146.3,145.8c1.2,0,2.2-1,2.2-2.2c0-1.2-1-2.2-2.2-2.2h-11.6
				c-1.2,0-2.2,1-2.2,2.2c0,1.2,1,2.2,2.2,2.2H146.3z M126.7,145.8c1.2,0,2.2-1,2.2-2.2c0-1.2-1-2.2-2.2-2.2h-11.6
				c-1.2,0-2.2,1-2.2,2.2c0,1.2,1,2.2,2.2,2.2H126.7z M107.1,145.8c1.2,0,2.2-1,2.2-2.2c0-1.2-1-2.2-2.2-2.2H95.5
				c-1.2,0-2.2,1-2.2,2.2c0,1.2,1,2.2,2.2,2.2H107.1z"/>
		</g>
		<path id="_255393600" class="st1" d="M90,101.6l29.4-29.4c1-1,1-2.5,0-3.5l-4.7-4.7c-1.5-1.5-0.5-4.1,1.6-4.2l25.5-1.8
			c1.5-0.1,2.7,1.1,2.6,2.6l-1.8,25.5c-0.2,2.1-2.7,3.1-4.2,1.6l-4.7-4.7c-1-1-2.5-1-3.5,0l-29.4,29.4c-1,1-2.5,1-3.5,0l-7.3-7.3
			C89.1,104.1,89.1,102.5,90,101.6z"/>
	</g>
</g>
</svg>
