<?xml version="1.0" encoding="utf-8"?>
<!-- Generator: Adobe Illustrator 27.5.0, SVG Export Plug-In . SVG Version: 6.00 Build 0)  -->
<svg version="1.1" id="Layer_1" xmlns="http://www.w3.org/2000/svg" xmlns:xlink="http://www.w3.org/1999/xlink" x="0px" y="0px"
	 viewBox="0 0 200 200" style="enable-background:new 0 0 200 200;" xml:space="preserve">
<style type="text/css">
	.st0{fill:#40537C;}
</style>
<g>
	<g>
		<path class="st0" d="M100,167.1c-34.1,0-61.5-27.4-61.5-61.5S65.9,44.1,100,44.1s61.5,27.4,61.5,61.5S134.1,167.1,100,167.1z
			 M100,55.3c-27.9,0-50.3,22.4-50.3,50.3s22.4,50.3,50.3,50.3s50.3-22.4,50.3-50.3S127.9,55.3,100,55.3z"/>
		<g>
			<path class="st0" d="M88.8,130.7c-1.7,0-2.8-0.6-3.9-1.7l-16.8-16.8c-2.2-2.2-2.2-5.6,0-7.8c2.2-2.2,5.6-2.2,7.8,0l12.9,12.9
				l35.2-35.2c2.2-2.2,5.6-2.2,7.8,0c2.2,2.2,2.2,5.6,0,7.8l-39.2,39.1C91.6,130.2,90.5,130.7,88.8,130.7z"/>
			<path class="st0" d="M161.5,60.9c-1.7,0-2.8-0.6-3.9-1.7l-16.8-16.8c-2.2-2.2-2.2-5.6,0-7.8c2.2-2.2,5.6-2.2,7.8,0l16.8,16.8
				C168.7,54.7,166.5,60.9,161.5,60.9z"/>
			<path class="st0" d="M38.5,60.9c-5,0-7.3-6.1-3.9-9.5l16.8-16.8c2.2-2.2,5.6-2.2,7.8,0c2.2,2.2,2.2,5.6,0,7.8L42.4,59.2
				C41.3,60.3,40.2,60.9,38.5,60.9z"/>
		</g>
	</g>
</g>
</svg>
