<?xml version="1.0" encoding="UTF-8"?>
<svg id="Layer_2" xmlns="http://www.w3.org/2000/svg" viewBox="0 0 450.67 163.57">
  <defs>
    <style>
      .cls-1 {
        fill: #c0e7f7;
      }

      .cls-2 {
        fill: #3e527b;
      }
    </style>
  </defs>
  <g id="Layer_1-2" data-name="Layer_1">
    <g>
      <path class="cls-1" d="M.18,146.32L19.06,17.25C20.45,7.72,29.62,0,39.54,0h395.53c9.92,0,16.83,7.72,15.43,17.25l-18.88,129.07c-1.39,9.53-10.56,17.25-20.48,17.25H15.61c-9.92,0-16.83-7.72-15.43-17.25Z"/>
      <g>
        <path class="cls-2" d="M89.15,90.12c1.12,0,1.55.6,1.38,1.72l-.43,2.15c-.17,1.12-.86,1.72-1.98,1.72h-7.91l-2.67,14.87c-.26,1.12-.86,1.72-1.98,1.72h-2.49c-1.29,0-1.63-.43-1.38-1.72l2.58-14.87h-30.6c-1.12,0-1.63-.6-1.46-1.72l.34-1.8c.09-.77.43-1.46.95-2.06l37.47-38.33c.86-.77,1.72-1.2,2.66-1.2h2.75c1.2,0,1.63.6,1.37,1.72l-6.62,37.82h7.99ZM80.81,59.18l-30.51,30.94h25.01l5.5-30.94Z"/>
        <path class="cls-2" d="M146.65,80.67c1.12,0,1.63.6,1.46,1.72l-1.98,11c-2.15,12.63-11.86,20.11-26.99,20.11s-22.35-8.42-19.94-22.09l3.61-20.2c2.32-13.49,11.86-21.14,27.24-21.14,11.95,0,18.65,4.9,20.03,14.78.17,1.12-.26,1.89-1.29,2.23l-2.66.86c-1.2.26-1.89-.09-1.98-1.03-1.03-7.65-5.33-11.09-15.04-11.09-11.35,0-18.39,5.76-20.11,15.73l-3.53,20.28c-1.8,10.06,3.27,15.9,14.61,15.9s18.31-5.76,20.03-14.78l1.03-6.45h-16.5c-1.12,0-1.63-.6-1.46-1.72l.43-2.41c.26-1.12.94-1.72,2.06-1.72h20.97Z"/>
        <path class="cls-2" d="M159.11,71.21c2.32-13.49,12.03-21.14,27.24-21.14s22.26,8.51,19.85,22.18l-3.52,20.2c-2.41,13.49-11.86,21.06-27.07,21.06s-22.52-8.51-20.11-22l3.61-20.28ZM200.11,71.65c1.72-10.06-3.35-15.82-14.61-15.82s-18.39,5.59-20.11,15.82l-3.61,20.28c-1.8,9.97,3.35,15.81,14.61,15.81s18.31-5.76,20.11-15.81l3.61-20.28Z"/>
        <path class="cls-2" d="M216.27,71.21c2.32-13.49,12.03-21.14,27.24-21.14s22.26,8.51,19.85,22.18l-3.52,20.2c-2.41,13.49-11.86,21.06-27.07,21.06s-22.52-8.51-20.11-22l3.61-20.28ZM257.27,71.65c1.72-10.06-3.35-15.82-14.61-15.82s-18.39,5.59-20.11,15.82l-3.61,20.28c-1.8,9.97,3.35,15.81,14.61,15.81s18.31-5.76,20.11-15.81l3.61-20.28Z"/>
        <path class="cls-2" d="M296.89,51.27c15.81,0,23.38,9.02,20.89,23.21l-2.75,15.64c-2.49,14.1-12.72,22.18-28.62,22.18h-18.39c-1.29,0-1.63-.43-1.37-1.72l10.14-57.59c.26-1.12.86-1.72,1.98-1.72h18.13ZM311.67,73.97c1.98-10.75-3.7-16.85-15.73-16.85h-13.67l-8.68,49.34h13.67c11.95,0,19.68-6.1,21.66-16.85l2.75-15.64Z"/>
        <path class="cls-2" d="M324.31,105.42c2.49,0,3.18.77,2.75,3.44l-.09.52c-.6,2.66-1.55,3.44-4.04,3.44h-.52c-2.67,0-3.18-.77-2.75-3.44l.09-.52c.43-2.67,1.38-3.44,4.04-3.44h.52Z"/>
        <path class="cls-2" d="M385.33,110.67c.17,1.12-.35,1.63-1.55,1.63h-2.23c-2.06,0-2.58-.26-2.84-1.55l-3.53-16.33h-26.9l-9.28,16.33c-.6,1.03-1.72,1.55-3.35,1.55h-2.49c-1.29,0-1.63-.52-.86-1.63l33.26-58.19c.52-.95,1.29-1.46,2.41-1.46h2.58c1.2,0,1.89.43,1.98,1.38l12.81,58.27ZM368.66,62.88c-.09-.77-.17-2.75-.17-5.93h-.26s-.86,3.26-2.24,5.93l-14.95,26.39h23.38l-5.76-26.39Z"/>
        <path class="cls-2" d="M402.18,52.99c.26-1.12.86-1.72,1.98-1.72h2.84c1.12,0,1.63.6,1.46,1.72l-10.23,57.59c-.17,1.12-.86,1.72-1.98,1.72h-2.84c-1.29,0-1.63-.43-1.37-1.72l10.14-57.59Z"/>
      </g>
    </g>
  </g>
</svg>