<?xml version="1.0" encoding="UTF-8"?>
<svg id="Layer_2" xmlns="http://www.w3.org/2000/svg" viewBox="0 0 88.54 93.9">
  <defs>
    <style>
      .cls-1 {
        fill: #3f527b;
      }
    </style>
  </defs>
  <g id="Layer_1-2" data-name="Layer_1">
    <path class="cls-1" d="M68.85,62.55c2.91,0,5.71,1.18,7.73,3.28,4.28,4.41,4.28,11.43,0,15.84-2.03,2.1-4.82,3.28-7.73,3.28s-5.71-1.18-7.74-3.28c-4.27-4.42-4.27-11.43,0-15.84,2.03-2.09,4.82-3.28,7.74-3.28ZM75.06,67.39h0c-1.63-1.68-3.87-2.63-6.21-2.63s-4.58.95-6.2,2.63c-3.43,3.54-3.43,9.17,0,12.71,1.62,1.68,3.87,2.63,6.2,2.63s4.58-.95,6.21-2.63c3.43-3.54,3.43-9.16,0-12.71h0ZM78.22,58.13l.33-.18c1.07-.56,2.37-.34,3.2.53l2.03,2.07h0c.41.42.69.97.77,1.55.09.59,0,1.19-.27,1.72l-.17.34h0c-.15.29-.23.61-.24.94,0,.33.08.65.22.95.17.35.32.7.46,1.04.14.34.28.7.39,1.07h0c.1.31.27.59.49.82.23.23.51.4.82.5l.36.12h0c.56.18,1.04.54,1.38,1.02.34.48.53,1.07.53,1.66v2.93c0,.6-.18,1.18-.53,1.67-.34.48-.82.84-1.38,1.02l-.36.12c-.31.1-.59.27-.82.49-.23.23-.39.52-.49.83-.12.36-.25.72-.39,1.07-.14.34-.29.69-.46,1.04-.3.59-.3,1.3.02,1.89l.17.34h0c.27.53.36,1.14.27,1.72s-.36,1.13-.77,1.55l-2.03,2.07c-.83.87-2.14,1.08-3.2.53l-.33-.18c-.28-.15-.6-.23-.92-.24-.32,0-.64.08-.93.23-.34.17-.68.32-1.02.47-.34.14-.69.28-1.04.4h0c-.31.1-.59.27-.81.5-.23.24-.39.52-.49.84l-.12.37h0c-.17.56-.52,1.06-1,1.42-.47.35-1.04.54-1.62.54h-2.87c-.58,0-1.15-.19-1.62-.54-.47-.36-.82-.86-1-1.42l-.11-.37h0c-.09-.31-.26-.59-.48-.83-.23-.23-.5-.4-.81-.5-.35-.12-.7-.26-1.04-.4-.34-.15-.68-.3-1.02-.47h0c-.29-.15-.6-.23-.93-.23-.32,0-.63.09-.91.24l-.34.18c-.52.27-1.11.37-1.68.27-.58-.09-1.11-.37-1.52-.79l-2.02-2.07c-.85-.88-1.05-2.19-.51-3.28l.17-.34c.15-.29.23-.62.24-.95,0-.33-.08-.65-.23-.95-.17-.35-.32-.7-.46-1.04-.14-.35-.27-.71-.39-1.07h0c-.1-.31-.27-.59-.49-.82-.23-.23-.51-.4-.82-.49l-.36-.12c-.56-.18-1.04-.54-1.38-1.02-.34-.48-.53-1.07-.53-1.66v-2.93c0-.6.18-1.18.53-1.66.34-.48.82-.84,1.38-1.02l.36-.12c.3-.1.59-.27.82-.49.22-.23.39-.52.49-.83.12-.37.25-.72.39-1.07s.3-.69.46-1.04h0c.14-.29.22-.62.22-.95,0-.33-.09-.65-.24-.94l-.17-.34c-.55-1.09-.35-2.41.5-3.28l2.02-2.07h0c.41-.42.94-.7,1.52-.8.57-.09,1.17,0,1.68.27l.34.18h0c.28.15.6.23.92.24.32,0,.64-.08.93-.23.34-.17.68-.33,1.02-.47s.69-.28,1.04-.4h0c.31-.1.59-.28.81-.5.23-.24.39-.53.49-.84l.11-.36c.18-.57.53-1.06,1-1.42.46-.35,1.04-.54,1.62-.54h2.86c.58,0,1.15.19,1.62.54.48.36.82.85,1,1.42l.12.36c.09.32.26.61.48.84.23.23.5.4.81.5.35.12.7.26,1.04.4s.68.3,1.02.47c.29.15.6.23.93.23.32,0,.63-.09.91-.24h0ZM79.54,59.92l-.34.18c-.58.31-1.23.47-1.89.48-.66,0-1.3-.15-1.89-.45-.28-.14-.58-.28-.89-.41-.3-.13-.61-.24-.91-.35-.63-.21-1.2-.57-1.65-1.05-.46-.48-.8-1.07-1-1.7l-.11-.37c-.04-.12-.11-.23-.21-.3-.1-.07-.23-.12-.36-.11h-2.86c-.12,0-.25.04-.35.11-.1.07-.18.18-.21.3l-.12.37c-.2.64-.54,1.22-1,1.7-.46.48-1.02.84-1.65,1.05-.3.11-.61.23-.91.35s-.6.27-.89.41c-.58.3-1.23.46-1.89.45-.66,0-1.31-.17-1.89-.48l-.34-.18h0c-.11-.06-.24-.08-.36-.06-.12.02-.24.09-.33.18l-2.02,2.06c-.09.09-.16.21-.18.34s0,.26.07.38l.17.34c.61,1.21.62,2.64.02,3.87-.14.29-.27.59-.4.91-.13.32-.24.61-.34.93-.21.64-.56,1.22-1.02,1.7-.47.47-1.04.82-1.67,1.02l-.36.12h0c-.12.04-.22.11-.3.21-.07.11-.11.23-.11.36v2.93c0,.13.03.26.11.37.07.1.18.18.3.21l.36.12c.63.2,1.2.55,1.67,1.02.46.48.82,1.06,1.02,1.7.11.32.21.62.34.93.13.32.26.62.4.91h0c.6,1.22.59,2.66-.02,3.87l-.17.35h0c-.06.11-.09.24-.07.37.02.13.08.25.18.34l2.02,2.07c.09.09.2.16.33.18.12.02.25,0,.36-.06l.34-.18h0c.58-.31,1.23-.47,1.89-.48.66,0,1.3.15,1.89.46.29.14.58.28.89.41.31.13.61.24.91.35h0c.62.21,1.19.57,1.65,1.05.46.48.8,1.06,1,1.7l.12.37h0c.04.12.11.23.21.3.1.08.23.12.35.12h2.86c.13,0,.25-.04.36-.12.1-.07.17-.18.21-.3l.11-.37h0c.2-.64.54-1.22,1-1.7s1.03-.84,1.65-1.05c.31-.11.61-.22.91-.35.3-.12.6-.27.89-.41h0c.59-.3,1.23-.46,1.89-.45.66,0,1.31.17,1.89.48l.33.18h0c.23.12.51.08.69-.12l2.02-2.07h0c.09-.09.16-.21.18-.34.02-.12,0-.25-.07-.37l-.17-.35h0c-.3-.6-.46-1.26-.46-1.93,0-.67.15-1.33.45-1.93.14-.29.28-.6.4-.91.13-.32.24-.61.34-.93h0c.21-.64.55-1.22,1.02-1.7.46-.46,1.04-.82,1.66-1.02l.36-.12h0c.12-.04.23-.11.3-.21.07-.11.11-.23.11-.37v-2.93c0-.13-.04-.25-.11-.36-.08-.1-.18-.18-.3-.21l-.36-.12h0c-.63-.2-1.2-.55-1.66-1.02-.47-.48-.82-1.06-1.02-1.7-.11-.32-.22-.62-.34-.93-.12-.3-.26-.62-.4-.91h0c-.29-.61-.44-1.27-.45-1.93,0-.67.16-1.34.46-1.93l.17-.34h0c.06-.12.08-.25.07-.38-.02-.13-.09-.25-.18-.34l-2.02-2.07h0c-.09-.09-.2-.16-.32-.18-.12-.02-.25,0-.36.07h.01ZM68.85,8.95c2.91,0,5.71,1.18,7.73,3.28,4.28,4.41,4.28,11.43,0,15.84-2.03,2.09-4.82,3.28-7.73,3.28s-5.71-1.18-7.74-3.28c-4.27-4.42-4.27-11.43,0-15.84,2.03-2.1,4.82-3.28,7.74-3.28ZM75.06,13.79c-1.63-1.68-3.87-2.63-6.21-2.63s-4.58.95-6.2,2.63c-3.43,3.54-3.43,9.16,0,12.7,1.62,1.68,3.86,2.64,6.2,2.64s4.58-.95,6.21-2.64c3.43-3.54,3.43-9.16,0-12.7ZM78.22,4.53l.33-.18h0c1.07-.56,2.37-.34,3.2.52l2.02,2.07c.41.42.68.97.77,1.55s0,1.19-.27,1.72l-.17.34c-.15.29-.23.61-.24.94,0,.33.08.66.22.95.17.35.32.7.46,1.04.14.34.28.71.39,1.07h0c.19.63.68,1.12,1.31,1.32l.36.12c.56.18,1.04.54,1.38,1.02.34.48.53,1.07.53,1.66v2.93c0,.59-.18,1.18-.53,1.66-.34.48-.82.84-1.38,1.02l-.36.12c-.31.09-.59.26-.82.49-.23.23-.39.52-.49.83-.12.36-.25.72-.39,1.07-.14.35-.29.69-.46,1.04h0c-.14.29-.22.61-.22.95,0,.32.09.65.24.94l.17.35h0c.27.53.36,1.13.27,1.72-.09.59-.36,1.13-.77,1.55l-2.03,2.07c-.83.87-2.14,1.08-3.2.52l-.33-.17c-.57-.32-1.27-.32-1.84,0-.34.17-.68.32-1.02.47-.34.14-.69.28-1.04.4h0c-.31.09-.59.27-.81.5-.23.24-.39.52-.49.83l-.12.37h0c-.18.57-.52,1.07-1,1.42-.47.35-1.04.54-1.62.54h-2.86c-.58,0-1.15-.19-1.62-.54-.47-.36-.82-.86-1-1.42l-.11-.37h0c-.09-.31-.26-.6-.48-.84-.23-.23-.5-.4-.81-.5-.35-.12-.7-.26-1.04-.4-.34-.14-.68-.3-1.02-.47-.57-.31-1.27-.31-1.84,0l-.34.17c-.52.28-1.11.38-1.68.28-.58-.1-1.11-.38-1.52-.8l-2.02-2.07c-.85-.88-1.05-2.19-.51-3.28l.17-.35h0c.15-.29.23-.61.24-.93,0-.33-.08-.65-.23-.95-.17-.35-.32-.7-.46-1.04-.14-.34-.27-.71-.39-1.07h0c-.1-.3-.27-.59-.49-.82-.23-.23-.51-.39-.82-.49l-.36-.12h0c-.56-.19-1.04-.54-1.38-1.02-.35-.48-.53-1.07-.53-1.66v-2.93c0-.59.18-1.18.53-1.66.34-.48.82-.84,1.38-1.02l.36-.12c.63-.2,1.12-.69,1.31-1.32.12-.37.25-.72.39-1.07.14-.35.3-.69.46-1.04.14-.3.22-.62.22-.95,0-.32-.09-.64-.24-.94l-.17-.34c-.55-1.09-.35-2.41.5-3.28l2.02-2.07h0c.41-.42.94-.7,1.52-.79.57-.09,1.17,0,1.68.27l.34.18h0c.28.15.6.23.92.24.32,0,.64-.08.93-.23.34-.17.68-.33,1.02-.47.34-.15.69-.28,1.04-.4h0c.31-.1.59-.27.81-.5.23-.24.39-.52.49-.84l.11-.36h0c.18-.57.53-1.07,1-1.42.46-.35,1.04-.54,1.62-.54h2.86c.59,0,1.16.19,1.62.54.48.36.82.85,1,1.42l.12.36c.09.32.26.61.49.84.22.23.5.4.81.5.35.12.7.26,1.04.4.34.15.68.3,1.02.47h0c.29.16.61.23.93.23.32,0,.64-.09.92-.24h0ZM79.53,6.32l-.33.18h0c-.58.31-1.23.47-1.89.48-.66,0-1.3-.15-1.89-.46-.28-.14-.58-.28-.89-.41-.3-.13-.61-.24-.91-.35-.62-.21-1.2-.57-1.65-1.05-.46-.48-.8-1.07-1-1.7l-.11-.37c-.04-.12-.11-.23-.21-.31-.11-.07-.23-.11-.36-.11h-2.86c-.12,0-.25.04-.35.11-.1.08-.18.19-.21.31l-.12.37c-.2.64-.54,1.22-1,1.7-.46.48-1.02.84-1.65,1.05-.3.11-.61.23-.91.35s-.6.27-.89.41c-.58.3-1.23.46-1.89.46-.66,0-1.3-.17-1.89-.48l-.34-.18c-.11-.06-.24-.08-.36-.07-.12.03-.24.09-.33.18l-2.02,2.07h0c-.09.09-.16.21-.18.33-.02.13,0,.26.07.38l.17.34c.61,1.21.62,2.65.02,3.87-.14.29-.27.59-.4.91-.13.3-.24.61-.34.93h0c-.21.64-.56,1.22-1.02,1.7-.47.47-1.04.82-1.67,1.03l-.36.12c-.12.04-.23.11-.3.21-.07.11-.11.23-.11.36v2.93c0,.13.03.26.11.37.08.1.18.17.3.21l.36.12h0c.63.2,1.2.55,1.67,1.02.46.48.81,1.06,1.02,1.69.11.32.21.63.34.93s.26.62.4.91h0c.6,1.22.59,2.66-.02,3.87l-.17.34h0c-.06.12-.09.25-.07.37.02.13.08.25.18.34l2.02,2.07c.09.09.2.15.33.18.12.02.25,0,.36-.07l.34-.17h0c.58-.31,1.23-.47,1.89-.48.66,0,1.3.15,1.89.45.29.14.58.28.89.41.31.13.61.25.91.35,1.27.44,2.26,1.46,2.65,2.75l.12.36c.04.12.11.23.21.31.1.07.23.11.35.11h2.86c.13,0,.25-.03.36-.11.1-.08.17-.19.21-.31l.11-.36c.2-.64.54-1.22,1-1.7.46-.48,1.03-.84,1.65-1.05.31-.11.61-.22.91-.35.3-.13.6-.27.89-.41h0c.59-.3,1.23-.46,1.89-.45.66,0,1.31.17,1.89.48l.33.17h0c.11.07.24.09.36.07.12-.02.24-.09.32-.18l2.03-2.05c.09-.09.16-.21.18-.34.02-.13,0-.26-.07-.38l-.17-.34c-.3-.6-.46-1.26-.46-1.93,0-.67.15-1.33.44-1.93.14-.29.28-.6.4-.91.13-.31.24-.62.34-.93h0c.21-.63.55-1.21,1.02-1.69.46-.47,1.04-.82,1.66-1.02l.36-.12h0c.12-.04.23-.11.3-.21.07-.11.11-.24.11-.37v-2.94c0-.13-.04-.25-.11-.36-.07-.1-.18-.18-.3-.21l-.36-.12c-.62-.2-1.2-.55-1.66-1.03-.47-.47-.82-1.05-1.02-1.69-.11-.32-.22-.62-.34-.93s-.26-.62-.4-.91h0c-.29-.6-.44-1.26-.44-1.93,0-.67.16-1.34.46-1.94l.17-.34c.06-.12.08-.25.07-.37-.02-.13-.08-.25-.18-.34l-2.02-2.07c-.17-.2-.46-.25-.69-.12h0Z"/>
    <g>
      <path class="cls-1" d="M49.15,50.88l-.43-15.51c-.02-1.27-1.02-2.3-2.29-2.4-8.27-.62-14.73-3.32-20.35-8.51-.83-.79-2.13-.79-2.99,0-5.61,5.19-12.07,7.89-20.34,8.51-1.27.1-2.25,1.13-2.3,2.4L.02,50.86c-.55,12.31,8.94,23.48,24.2,28.47h.05c.09.05.2.05.31.05h.02c.07,0,.2,0,.36-.05,15.25-4.99,24.74-16.16,24.19-28.45ZM24.58,76.87c-13.94-4.71-22.62-14.87-22.12-25.92l.43-15.51h.03c8.77-.65,15.68-3.49,21.68-8.99,3.01,2.74,6.24,4.82,9.81,6.3,3.57,1.48,7.49,2.36,11.87,2.69l.41,15.54c.5,11.04-8.18,21.18-22.11,25.89Z"/>
      <path class="cls-1" d="M43.89,38.81c-.02-1.15-.9-2.08-2.05-2.15-6.46-.48-11.5-2.59-15.9-6.65-.77-.72-1.94-.72-2.7,0-4.4,4.06-9.47,6.17-15.93,6.65-1.14.09-2,1-2.05,2.15l-.34,12.22c-.43,9.82,7.13,18.74,19.3,22.73h.05c.09.05.21.05.33.05l-.05.02c.12,0,.24-.02.34-.04h.04c12.17-3.97,19.73-12.89,19.3-22.72l-.34-12.26ZM41.81,51.14c.39,8.56-6.36,16.48-17.21,20.16-10.85-3.68-17.6-11.6-17.21-20.18l.33-12.02c6.78-.55,12.15-2.78,16.86-7.01,4.71,4.23,10.09,6.48,16.9,7.01l.33,12.04Z"/>
    </g>
  </g>
</svg>