<?xml version="1.0" encoding="utf-8"?>
<!-- Generator: Adobe Illustrator 27.5.0, SVG Export Plug-In . SVG Version: 6.00 Build 0)  -->
<svg version="1.1" id="Layer_1" xmlns="http://www.w3.org/2000/svg" xmlns:xlink="http://www.w3.org/1999/xlink" x="0px" y="0px"
	 viewBox="0 0 1000 1000" style="enable-background:new 0 0 1000 1000;" xml:space="preserve">
<style type="text/css">
	.st0{fill:#40537C;}
</style>
<g id="Page-1">
	<g id="shield_filled" transform="translate(-60 -416)">
		<path id="alarm_x2C_-alert_x2C_-buzzer_x2C_-shield_x2C_-security_x2C_-protection" class="st0" d="M510,962.3l-15.1,20.2l3,21.1
			l21.1-3l15.9-21.2c7.7,3,16,4.7,24.7,4.7c8.7,0,17.1-1.7,24.7-4.7l15.9,21.2c5,6.7,14.4,8,21.1,3s8-14.4,3-21.1l-15.1-20.2
			c11.2-12.1,18.1-46.1,18.1-46.1l-67.8-67.8l-67.8,67.8C491.9,916.2,498.7,950.2,510,962.3L510,962.3z M496.3,815.2l-30.1,30.1
			c-5.9,5.9-5.9,15.4,0,21.3s15.4,5.9,21.3,0l30.1-30.1c5.9-5.9,5.9-15.4,0-21.3C511.7,809.3,502.2,809.3,496.3,815.2z M601.7,836.5
			l30.1,30.1c5.9,5.9,15.4,5.9,21.3,0s5.9-15.4,0-21.3L623,815.2c-5.9-5.9-15.4-5.9-21.3,0S595.8,830.6,601.7,836.5z"/>
		<path class="st0" d="M785.5,765.6v104c0,133.6-84,252.9-209.9,297.8l-11,3.9c-3.3,1.2-6.8,1.2-10.1,0l-10.9-3.9
			c-125.9-44.9-209.9-164.2-209.9-297.8v-104c0-6,3.6-11.5,9.1-13.8l210.8-90.4c3.8-1.6,8.1-1.6,11.9,0l210.8,90.4
			C781.9,754.2,785.5,759.6,785.5,765.6z"/>
	</g>
</g>
</svg>
