<svg width="168" height="64" viewBox="0 0 168 64" fill="none" xmlns="http://www.w3.org/2000/svg">
<g clip-path="url(#clip0_0_146)">
<path d="M0.0656011 56.7654L7.1046 6.69364C7.62395 2.9975 11.0406 0 14.7368 0H162.179C165.875 0 168.451 2.9975 167.931 6.69364L160.895 56.7654C160.375 60.4615 156.959 63.459 153.26 63.459H5.81807C2.12194 63.459 -0.453755 60.4615 0.0656011 56.7654Z" fill="#C0E8F9"/>
<path d="M45.851 34.3489C46.402 34.3489 46.6129 34.6441 46.5286 35.1951L46.3177 36.2523C46.2333 36.8033 45.8932 37.0986 45.3449 37.0986H41.451L40.1381 44.4223C40.0116 44.9733 39.7137 45.2685 39.1653 45.2685H37.9368C37.3014 45.2685 37.1327 45.0576 37.2593 44.4223L38.53 37.0986H23.4607C22.9097 37.0986 22.6566 36.8033 22.741 36.2523L22.9097 35.3639C22.9519 34.9816 23.1206 34.6441 23.3763 34.3489L41.8306 15.4701C42.2551 15.0879 42.6769 14.877 43.1435 14.877H44.4986C45.0918 14.877 45.3027 15.1722 45.1761 15.7232L41.9176 34.3462H45.8537L45.851 34.3489ZM41.7463 19.1109L26.7192 34.3489H39.0361L41.7463 19.1109Z" fill="#3E517A"/>
<path d="M74.1678 29.693C74.7188 29.693 74.9719 29.9883 74.8875 30.5393L73.9147 35.9569C72.8576 42.1787 68.0726 45.8616 60.625 45.8616C53.1774 45.8616 49.621 41.7147 50.8047 34.9841L52.5816 25.0373C53.7231 18.3911 58.4237 14.6238 66.0005 14.6238C71.8848 14.6238 75.1854 17.036 75.863 21.9053C75.9473 22.4563 75.7364 22.8359 75.2276 23.0047L73.9147 23.4291C73.3216 23.5557 72.9841 23.3869 72.9419 22.9203C72.4331 19.153 70.3188 17.4605 65.5338 17.4605C59.9475 17.4605 56.4754 20.2972 55.6292 25.206L53.8945 35.195C53.006 40.1487 55.5026 43.0249 61.089 43.0249C66.6754 43.0249 70.1052 40.1882 70.9515 35.746L71.4603 32.5719H63.3325C62.7815 32.5719 62.5284 32.2766 62.6128 31.7256L62.8237 30.5393C62.9502 29.9883 63.2903 29.693 63.8387 29.693H74.1652H74.1678Z" fill="#3E517A"/>
<path d="M91.8603 15.217C99.648 15.217 103.373 19.6619 102.145 26.6455L100.79 34.3489C99.561 41.2903 94.5256 45.2685 86.6957 45.2685H77.6373C77.002 45.2685 76.8332 45.0576 76.9598 44.4223L81.9556 16.0633C82.0822 15.5123 82.3801 15.217 82.9284 15.217H91.8603ZM99.1392 26.3924C100.112 21.1013 97.3201 18.0959 91.3937 18.0959H84.6631L80.387 42.3923H87.1176C93.0018 42.3923 96.8113 39.3869 97.7841 34.0958L99.1392 26.3924Z" fill="#3E517A"/>
<path d="M103.779 41.8833C105.008 41.8833 105.345 42.2629 105.134 43.5758L105.092 43.8289C104.797 45.1418 104.33 45.5214 103.102 45.5214H102.848C101.536 45.5214 101.282 45.1418 101.493 43.8289L101.536 43.5758C101.746 42.2629 102.213 41.8833 103.526 41.8833H103.779Z" fill="#3E517A"/>
<path d="M135.412 44.4643C135.497 45.0153 135.244 45.2684 134.65 45.2684H133.551C132.536 45.2684 132.28 45.1418 132.154 44.5065L130.419 36.4657H117.172L112.6 44.5065C112.305 45.0153 111.754 45.2684 110.95 45.2684H109.721C109.086 45.2684 108.917 45.0153 109.297 44.4643L125.676 15.81C125.929 15.3434 126.312 15.0903 126.863 15.0903H128.133C128.727 15.0903 129.064 15.3012 129.106 15.7679L135.412 44.4643ZM127.2 20.9298C127.158 20.5502 127.116 19.5747 127.116 18.0087H126.989C126.989 18.0087 126.565 19.6169 125.89 20.9298L118.524 33.9243H130.037L127.2 20.9298Z" fill="#3E517A"/>
<path d="M143.706 16.0633C143.833 15.5123 144.131 15.217 144.679 15.217H146.076C146.627 15.217 146.88 15.5123 146.796 16.0633L141.758 44.4223C141.674 44.9733 141.334 45.2685 140.785 45.2685H139.388C138.753 45.2685 138.584 45.0576 138.711 44.4223L143.706 16.0633Z" fill="#3E517A"/>
</g>
<defs>
<clipPath id="clip0_0_146">
<rect width="168" height="63.459" fill="white"/>
</clipPath>
</defs>
</svg>
