<svg width="530" height="200" viewBox="0 0 530 200" fill="none" xmlns="http://www.w3.org/2000/svg">
<path d="M0.214143 178.833L22.3869 21.0676C24.0447 9.39407 34.8203 0 46.4247 0H511.017C522.69 0 530.772 9.46315 529.114 21.0676L506.942 178.833C505.284 190.506 494.508 199.9 482.904 199.9H18.3115C6.7071 199.9 -1.44364 190.506 0.214143 178.833Z" fill="#C0E8F9"/>
<path d="M144.51 108.17C146.237 108.17 146.927 109.137 146.651 110.864L145.96 114.179C145.684 115.906 144.648 116.873 142.921 116.873H130.626L126.482 139.944C126.067 141.671 125.169 142.638 123.442 142.638H119.574C117.571 142.638 117.018 141.947 117.433 139.944L121.439 116.873H73.9852C72.2584 116.873 71.4295 115.906 71.7058 114.179L72.2584 111.347C72.3965 110.173 72.9491 109.068 73.7089 108.17L131.869 48.6973C133.182 47.523 134.563 46.8323 136.014 46.8323H140.296C142.161 46.8323 142.852 47.7993 142.438 49.5262L132.146 108.239H144.51V108.17ZM131.524 60.1636L84.2082 108.17H123.028L131.524 60.1636Z" fill="#3E517A"/>
<path d="M233.684 93.5264C235.411 93.5264 236.24 94.4934 235.964 96.2203L232.925 113.282C229.609 132.899 214.551 144.503 191.066 144.503C167.581 144.503 156.391 131.448 160.121 110.242L165.716 78.8827C169.307 57.9533 184.089 46.0725 207.989 46.0725C226.501 46.0725 236.931 53.6707 239.072 69.0051C239.349 70.732 238.658 71.9062 237.069 72.4588L232.925 73.7712C231.06 74.1857 230.024 73.6331 229.885 72.1825C228.297 60.3018 221.597 54.9831 206.538 54.9831C188.924 54.9831 178.011 63.8936 175.317 79.3662L169.86 110.864C167.028 126.475 174.902 135.523 192.516 135.523C209.578 135.523 220.906 126.613 223.6 112.591L225.188 102.575H199.562C197.835 102.575 197.006 101.608 197.282 99.8812L197.973 96.1512C198.388 94.4244 199.424 93.4573 201.151 93.4573H233.684V93.5264Z" fill="#3E517A"/>
<path d="M289.496 47.9375C314.018 47.9375 325.76 61.9595 321.892 83.925L317.61 108.17C313.741 130.067 297.854 142.569 273.195 142.569H244.667C242.664 142.569 242.112 141.878 242.526 139.875L258.275 50.4932C258.689 48.7663 259.587 47.7993 261.314 47.7993H289.496V47.9375ZM312.429 83.0962C315.468 66.4493 306.696 56.9862 288.046 56.9862H266.771L253.302 133.52H274.507C293.019 133.52 305.038 124.057 308.146 107.41L312.429 83.0962Z" fill="#3E517A"/>
<path d="M327.004 131.932C330.872 131.932 331.908 133.106 331.286 137.25L331.148 138.079C330.181 142.224 328.73 143.398 324.862 143.398H324.103C319.958 143.398 319.198 142.224 319.82 138.079L319.958 137.25C320.649 133.106 322.099 131.932 326.244 131.932H327.004Z" fill="#3E517A"/>
<path d="M426.677 140.082C426.954 141.809 426.125 142.638 424.26 142.638H420.806C417.629 142.638 416.8 142.223 416.385 140.22L410.929 114.87H369.208L354.771 140.22C353.804 141.809 352.077 142.638 349.591 142.638H345.723C343.719 142.638 343.167 141.809 344.41 140.082L396.008 49.8024C396.837 48.3518 398.012 47.5229 399.739 47.5229H403.745C405.61 47.5229 406.646 48.2137 406.784 49.6642L426.677 140.082ZM400.844 65.8967C400.706 64.7224 400.567 61.6141 400.567 56.7098H400.153C400.153 56.7098 398.841 61.7522 396.699 65.8967L373.49 106.858H409.754L400.844 65.8967Z" fill="#3E517A"/>
<path d="M452.856 50.5623C453.271 48.8354 454.169 47.8684 455.896 47.8684H460.316C462.043 47.8684 462.872 48.8354 462.596 50.5623L446.709 139.944C446.433 141.671 445.396 142.638 443.67 142.638H439.249C437.246 142.638 436.693 141.947 437.108 139.944L452.856 50.5623Z" fill="#3E517A"/>
</svg>
