<?xml version="1.0" encoding="utf-8"?>
<!-- Generator: Adobe Illustrator 27.5.0, SVG Export Plug-In . SVG Version: 6.00 Build 0)  -->
<svg version="1.1" id="Layer_1" xmlns="http://www.w3.org/2000/svg" xmlns:xlink="http://www.w3.org/1999/xlink" x="0px" y="0px"
	 viewBox="0 0 1000 1000" style="enable-background:new 0 0 1000 1000;" xml:space="preserve">
<style type="text/css">
	.st0{clip-path:url(#SVGID_00000105426739280117787080000011397267202496376490_);}
	.st1{fill-rule:evenodd;clip-rule:evenodd;fill:#40537D;}
</style>
<g>
	<defs>
		<rect id="SVGID_1_" x="236.1" y="236.1" width="527.9" height="527.9"/>
	</defs>
	<clipPath id="SVGID_00000076582664306426710720000008695095685939902882_">
		<use xlink:href="#SVGID_1_"  style="overflow:visible;"/>
	</clipPath>
	<g style="clip-path:url(#SVGID_00000076582664306426710720000008695095685939902882_);">
		<path class="st1" d="M258.1,610c12.1,0,22,9.8,22,22v22c0,36.2,29.7,66,66,66H654c36.2,0,66-29.7,66-66v-22c0-12.1,9.8-22,22-22
			c12.1,0,22,9.8,22,22v22c0,60.5-49.4,110-110,110H346c-60.5,0-110-49.4-110-110v-22C236.1,619.8,245.9,610,258.1,610z"/>
		<path class="st1" d="M236.1,346c0-60.5,49.4-110,110-110H654c60.5,0,110,49.4,110,110v22c0,12.1-9.8,22-22,22
			c-12.1,0-22-9.8-22-22v-22c0-36.2-29.7-66-66-66H346c-36.2,0-66,29.7-66,66v22c0,12.1-9.8,22-22,22c-12.1,0-22-9.8-22-22V346z"/>
		<path class="st1" d="M385.2,398.3c7.6,9.5,6.1,23.3-3.4,30.9L293.3,500l88.5,70.8c9.5,7.6,11,21.4,3.4,30.9
			c-7.6,9.5-21.4,11-30.9,3.4l-110-88c-5.2-4.2-8.3-10.5-8.3-17.2c0-6.7,3-13,8.3-17.2l110-88C363.8,387.3,377.6,388.8,385.2,398.3z
			"/>
		<path class="st1" d="M614.8,398.3c7.6-9.5,21.4-11,30.9-3.4l110,88c5.2,4.2,8.3,10.5,8.3,17.2s-3,13-8.3,17.2l-110,88
			c-9.5,7.6-23.3,6.1-30.9-3.4c-7.6-9.5-6.1-23.3,3.4-30.9l88.5-70.8l-88.5-70.8C608.7,421.6,607.2,407.8,614.8,398.3z"/>
		<path class="st1" d="M550,324.9c11.7,3.3,18.4,15.5,15.1,27.2l-88,307.9c-3.3,11.7-15.5,18.4-27.2,15.1
			c-11.7-3.3-18.4-15.5-15.1-27.2l88-307.9C526.2,328.3,538.4,321.6,550,324.9z"/>
	</g>
</g>
</svg>
