<svg width="535" height="572" viewBox="0 0 535 572" fill="none" xmlns="http://www.w3.org/2000/svg">
<g clip-path="url(#clip0_0_4)">
<path d="M390.403 66.3894L375.078 78.5111H375.071L325.09 118.053L77.4092 314.017L73.2559 317.296C74.6718 339.03 79.6544 360.103 88.1025 380.103C90.5096 385.776 93.1526 391.308 96.0585 396.684H298.97L274.94 497.158L274.502 499.013C298.377 498.184 321.51 493.098 343.369 483.849C349.255 481.354 354.992 478.588 360.562 475.559L379.427 396.684L399.202 314.017L427.978 193.704L443.884 127.241L448.671 107.207L474.312 0L390.403 66.3894ZM207.8 314.017L344.643 205.745L318.752 314.017H207.8Z" fill="#3E517A"/>
<path d="M535 314.018C533.962 342.976 528.332 370.774 518.805 396.684C489.361 476.787 422.74 538.913 339.856 562.118C316.864 568.553 292.625 572 267.584 572C264.072 572 260.565 571.926 257.086 571.798C146.323 567.521 52.8264 495.89 16.3637 396.684L7.87508 369.021C2.72392 348.292 0 326.605 0 304.291C0 156.435 119.805 36.5811 267.584 36.5811C311.855 36.5811 353.617 47.3334 390.403 66.3895L375.078 78.5112H375.071L325.09 118.053C306.582 112.333 287.319 109.446 267.584 109.446C241.262 109.446 215.769 114.586 191.8 124.725C168.62 134.533 147.779 148.597 129.878 166.513C111.964 184.429 97.9126 205.28 88.1025 228.464C77.9755 252.445 72.831 277.949 72.831 304.291C72.831 308.648 72.9726 312.986 73.2558 317.296C74.6717 339.03 79.6543 360.103 88.1025 380.103C90.5095 385.776 93.1525 391.308 96.0585 396.684C105.012 413.318 116.346 428.53 129.878 442.061C147.779 459.977 168.62 474.035 191.8 483.85C215.769 493.988 241.262 499.128 267.584 499.128C269.897 499.128 272.203 499.095 274.502 499.014C298.377 498.184 321.51 493.098 343.368 483.85C349.255 481.354 354.992 478.588 360.562 475.559C376.945 466.649 391.927 455.431 405.297 442.061C418.822 428.53 430.149 413.318 439.11 396.684H379.427L399.202 314.018H535Z" fill="#C0E8F9"/>
</g>
<defs>
<clipPath id="clip0_0_4">
<rect width="535" height="572" fill="white"/>
</clipPath>
</defs>
</svg>
