<svg width="91" height="91" viewBox="0 0 91 91" fill="none" xmlns="http://www.w3.org/2000/svg">
<path d="M46.2019 1.67651C14.9889 1.67651 -8.12924 42.6348 32.2486 80.7569C32.8414 81.3194 33.4702 81.649 34.1306 82.3177C45.0989 93.4266 48.6244 90.1671 58.7558 80.6052C99.5886 42.0516 74.9744 1.67651 46.2019 1.67651ZM72.8621 60.6073L71.7564 59.5015L73.5226 57.7353C73.6577 57.6002 73.6577 57.3823 73.5226 57.2472C73.3875 57.1121 73.1696 57.1121 73.0345 57.2472L71.2683 59.0134L70.2714 58.0165C70.1514 57.8966 69.9708 57.9007 69.8371 57.9945L72.5092 55.3224C72.676 55.4892 73.9624 56.857 74.1858 56.857C74.4905 56.857 74.6463 56.4861 74.4298 56.2682L72.9973 54.8357L75.5811 52.2518C75.7314 52.4021 75.8624 52.5841 76.0568 52.5841C76.3615 52.5841 76.5173 52.2132 76.3008 51.9954L74.5332 50.2278L76.9475 47.8135C77.2798 47.8328 77.419 47.444 77.2067 47.2317L75.8321 45.857L78.0023 43.6868C78.1457 43.8302 78.3235 44.0411 78.4986 44.106C77.7003 49.588 75.8114 55.1335 72.8621 60.6073ZM70.2576 64.9725L68.2722 62.9871L71.2696 59.9896C71.4158 60.1357 72.3437 61.1161 72.5436 61.1684C71.8391 62.4411 71.0739 63.7082 70.2576 64.9725ZM78.489 43.2015L78.6475 43.0429C78.6365 43.1408 78.6337 43.2373 78.6213 43.3352L78.489 43.2015ZM78.6972 42.4707C78.4242 42.2391 78.2435 42.4721 78.0009 42.7148L77.3074 42.0212L78.875 40.4535C78.8378 41.1236 78.7689 41.7965 78.6972 42.4707ZM41.7112 87.302L43.334 85.6792C43.4953 85.8405 45.1775 87.6081 45.4063 87.6081C45.5856 87.6081 45.6228 87.5323 45.6835 87.4275C45.6876 87.4316 45.6862 87.4385 45.6904 87.4426C45.8255 87.5778 46.0433 87.5778 46.1785 87.4426L48.2977 85.3234C48.4617 85.4875 49.1153 86.221 49.3373 86.221C49.642 86.221 49.7978 85.8501 49.5813 85.6323L48.7844 84.8354L50.6002 83.0195C50.774 83.1932 51.8232 84.3211 52.0452 84.3211C52.3499 84.3211 52.5057 83.9502 52.2892 83.7323L51.0883 82.5314L52.8449 80.7748C53.1648 80.4549 52.6808 79.9641 52.3568 80.2867L50.6002 82.0433L48.7816 80.2316L49.6447 79.3685C49.9646 79.0486 49.4807 78.5577 49.1566 78.8804L48.2908 79.7462C47.9667 79.4443 47.5076 79.9034 47.8096 80.2274L45.9909 82.0461C45.5966 81.6517 45.1058 82.1357 45.5028 82.5341L43.3326 84.7044L41.6864 83.0581C41.3665 82.7382 40.8756 83.2222 41.1983 83.5462L42.8445 85.1925L41.1045 86.9325C38.1539 85.0229 35.4253 81.8723 33.1944 79.7559C-6.221 42.5396 16.1829 3.0553 46.2019 3.0553C63.5939 3.0553 79.6058 18.5984 78.9095 39.5615C78.6985 39.5904 76.9861 41.3677 76.8193 41.5331C76.5545 41.2684 76.3243 40.9651 76.0444 41.245C75.7645 41.5249 76.0664 41.7551 76.3326 42.0198C75.9424 42.41 76.418 42.9092 76.8206 42.5079L77.5142 43.2015L75.3412 45.3744C75.0241 45.0794 74.5084 45.5109 74.9083 45.9108C74.8572 46.1521 75.0048 46.3561 75.2916 46.2941L76.3905 47.3944L74.0424 49.7424C73.5791 49.2805 73.0428 49.7176 73.5543 50.2305L72.2624 51.5225C72.0445 51.7403 72.2017 52.1112 72.5064 52.1112C72.7284 52.1112 73.8687 50.8923 74.0424 50.7186L75.0903 51.7665L72.5064 54.3503L71.6874 53.5313C71.3675 53.2115 70.8767 53.6954 71.1993 54.0194L72.0183 54.8384L68.4817 58.375C68.3466 58.5102 68.3466 58.728 68.4817 58.8631C68.6169 58.9982 68.8347 58.9982 68.9698 58.8631L69.7599 58.0731C69.6661 58.2068 69.662 58.3874 69.7819 58.5074L70.7788 59.5043L67.7813 62.5017L66.8437 61.5642C66.5239 61.2443 66.033 61.7282 66.3556 62.0523L67.2932 62.9898L65.4112 64.8719C65.2761 65.007 65.2761 65.2248 65.4112 65.36C65.5463 65.4951 65.7641 65.4951 65.8993 65.36L67.7813 63.4779L69.8702 65.5654C69.2869 66.4465 68.6775 67.3247 68.0391 68.2003C68.0364 68.1975 68.0378 68.1934 68.035 68.1906L65.3078 65.4634C65.1726 65.3283 64.9548 65.3283 64.8197 65.4634C64.6846 65.5985 64.6846 65.8163 64.8197 65.9515L66.3929 67.5247C66.1943 67.5826 63.9097 69.9169 63.7649 70.063C63.6187 69.9169 62.7515 68.9986 62.5529 68.9421L64.3729 67.1221C64.5081 66.9869 64.5081 66.7691 64.3729 66.634C64.2378 66.4988 64.02 66.4988 63.8849 66.634L57.6141 72.9047C57.2874 73.2315 57.7851 73.7085 58.1022 73.3928L58.7447 72.7503L59.6754 73.6796L56.973 76.382L55.8065 75.2155L56.8089 74.2132C56.944 74.078 56.944 73.8602 56.8089 73.7251C56.6738 73.59 56.4559 73.59 56.3208 73.7251L55.3184 74.7275L54.7945 74.2035C54.4746 73.8836 53.9838 74.3676 54.3064 74.6916L54.8304 75.2155L52.1872 77.8587L50.8953 76.5668C50.5754 76.2469 50.0846 76.7308 50.4072 77.0548L51.6991 78.3468L50.1714 79.8745C49.9536 80.0923 50.1108 80.4632 50.4155 80.4632C50.6402 80.4632 52.0273 78.9934 52.1872 78.8335C55.8672 82.5121 51.2717 77.918 54.8855 81.5304C55.0206 81.6655 55.2385 81.6655 55.3736 81.5304C55.5087 81.3953 55.5087 81.1774 55.3736 81.0423L54.3298 79.9986L56.973 77.3554L58.5944 78.9769C51.4647 85.8708 47.7972 90.8289 41.7112 87.302ZM48.2949 80.7197L50.1108 82.5355L48.2949 84.3514L46.479 82.5341L48.2949 80.7197ZM47.8068 84.8381C47.6689 84.976 45.7524 86.8663 45.6559 87.0359C45.5318 86.8994 43.9517 85.3234 43.8207 85.1925L45.9909 83.0222L47.8068 84.8381ZM65.3629 71.6528L64.2557 70.5456C64.4019 70.3994 66.7362 68.1148 66.7941 67.9162C66.9416 68.0638 67.4849 68.6374 67.6572 68.7173C66.9265 69.7018 66.1626 70.6793 65.3629 71.6528ZM62.2289 75.2514L60.6199 73.6423C60.7536 73.3376 60.5041 73.0867 60.198 73.2218L59.2342 72.2594L62.1586 69.335C62.2151 69.5336 63.132 70.4008 63.2796 70.547L61.7519 72.0747C61.6167 72.2098 61.6167 72.4276 61.7519 72.5628C61.887 72.6979 62.1048 72.6979 62.24 72.5628L63.7677 71.0351L64.9217 72.1891C64.0627 73.2163 63.1651 74.2366 62.2289 75.2514ZM52.6794 78.3413L55.3226 75.6981L56.489 76.8646L53.8459 79.5077L52.6794 78.3413ZM59.0881 78.4888L57.4638 76.8646L60.1663 74.1621L61.7643 75.7602C60.9039 76.6771 60.0091 77.5857 59.0881 78.4888Z" fill="#3E517A"/>
<path d="M70.5073 38.133C72.2693 20.541 55.302 6.75178 38.3663 12.0394C12.0549 20.2515 18.345 60.2074 45.8931 60.2074C56.7525 60.206 69.0692 52.4696 70.5073 38.133ZM31.2642 53.5258C15.7515 40.5969 22.6619 12.2711 45.798 12.2711C59.0344 12.2711 70.561 23.7702 69.1354 37.9951C67.2809 56.486 45.2754 65.2069 31.2642 53.5258Z" fill="#3E517A"/>
<path d="M57.6707 34.1553C57.155 28.0086 51.7833 24.0584 46.1895 23.9095C46.1895 22.0205 46.5246 20.5425 45.5001 20.5425C44.4757 20.5425 44.8107 22.015 44.8107 23.9674C40.4124 24.2073 35.8886 27.4419 34.8104 32.8688C34.4891 34.4889 35.1592 34.1553 31.0229 34.1553C29.6441 34.1553 29.6441 35.534 31.0229 35.534H34.4974C34.6546 42.7782 39.672 46.8167 44.8107 47.1807V50.3919C44.8107 50.7724 45.1196 51.0813 45.5001 51.0813C45.8807 51.0813 46.1895 50.7724 46.1895 50.3919V47.2C52.7967 47.0662 57.0668 41.7138 57.5797 36.6081C57.7176 35.2293 57.2943 35.534 60.005 35.534C60.3855 35.534 60.6944 35.2252 60.6944 34.8446C60.6944 33.8271 59.2604 34.1553 57.6707 34.1553ZM56.143 37.554L56.063 37.474C56.4215 37.1155 55.9348 36.6274 55.5749 36.9873L54.4733 35.8856L55.3764 34.9825C55.5129 35.119 55.6066 35.2555 55.7928 35.2555C56.0975 35.2555 56.2533 34.8846 56.0368 34.6668L55.8645 34.4944C56.2464 34.1125 55.7597 33.6244 55.3764 34.0063L54.6222 33.2521L55.739 32.1367C56.3539 33.8381 56.5235 35.6443 56.143 37.554ZM45.9593 25.2455C50.0612 25.2455 53.8266 27.7411 55.4812 31.4776C55.3074 31.5645 54.2789 32.622 54.1355 32.7668C53.7577 32.389 53.2462 31.6679 52.8987 32.0168C52.5499 32.3656 53.271 32.8757 53.6488 33.2535L52.7994 34.1015C52.5816 34.3193 52.7388 34.6902 53.0435 34.6902C53.2655 34.6902 53.9686 33.9085 54.1355 33.7402L54.8897 34.4944L53.9866 35.3975L53.4861 34.897C53.1662 34.5772 52.6753 35.0611 52.998 35.3851L53.4985 35.8856L52.1031 37.281C51.7833 37.6008 52.2672 38.0917 52.5912 37.7691L53.9866 36.3737L55.0882 37.4754L53.4943 39.0693C53.3592 39.2044 53.3592 39.4222 53.4943 39.5573C53.6295 39.6925 53.8473 39.6925 53.9824 39.5573L55.5763 37.9635C55.7169 38.1041 55.8011 38.2144 55.9651 38.293C55.6563 39.3946 55.1751 40.4522 54.5257 41.4022L53.9273 40.8038C54.2665 40.4646 53.7784 39.9779 53.4392 40.3157L51.0015 37.878C50.6816 37.5581 50.1908 38.0421 50.5134 38.3661L52.9511 40.8038L50.8567 42.8981L50.0529 42.0943L51.8563 40.2909C52.1762 39.971 51.6923 39.4801 51.3683 39.8028L49.5648 41.6062C49.42 41.4615 47.9695 39.9627 47.7738 39.902L48.9402 38.7356C49.2601 38.4157 48.7761 37.9249 48.4521 38.2475L45.3926 41.307L44.8411 40.7555C44.5212 40.4356 44.0303 40.9196 44.353 41.2436L44.9045 41.7951L43.7036 42.996L42.6557 41.9482C42.3358 41.6283 41.845 42.1122 42.1676 42.4363L43.2155 43.4841L41.8091 44.8905C32.3851 40.6645 34.434 25.2455 45.9593 25.2455ZM47.3739 40.3019C47.4346 40.4963 48.9333 41.9468 49.0781 42.0929L47.629 43.542L45.8821 41.7951L47.3739 40.3019ZM47.1423 44.0301L45.9413 45.2311L44.1944 43.4841L45.3953 42.2832L47.1423 44.0301ZM45.525 45.7895C44.4716 45.7288 43.4444 45.5427 42.4847 45.1925L43.7063 43.9708L45.525 45.7895ZM46.2778 45.8363C46.4322 45.7302 47.4856 44.6616 47.629 44.5182C47.7655 44.6547 48.3901 45.2903 48.5417 45.4089C48.5473 45.4613 48.5721 45.5096 48.6024 45.5551C47.851 45.7343 47.0706 45.8267 46.2778 45.8363ZM48.9209 44.834L48.1171 44.0301L49.5662 42.581L50.37 43.3849L48.9209 44.834ZM49.4186 45.3096L50.8567 43.8716L51.3779 44.3928C50.8029 44.7457 50.5617 44.9305 49.4186 45.3096ZM51.9735 44.0136L51.3448 43.3849L53.4392 41.2905L54.101 41.9523C53.4888 42.7341 52.7788 43.4373 51.9735 44.0136Z" fill="#3E517A"/>
<path d="M40.6331 30.3857C41.266 29.7252 41.9209 29.2427 42.7537 28.8552C43.0653 29.2013 43.3824 29.7059 43.7133 29.4054C44.0139 29.1351 43.6968 28.8731 43.4375 28.5836C43.905 28.425 44.3875 28.3202 44.8811 28.2651C45.0218 28.6898 45.1059 29.2675 45.5278 29.1241C45.9166 28.9972 45.7208 28.6098 45.594 28.2237C45.9787 28.221 46.3647 28.2375 46.7535 28.2996C47.2113 28.363 47.3037 27.6874 46.8611 27.6184C46.3606 27.5399 45.8615 27.5219 45.3678 27.5399C45.2451 27.169 45.1693 26.7553 44.7901 26.8904C44.4413 27.0049 44.5585 27.2862 44.6619 27.6005C44.0732 27.6777 43.4982 27.8239 42.9453 28.0348C42.6723 27.7315 42.4324 27.3716 42.1318 27.6474C41.8699 27.8832 42.0684 28.0914 42.2794 28.3258C41.4452 28.7422 40.811 29.2192 40.2236 29.8121L39.5852 28.9255C39.315 28.5519 38.7621 28.9628 39.0254 29.3281L39.7493 30.3333C39.1454 31.0627 38.6876 31.8817 38.3926 32.7544C38.0106 32.4139 37.5101 31.7838 37.1903 32.1478C37.0634 32.2898 37.0772 32.5076 37.2192 32.6345L38.1857 33.4935C37.9844 34.3773 37.9389 35.301 38.0658 36.2331C38.1278 36.6826 38.8117 36.5916 38.7483 36.1394C38.6504 35.4251 38.6738 34.7178 38.7896 34.0312C39.1509 34.3524 39.5769 34.8943 39.8872 34.5455C40.2277 34.1635 39.377 33.63 38.9648 33.2646C39.2088 32.4194 39.61 31.6238 40.1671 30.9151C40.4373 31.2902 40.7131 31.8679 41.084 31.599C41.47 31.3219 40.9281 30.7952 40.6331 30.3857Z" fill="#3E517A"/>
<path d="M47.8607 6.01961C48.3212 6.04029 48.3419 5.34676 47.8855 5.33021C30.0715 4.70976 15.4329 19.62 16.4739 37.7083C16.485 37.8917 16.6366 38.2901 16.8186 38.2901C17.0351 38.2901 17.1744 37.871 17.1633 37.6697C16.1485 20.0474 30.379 5.4157 47.8607 6.01961Z" fill="#3E517A"/>
</svg>
