<svg width="165" height="164" viewBox="0 0 165 164" fill="none" xmlns="http://www.w3.org/2000/svg">
<g clip-path="url(#clip0_0_365)">
<path d="M164.127 54.6032C164.127 64.5956 160.694 75.5094 153.93 87.0443C153.288 88.1296 152.148 88.7302 150.981 88.7302C150.387 88.7302 149.794 88.58 149.254 88.2592C147.63 87.3037 147.084 85.2151 148.033 83.5907C154.175 73.1137 157.295 63.367 157.295 54.6032C157.295 33.1715 139.405 13.6508 119.755 13.6508C103.688 13.6508 95.4634 19.978 87.7917 27.0218L58.5039 56.0161C54.4837 60.0362 53.7329 66.261 56.7771 70.4859C58.7087 73.1683 61.548 74.7859 64.7764 75.0453C67.9571 75.2842 71.0831 74.158 73.3355 71.9056L103.708 41.9421C105.046 40.618 107.217 40.6316 108.534 41.9762C109.858 43.314 109.845 45.4777 108.507 46.8018L98.7055 56.4734L134.996 88.3275C141.576 94.095 143.228 103.732 138.839 110.749C136.136 115.076 131.713 117.984 126.724 118.714C125.12 118.953 123.502 118.967 121.919 118.741C122.806 122.946 122.171 127.382 119.857 131.089C117.148 135.423 112.725 138.324 107.735 139.054C105.367 139.402 102.999 139.252 100.76 138.637C101.033 142.146 100.275 145.695 98.3574 148.746C95.6545 153.073 91.2317 155.981 86.2423 156.711C85.4028 156.834 84.5701 156.895 83.7374 156.895C79.5944 156.895 75.5674 155.401 72.414 152.63L50.2929 132.781C16.6642 102.388 0.317383 76.8199 0.317383 54.6032C0.317383 29.1513 21.0529 6.82544 44.6825 6.82544C52.5999 6.82544 60.5106 9.39179 67.5748 14.2515C69.131 15.3231 69.5201 17.4458 68.4553 18.9951C67.3906 20.5581 65.2679 20.9472 63.7117 19.8756C57.7941 15.8008 51.2144 13.6508 44.6893 13.6508C25.0458 13.6508 7.14961 33.1715 7.14961 54.6032C7.14961 74.4992 23.2029 99.098 54.866 127.71L76.9461 147.524C79.2053 149.51 82.2358 150.391 85.2594 149.961C88.3104 149.517 90.9177 147.797 92.5831 145.128C95.2177 140.924 94.1188 135.041 90.0236 131.45L67.2541 109.807C65.889 108.51 65.8344 106.353 67.1312 104.988C68.4212 103.616 70.5848 103.562 71.9499 104.852L98.5075 129.921C100.698 131.846 103.736 132.761 106.753 132.304C109.804 131.86 112.411 130.14 114.083 127.471C116.711 123.274 115.612 117.39 111.517 113.8L86.1604 90.8461C84.768 89.5834 84.652 87.4334 85.9079 86.0342C87.1569 84.6281 89.3069 84.5121 90.7198 85.7611L117.414 109.52C119.687 111.507 122.704 112.401 125.741 111.964C128.792 111.513 131.392 109.8 133.065 107.131C135.692 102.927 134.593 97.0435 130.498 93.4602L93.839 61.2785L78.1542 76.7516C74.4958 80.41 69.4177 82.2461 64.2372 81.857C59.0567 81.4338 54.3199 78.7515 51.2485 74.4788C46.2728 67.5715 47.3239 57.5586 53.6988 51.1837L83.089 22.0939C91.5388 14.3266 101.251 6.83227 119.762 6.83227C143.398 6.83227 164.127 29.1581 164.127 54.61V54.6032Z" fill="#3E517A"/>
</g>
<defs>
<clipPath id="clip0_0_365">
<rect width="163.81" height="163.81" fill="white" transform="translate(0.317383)"/>
</clipPath>
</defs>
</svg>
