<svg width="91" height="91" viewBox="0 0 91 91" fill="none" xmlns="http://www.w3.org/2000/svg">
<path d="M84.164 40.007L77.7305 33.586L77.7181 12.6987C77.7181 6.22533 76.3711 2.66392 70.0383 2.52328L19.2341 1.38854C13.5011 1.27548 12.0533 3.28437 12.1788 7.9819L12.911 34.6311L12.9096 34.6325L7.40683 41.2079C7.38891 41.2341 7.37788 41.2589 7.36409 41.2879C7.26757 41.4396 7.23586 41.6133 7.26757 41.7829L6.65126 78.5276C6.61816 80.5834 6.56577 83.6691 8.28926 85.8076C8.33889 85.9248 8.43265 86.0406 8.55674 86.1178C10.5822 88.2991 13.8527 88.5459 16.7743 88.601L70.0107 89.6075C79.4733 89.795 84.2798 87.3546 84.2798 73.7859L84.2784 40.8095C84.4149 40.5489 84.3818 40.2235 84.164 40.007ZM82.901 70.7567L82.0199 69.8757L82.901 68.9946V70.7567ZM82.5453 40.3393C80.9445 41.4258 79.3396 42.4916 77.7361 43.5643L77.7319 35.5356L82.5453 40.3393ZM19.2037 2.76733L70.0093 3.90207C75.5617 4.02616 76.3407 7.12843 76.3407 12.6987L76.3586 44.0179C76.3586 44.1627 76.4138 44.2895 76.4896 44.3998C74.9592 45.4188 73.4301 46.4322 71.8983 47.4387C71.8845 47.3753 71.8734 47.3091 71.8238 47.2594L70.8821 46.3191L71.8073 45.3939C71.9424 45.2588 71.9424 45.041 71.8073 44.9058C71.6721 44.7707 71.4543 44.7707 71.3192 44.9058L70.394 45.831L69.9776 45.4146C69.8411 45.2781 69.6233 45.2809 69.4895 45.4146C69.3544 45.5497 69.3544 45.7676 69.4895 45.9027L69.9059 46.3191L66.703 49.522L65.8302 48.6493L68.7491 45.7304C68.8842 45.5952 68.8842 45.3774 68.7491 45.2423C68.614 45.1071 68.3961 45.1071 68.261 45.2423L65.3421 48.1612L64.8485 47.6676C64.7134 47.5324 64.4956 47.5324 64.3604 47.6676C64.2253 47.8027 64.2253 48.0205 64.3604 48.1543L64.854 48.6479L62.9334 50.5685L62.2068 49.8405C62.073 49.7054 61.8552 49.7054 61.7187 49.8405C61.5835 49.9756 61.5835 50.1935 61.7187 50.3286L62.4453 51.0566L61.3299 52.1721C61.1947 52.3072 61.1947 52.525 61.3299 52.6601C61.4636 52.7939 61.6814 52.7953 61.8179 52.6601L62.9334 51.5447L63.973 52.5843C62.9196 53.2585 61.8662 53.9162 60.8128 54.5836C60.7963 54.5394 60.7949 54.4912 60.759 54.4553L59.1541 52.8504C59.1486 52.8435 59.1514 52.8339 59.1445 52.827C59.1376 52.8201 59.1279 52.8228 59.121 52.8173L58.2427 51.939C58.1076 51.8039 57.8898 51.8039 57.7547 51.939C57.6195 52.0742 57.6195 52.292 57.7547 52.4271L58.4054 53.0779L55.8616 55.6204L54.9019 54.6594C54.7668 54.5243 54.549 54.5243 54.4139 54.6594C54.2787 54.7945 54.2787 55.0124 54.4139 55.1475L55.3735 56.1085L53.3246 58.156C53.1895 58.2911 53.1895 58.509 53.3246 58.6441C53.4584 58.7778 53.6762 58.7792 53.8127 58.6441L55.8616 56.5966L56.5482 57.2818C55.39 58.0057 54.2305 58.7172 53.0723 59.4341L51.1847 57.5466L52.496 56.2353C52.6311 56.1002 52.6311 55.8824 52.496 55.7473C52.3608 55.6121 52.143 55.6121 52.0079 55.7473L50.6966 57.0585L50.5519 56.9137C50.4167 56.7786 50.1989 56.7786 50.0638 56.9137C49.9287 57.0488 49.9287 57.2667 50.0638 57.4018L50.2085 57.5466L48.3651 59.39L47.1049 58.1298L48.8973 56.3374C49.2172 56.0175 48.7332 55.5266 48.4092 55.8493L44.5583 59.7002L43.5587 58.7006C43.4235 58.5655 43.2057 58.5655 43.0706 58.7006C42.9354 58.8357 42.9354 59.0536 43.0706 59.1887L44.0702 60.1883L42.6831 61.5768C42.6749 61.585 42.6776 61.5988 42.6693 61.6085C33.0992 56.6669 23.4339 51.6633 14.5862 45.598L13.5576 7.94468C13.4542 4.13371 14.2194 2.646 19.2037 2.76733ZM64.5204 52.2382C64.5038 52.19 64.5011 52.1362 64.4625 52.0976L63.4229 51.0566L65.3435 49.136L66.9002 50.6926C66.1074 51.2069 65.3145 51.7295 64.5204 52.2382ZM67.4434 50.341C67.4269 50.2955 67.4255 50.2445 67.3882 50.2073L67.1897 50.0087L70.3926 46.8058L71.3343 47.7461C71.3495 47.7613 71.3716 47.7572 71.3881 47.7682C70.0741 48.6313 68.7588 49.4889 67.4434 50.341ZM57.148 56.9041L56.3524 56.1085L58.8963 53.566L60.264 54.9338C59.2244 55.5901 58.1876 56.2533 57.148 56.9041ZM47.6357 62.7722L45.0505 60.187L46.6209 58.6151L47.8812 59.8753L46.8043 60.9522C46.6692 61.0873 46.6692 61.3051 46.8043 61.4403C46.9381 61.574 47.1559 61.5754 47.2924 61.4403L48.3692 60.3634L49.1758 61.17C49.3096 61.3038 49.5274 61.3051 49.6639 61.17C49.799 61.0349 49.799 60.8171 49.6639 60.6819L48.8573 59.8753L50.7008 58.0319L52.4725 59.8036C50.8593 60.7978 49.2475 61.7932 47.6357 62.7722ZM47.0318 63.1431C46.8195 63.2713 46.6085 63.405 46.3962 63.5333C45.3649 62.9955 44.3349 62.4647 43.305 61.9325L44.5638 60.6737L47.0318 63.1431ZM12.9675 36.7131L13.1853 44.6273C11.7528 43.6167 10.3436 42.5757 8.96348 41.5002L12.9675 36.7131ZM8.02866 78.551L8.62568 43.0004C19.8311 51.6274 32.7586 58.0057 45.0119 64.3688C33.0261 71.5813 21.0403 78.3539 9.13583 84.6384C8.05348 83.0459 7.99144 80.8495 8.02866 78.551ZM10.1134 85.6807C22.1695 79.308 34.3084 72.4361 46.4458 65.1147C56.6406 70.4341 66.8781 76.1037 75.8554 83.3671L74.063 85.1596L72.4512 83.5478L72.7821 83.2168C72.9172 83.0817 72.9172 82.8639 72.7821 82.7288C72.6469 82.5936 72.4291 82.5936 72.294 82.7288L71.9631 83.0597L70.5471 81.6436C70.4119 81.5085 70.1941 81.5085 70.059 81.6436C69.9238 81.7788 69.9238 81.9966 70.059 82.1317L71.475 83.5478L68.9835 86.0392L67.8115 84.8672C67.7729 84.8286 67.7205 84.8259 67.6723 84.8093L68.1369 84.3447C68.272 84.2096 68.272 83.9917 68.1369 83.8566C68.0018 83.7215 67.784 83.7215 67.6488 83.8566L64.8334 86.6721L63.9054 85.7442C63.7703 85.609 63.5525 85.609 63.4173 85.7442C63.2822 85.8793 63.2822 86.0971 63.4173 86.2323L64.3453 87.1602L64.0033 87.5035C63.8682 87.6386 63.8682 87.8565 64.0033 87.9916C64.1384 88.1267 64.3563 88.1253 64.49 87.9916L64.8334 87.6483L65.3242 88.1391L62.2702 88.0812C62.2743 87.9888 62.2454 87.8951 62.1751 87.8248L61.6097 87.2594L64.4542 84.4136C64.5893 84.2785 64.5893 84.0607 64.4542 83.9255C64.3191 83.7904 64.1012 83.7904 63.9661 83.9255L61.1217 86.7714L60.5839 86.2336L61.7325 85.0851C61.8676 84.95 61.8676 84.7321 61.7325 84.597C61.5973 84.4619 61.3795 84.4619 61.2457 84.597L58.7295 87.1119L57.7519 86.1344C57.6168 85.9992 57.3989 85.9992 57.2638 86.1344C57.1287 86.2695 57.1287 86.4873 57.2638 86.6225L58.24 87.5986L58.047 87.7958C57.9904 87.8523 57.9711 87.9268 57.9629 87.9999L55.8271 87.9599C55.8492 87.8496 55.8381 87.7365 55.7527 87.651L55.5569 87.4552L58.32 84.6921C58.4551 84.557 58.4551 84.3392 58.32 84.2041C58.1848 84.0689 57.967 84.0689 57.8319 84.2041L55.0688 86.9671L54.531 86.4294C54.3959 86.2943 54.1781 86.2943 54.043 86.4294C53.9078 86.5645 53.9078 86.7824 54.043 86.9175L54.5807 87.4552L54.1091 87.9268L16.8019 87.2208C14.3297 87.174 11.8038 87.0058 10.1134 85.6807ZM66.9002 88.1681L65.8743 88.1488C65.9791 88.0136 65.9833 87.8234 65.8592 87.6979L65.3214 87.1602L67.2669 85.2147C67.2835 85.263 67.2862 85.3154 67.3248 85.354L68.4968 86.5259L66.9346 88.0881C66.9112 88.1115 66.9153 88.1432 66.9002 88.1681ZM59.3196 87.7007L59.2176 87.5986L60.0972 86.719L60.6349 87.2567L60.0007 87.8909C59.9607 87.9309 59.958 87.9847 59.9414 88.0343L59.3871 88.0233C59.4161 87.9116 59.4092 87.7917 59.3196 87.7007ZM61.123 87.7462L61.4415 88.0647L60.8156 88.0523L61.123 87.7462ZM55.0715 87.9447H55.066L55.0688 87.9419L55.0715 87.9447ZM67.8115 88.186L68.9835 87.014L70.201 88.2301C70.1458 88.2287 70.0934 88.2287 70.0383 88.2287L67.8115 88.186ZM70.9 88.2384C70.9386 88.1184 70.9359 87.9902 70.8407 87.8951L69.4716 86.5259L71.9631 84.0345L73.5762 85.6463L71.9148 87.3077C71.7797 87.4428 71.7797 87.6607 71.9148 87.7944C72.0486 87.9282 72.2664 87.9295 72.4029 87.7944L74.0643 86.133L74.9068 86.9754C75.0405 87.1092 75.2584 87.1105 75.3949 86.9754C75.53 86.8403 75.53 86.6225 75.3949 86.4873L74.5524 85.6449L76.3862 83.8111C76.957 84.2799 77.521 84.7597 78.0807 85.2437L76.4097 86.9147C76.2745 87.0499 76.2745 87.2677 76.4097 87.4028C76.542 87.5352 76.7612 87.5393 76.8978 87.4028L78.6102 85.6904C78.8239 85.8779 79.0487 86.0503 79.2596 86.2392C76.9626 88.1295 73.8741 88.2673 70.9 88.2384ZM80.2358 85.2699C80.0221 85.0796 79.7973 84.9045 79.5823 84.7156L80.1682 84.1296C80.3034 83.9945 80.3034 83.7766 80.1682 83.6415C80.0317 83.505 79.8139 83.5078 79.6801 83.6415L79.0542 84.2689C78.4696 83.7642 77.885 83.2623 77.2893 82.7729C77.2935 82.6791 77.2659 82.5854 77.1942 82.5137C77.1115 82.4309 76.9998 82.4172 76.8922 82.4365C67.9949 75.202 57.9008 69.5544 47.8232 64.2792C59.5416 57.1798 71.2558 49.6613 82.8969 41.7705L82.8982 68.1522C82.8169 68.1577 82.7355 68.1839 82.6735 68.246L81.5305 69.389L81.1885 69.047C81.0548 68.9133 80.8369 68.9105 80.7004 69.047C80.5653 69.1822 80.5653 69.4 80.7004 69.5351L81.0424 69.8771L80.5047 70.4148C80.3695 70.5499 80.3695 70.7678 80.5047 70.9029C80.6384 71.0366 80.8562 71.038 80.9914 70.9029L81.5291 70.3665L82.8969 71.7357V73.7887C82.8969 74.143 82.89 74.4946 82.8844 74.8476L81.6256 73.5901L82.759 72.4554C82.8941 72.3203 82.8941 72.1024 82.759 71.9673C82.6239 71.8322 82.406 71.8322 82.2723 71.9673L81.1375 73.1021L80.8935 72.858C80.757 72.7215 80.5391 72.7243 80.4054 72.858C80.2703 72.9931 80.2703 73.211 80.4054 73.3461L80.6494 73.5901L80.4054 73.8342C80.2703 73.9693 80.2703 74.1872 80.4054 74.3223C80.5391 74.456 80.757 74.4574 80.8935 74.3223L81.1375 74.0782L82.457 75.3977L81.1858 76.669L80.404 75.8872C80.2703 75.7535 80.0524 75.7507 79.9159 75.8872C79.7808 76.0223 79.7808 76.2402 79.9159 76.3753L80.6977 77.1571L80.2082 77.6465C80.0731 77.7817 80.0731 77.9995 80.2082 78.1333C80.342 78.267 80.5598 78.2684 80.6963 78.1333L81.1858 77.6438L82.406 78.8654C82.4625 78.9219 82.537 78.9412 82.6101 78.9495C82.2902 81.3982 81.616 83.6222 80.2358 85.2699ZM82.7052 78.1788L81.678 77.1516L82.8555 75.9741C82.8279 76.72 82.7797 77.4576 82.7052 78.1788Z" fill="#3E517A"/>
<path d="M52.4214 43.665C52.7427 43.4609 52.8392 43.0349 52.6337 42.7136C52.4311 42.391 52.0023 42.2958 51.6838 42.5013C43.2621 47.8372 32.389 40.502 34.1994 30.692C35.6581 22.8218 44.7485 18.6276 51.7527 22.9914C55.594 25.3891 58.1034 30.1666 57.8028 35.4695C57.6057 38.893 55.6188 39.6472 53.7961 38.318C52.8061 37.5969 52.4945 36.8717 51.7982 35.9948C52.4214 34.8504 52.9123 33.5723 53.3755 32.2514C53.6334 31.5179 52.6572 30.9843 52.1801 31.6006C51.175 26.0124 43.2304 24.7535 39.9062 29.5296C35.7519 35.4957 42.7258 43.0624 48.8834 39.2666C49.741 38.7372 50.4277 38.0478 51.0082 37.2564C54.5709 42.3524 58.8893 40.6482 59.1802 35.5481C59.5084 29.8054 56.7963 24.5136 52.4835 21.8236C44.6299 16.9193 34.4668 21.6774 32.8454 30.4424C30.8034 41.4796 43.0539 49.6103 52.4214 43.665ZM41.4573 37.1268C39.8179 35.3261 39.6332 32.3341 41.0354 30.3183C43.3738 26.9568 48.8117 27.2147 50.4925 30.8105C51.055 32.0142 51.0206 33.4316 50.3987 34.5098C50.2278 34.809 50.3036 35.1813 50.5628 35.3909C47.8687 40.2676 43.2566 39.0984 41.4573 37.1268Z" fill="#3E517A"/>
<path d="M72.7421 45.3485L72.5201 45.5704C72.385 45.7056 72.385 45.9234 72.5201 46.0585C72.6552 46.1937 72.8745 46.1923 73.0082 46.0585L73.2826 45.7842C73.3956 45.8076 73.4701 45.831 73.5914 45.7097C73.6769 45.6242 73.6879 45.5112 73.6659 45.4009L75.8664 43.2003C76.0015 43.0652 76.0015 42.8473 75.8664 42.7122C75.8595 42.7053 75.8499 42.7081 75.843 42.7026C75.8361 42.6254 75.814 42.5481 75.7547 42.4889L74.3015 41.0356L75.8444 39.4928C75.9795 39.3576 75.9795 39.1398 75.8444 39.0047C75.7092 38.8695 75.4914 38.8695 75.3563 39.0047L73.8134 40.5475L73.7858 40.52C73.6507 40.3848 73.4329 40.3848 73.2977 40.52C73.1626 40.6551 73.1626 40.8729 73.2977 41.008L73.346 41.0563C73.2633 41.1887 73.2591 41.3583 73.375 41.4741C73.5128 41.6119 73.6507 41.5913 73.7927 41.503L75.1908 42.9011L73.2316 44.8604L71.9217 43.5505C71.7866 43.4154 71.5687 43.4154 71.4336 43.5505C71.2985 43.6856 71.2985 43.9035 71.4336 44.0386L72.7421 45.3485Z" fill="#3E517A"/>
<path d="M17.2624 17.0336H19.7677V20.4158H18.484C18.2938 20.4158 18.1393 20.5702 18.1393 20.7605C18.1393 20.9507 18.2938 21.1052 18.484 21.1052H19.7677V24.3867H18.382C18.1917 24.3867 18.0373 24.5411 18.0373 24.7314C18.0373 24.9217 18.1917 25.0761 18.382 25.0761H19.7677V28.8664H19.3995C19.2093 28.8664 19.0548 29.0208 19.0548 29.2111C19.0548 29.4013 19.2093 29.5558 19.3995 29.5558H19.7677V32.021H19.0948C18.9046 32.021 18.7501 32.1755 18.7501 32.3657C18.7501 32.556 18.9046 32.7104 19.0948 32.7104H19.7677V37.2604C19.7677 37.4507 19.9221 37.6051 20.1124 37.6051C20.3026 37.6051 20.4571 37.4507 20.4571 37.2604V32.7104H23.5759C23.7662 32.7104 23.9206 32.556 23.9206 32.3657C23.9206 32.1755 23.7662 32.021 23.5759 32.021H20.4571V29.5558H22.9871C23.1774 29.5558 23.3318 29.4013 23.3318 29.2111C23.3318 29.0208 23.1774 28.8664 22.9871 28.8664H20.4571V25.0761H22.4742C22.6645 25.0761 22.8189 24.9217 22.8189 24.7314C22.8189 24.5411 22.6645 24.3867 22.4742 24.3867H20.4571V21.1052H22.084C22.2743 21.1052 22.4287 20.9507 22.4287 20.7605C22.4287 20.5702 22.2743 20.4158 22.084 20.4158H20.4571V17.0336H22.7679C22.9582 17.0336 23.1126 16.8792 23.1126 16.6889C23.1126 16.4986 22.9582 16.3442 22.7679 16.3442H20.4571V13.2268C20.4571 13.0365 20.3026 12.8821 20.1124 12.8821C19.9221 12.8821 19.7677 13.0365 19.7677 13.2268V16.3442H17.2624C17.0721 16.3442 16.9177 16.4986 16.9177 16.6889C16.9177 16.8792 17.0721 17.0336 17.2624 17.0336Z" fill="#3E517A"/>
<path d="M15.492 60.3289H12.6697V57.6471H14.3738C14.5641 57.6471 14.7185 57.4927 14.7185 57.3024C14.7185 57.1122 14.5641 56.9577 14.3738 56.9577H12.6697V54.429C12.6834 54.2788 12.6945 54.1257 12.7041 53.9754C12.7152 53.8141 12.7276 53.6542 12.7413 53.4915C12.7593 53.3012 12.62 53.133 12.4297 53.1164C12.2381 53.0861 12.0726 53.2378 12.0533 53.428C12.0368 53.5935 12.0258 53.7603 12.0147 53.9272C12.0051 54.0733 11.9954 54.2195 11.9816 54.3973V56.9564H9.98239C9.79212 56.9564 9.6377 57.1108 9.6377 57.301C9.6377 57.4913 9.79212 57.6457 9.98239 57.6457H11.9816V60.3275H11.7624C11.5721 60.3275 11.4177 60.4819 11.4177 60.6722C11.4177 60.8625 11.5721 61.0169 11.7624 61.0169H11.9816V63.9813H11.5763C11.386 63.9813 11.2316 64.1357 11.2316 64.326C11.2316 64.5162 11.386 64.6707 11.5763 64.6707H11.9816V68.1962H10.6387C10.4484 68.1962 10.294 68.3507 10.294 68.5409C10.294 68.7312 10.4484 68.8856 10.6387 68.8856H11.9816V71.5688H11.1075C10.9172 71.5688 10.7628 71.7232 10.7628 71.9134C10.7628 72.1037 10.9172 72.2581 11.1075 72.2581H11.9816V73.7955C11.9816 73.9858 12.1361 74.1402 12.3263 74.1402C12.5166 74.1402 12.671 73.9858 12.671 73.7955V72.2581H14.2677C14.4579 72.2581 14.6124 72.1037 14.6124 71.9134C14.6124 71.7232 14.4579 71.5688 14.2677 71.5688H12.6697V68.8856H14.3187C14.509 68.8856 14.6634 68.7312 14.6634 68.5409C14.6634 68.3507 14.509 68.1962 14.3187 68.1962H12.6697V64.6707H13.9464C14.1367 64.6707 14.2911 64.5162 14.2911 64.326C14.2911 64.1357 14.1367 63.9813 13.9464 63.9813H12.6697V61.0169H15.4934C15.6837 61.0169 15.8381 60.8625 15.8381 60.6722C15.8381 60.4819 15.6823 60.3289 15.492 60.3289Z" fill="#3E517A"/>
<path d="M79.5795 80.5201L80.8066 79.2929C80.9417 79.1578 80.9417 78.94 80.8066 78.8062C80.6715 78.6711 80.4536 78.6711 80.3199 78.8062L79.0927 80.0334L76.9432 77.8838L78.5164 76.3106C78.6515 76.1755 78.6515 75.9577 78.5164 75.8225C78.3813 75.6874 78.1634 75.6874 78.0283 75.8225L76.4551 77.3957L75.8209 76.7615C75.6858 76.6264 75.4679 76.6264 75.3328 76.7615C75.1977 76.8966 75.1977 77.1145 75.3328 77.2496L75.967 77.8838L75.3328 78.5194C75.1977 78.6546 75.1977 78.8724 75.3328 79.0062C75.4665 79.1399 75.6844 79.1413 75.8209 79.0062L76.4551 78.3719L78.6046 80.5214L77.3844 81.743C77.2493 81.8782 77.2493 82.096 77.3844 82.2311C77.5182 82.3649 77.736 82.3663 77.8725 82.2311L79.0941 81.0095L80.4371 82.3525C80.5708 82.4862 80.7887 82.4876 80.9238 82.3525C81.0589 82.2174 81.0589 81.9995 80.9238 81.8658L79.5795 80.5201Z" fill="#3E517A"/>
</svg>
