<svg width="165" height="165" viewBox="0 0 165 165" fill="none" xmlns="http://www.w3.org/2000/svg">
<path d="M34.7119 94.875C32.0048 93.5679 28.9833 92.8125 25.7812 92.8125C14.4091 92.8125 5.15625 102.065 5.15625 113.438C5.15625 124.81 14.4091 134.062 25.7812 134.062C32.9175 134.062 39.2159 130.417 42.9206 124.892L62.4035 134.645C62.0684 136.117 61.875 137.646 61.875 139.219C61.875 150.591 71.1279 159.844 82.5 159.844C93.8721 159.844 103.125 150.591 103.125 139.219C103.125 134.944 101.818 130.971 99.5801 127.674L126.957 99.049C130.391 101.596 134.625 103.125 139.219 103.125C150.591 103.125 159.844 93.8721 159.844 82.5C159.844 71.1279 150.591 61.875 139.219 61.875C134.46 61.875 130.087 63.5095 126.591 66.2269L98.7731 38.4089C101.49 34.913 103.125 30.5405 103.125 25.7812C103.125 14.4091 93.8721 5.15625 82.5 5.15625C71.1279 5.15625 61.875 14.4091 61.875 25.7812C61.875 27.3487 62.0658 28.8724 62.4009 30.342L44.1169 37.0038C40.688 30.3497 33.7657 25.7812 25.7812 25.7812C14.4091 25.7812 5.15625 35.0341 5.15625 46.4062C5.15625 57.7784 14.4091 67.0312 25.7812 67.0312C28.7152 67.0312 31.5021 66.4073 34.0312 65.2962L43.5213 81.2677L34.7119 94.875ZM25.7812 128.906C17.2502 128.906 10.3125 121.969 10.3125 113.438C10.3125 104.906 17.2502 97.9688 25.7812 97.9688C34.3123 97.9688 41.25 104.906 41.25 113.438C41.25 121.969 34.3123 128.906 25.7812 128.906ZM45.2177 120.272C45.9731 118.13 46.4062 115.835 46.4062 113.438C46.4062 107.113 43.5394 101.452 39.0457 97.6671L46.4604 86.2151L68.8153 123.833C66.9333 125.508 65.358 127.514 64.1902 129.77L45.2177 120.272ZM82.5 46.4062C87.2592 46.4062 91.6317 44.7717 95.1277 42.0544L122.948 69.8749C121.28 72.0199 120.032 74.4975 119.313 77.1942L103.117 74.9667C103.115 74.8997 103.125 74.8327 103.125 74.7656C103.125 63.3935 93.8721 54.1406 82.5 54.1406C75.3637 54.1406 69.0628 57.7861 65.3606 63.311L62.2849 61.7745L73.572 44.3438C76.2764 45.6509 79.298 46.4062 82.5 46.4062ZM85.0781 118.772V95.2102C93.457 94.1583 100.274 88.0687 102.408 80.0714L118.604 82.2989C118.604 82.3659 118.594 82.433 118.594 82.5C118.594 87.4242 120.331 91.9437 123.221 95.4938L96.1512 123.799C93.1167 121.11 89.2985 119.303 85.0781 118.772ZM82.5 59.2969C91.031 59.2969 97.9688 66.2346 97.9688 74.7656C97.9688 83.2966 91.031 90.2344 82.5 90.2344C73.969 90.2344 67.0312 83.2966 67.0312 74.7656C67.0312 66.2346 73.969 59.2969 82.5 59.2969ZM63.0635 67.931C62.3081 70.0734 61.875 72.368 61.875 74.7656C61.875 85.2637 69.7641 93.9366 79.9219 95.2127V118.774C77.4778 119.081 75.1704 119.813 73.0692 120.899L49.5877 81.3837L59.4645 66.1315L63.0635 67.931ZM82.5 154.688C73.969 154.688 67.0312 147.75 67.0312 139.219C67.0312 130.688 73.969 123.75 82.5 123.75C91.031 123.75 97.9688 130.688 97.9688 139.219C97.9688 147.75 91.031 154.688 82.5 154.688ZM139.219 67.0312C147.75 67.0312 154.688 73.969 154.688 82.5C154.688 91.031 147.75 97.9688 139.219 97.9688C130.688 97.9688 123.75 91.031 123.75 82.5C123.75 73.969 130.688 67.0312 139.219 67.0312ZM82.5 10.3125C91.031 10.3125 97.9688 17.2502 97.9688 25.7812C97.9688 34.3123 91.031 41.25 82.5 41.25C73.969 41.25 67.0312 34.3123 67.0312 25.7812C67.0312 17.2502 73.969 10.3125 82.5 10.3125ZM64.1644 35.1837C65.4251 37.6303 67.1498 39.7934 69.2355 41.5516L57.6443 59.4541L45.2177 53.2409C45.9731 51.0984 46.4062 48.8039 46.4062 46.4062C46.4062 44.8387 46.2155 43.3151 45.8803 41.8456L64.1644 35.1837ZM10.3125 46.4062C10.3125 37.8752 17.2502 30.9375 25.7812 30.9375C34.3123 30.9375 41.25 37.8752 41.25 46.4062C41.25 54.9373 34.3123 61.875 25.7812 61.875C17.2502 61.875 10.3125 54.9373 10.3125 46.4062ZM38.4527 62.6459C40.1801 61.2949 41.696 59.6862 42.9206 57.8609L54.8238 63.8112L46.6486 76.4362L38.4527 62.6459Z" fill="#3E517A"/>
</svg>
