<svg width="164" height="164" viewBox="0 0 164 164" fill="none" xmlns="http://www.w3.org/2000/svg">
<g clip-path="url(#clip0_0_363)">
<path d="M27.3016 34.127C36.707 34.127 44.3651 26.4757 44.3651 17.0635C44.3651 7.65127 36.707 0 27.3016 0C17.8962 0 10.2381 7.65127 10.2381 17.0635C10.2381 26.4757 17.8962 34.127 27.3016 34.127ZM27.3016 6.8254C32.9462 6.8254 37.5397 11.4189 37.5397 17.0635C37.5397 22.7081 32.9462 27.3016 27.3016 27.3016C21.657 27.3016 17.0635 22.7081 17.0635 17.0635C17.0635 11.4189 21.657 6.8254 27.3016 6.8254ZM30.7143 40.9524H23.8889C10.7159 40.9524 0 51.6683 0 64.8413V92.1429C0 101.637 5.61048 109.787 13.6508 113.636V160.397C13.6508 162.281 15.1797 163.81 17.0635 163.81C18.9473 163.81 20.4762 162.281 20.4762 160.397V115.684C21.6024 115.847 22.7217 116.032 23.8889 116.032H30.7143C31.8814 116.032 33.0008 115.847 34.127 115.684V160.397C34.127 162.281 35.6559 163.81 37.5397 163.81C39.4235 163.81 40.9524 162.281 40.9524 160.397V113.636C48.9927 109.787 54.6032 101.637 54.6032 92.1429V64.8413C54.6032 51.6683 43.8873 40.9524 30.7143 40.9524ZM47.7778 92.1429C47.7778 101.555 40.1197 109.206 30.7143 109.206H23.8889C14.4835 109.206 6.8254 101.555 6.8254 92.1429V64.8413C6.8254 55.4291 14.4835 47.7778 23.8889 47.7778H30.7143C40.1197 47.7778 47.7778 55.4291 47.7778 64.8413V92.1429ZM88.7302 30.7143V78.4921H98.9682C100.852 78.4921 102.381 80.021 102.381 81.9048C102.381 83.7886 100.852 85.3175 98.9682 85.3175H88.7302V133.095C88.7302 136.863 91.7948 139.921 95.5555 139.921H98.9682C100.852 139.921 102.381 141.45 102.381 143.333C102.381 145.217 100.852 146.746 98.9682 146.746H95.5555C88.0271 146.746 81.9048 140.624 81.9048 133.095V85.3175H71.6667C69.7829 85.3175 68.254 83.7886 68.254 81.9048C68.254 80.021 69.7829 78.4921 71.6667 78.4921H81.9048V30.7143C81.9048 23.1859 88.0271 17.0635 95.5555 17.0635H98.9682C100.852 17.0635 102.381 18.5924 102.381 20.4762C102.381 22.36 100.852 23.8889 98.9682 23.8889H95.5555C91.7948 23.8889 88.7302 26.9467 88.7302 30.7143ZM143.6 23.1654L157.906 7.91064C159.196 6.53191 161.352 6.45683 162.731 7.76048C164.11 9.04365 164.178 11.2073 162.888 12.5792L148.507 27.9159C146.644 29.7792 144.227 30.7006 141.818 30.7006C139.436 30.7006 137.074 29.7997 135.266 27.9978L130.563 22.7559C129.3 21.3498 129.423 19.1998 130.822 17.9371C132.222 16.6744 134.378 16.7905 135.641 18.1965L140.214 23.2951C141.067 24.1278 142.637 24.1278 143.606 23.1586L143.6 23.1654ZM116.032 30.7143V17.0635C116.032 7.65127 123.69 0 133.095 0H146.746C148.63 0 150.159 1.52889 150.159 3.4127C150.159 5.29651 148.63 6.8254 146.746 6.8254H133.095C127.451 6.8254 122.857 11.4189 122.857 17.0635V30.7143C122.857 36.3589 127.451 40.9524 133.095 40.9524H146.746C152.391 40.9524 156.984 36.3589 156.984 30.7143C156.984 28.8305 158.513 27.3016 160.397 27.3016C162.281 27.3016 163.81 28.8305 163.81 30.7143C163.81 40.1265 156.151 47.7778 146.746 47.7778H133.095C123.69 47.7778 116.032 40.1265 116.032 30.7143ZM143.6 139.197L157.906 123.942C159.196 122.557 161.352 122.489 162.731 123.792C164.11 125.075 164.178 127.239 162.888 128.611L148.507 143.948C146.644 145.811 144.227 146.732 141.818 146.732C139.436 146.732 137.074 145.831 135.266 144.03L130.563 138.788C129.3 137.382 129.423 135.232 130.822 133.969C132.222 132.706 134.378 132.822 135.641 134.228L140.214 139.327C141.067 140.16 142.637 140.16 143.606 139.19L143.6 139.197ZM163.81 146.746C163.81 156.158 156.151 163.81 146.746 163.81H133.095C123.69 163.81 116.032 156.158 116.032 146.746V133.095C116.032 123.683 123.69 116.032 133.095 116.032H146.746C148.63 116.032 150.159 117.561 150.159 119.444C150.159 121.328 148.63 122.857 146.746 122.857H133.095C127.451 122.857 122.857 127.451 122.857 133.095V146.746C122.857 152.391 127.451 156.984 133.095 156.984H146.746C152.391 156.984 156.984 152.391 156.984 146.746C156.984 144.862 158.513 143.333 160.397 143.333C162.281 143.333 163.81 144.862 163.81 146.746ZM162.731 65.7695C164.11 67.0527 164.178 69.2164 162.888 70.5883L148.507 85.9249C146.644 87.7883 144.227 88.7097 141.818 88.7097C139.436 88.7097 137.074 87.8087 135.266 86.0068L130.563 80.7649C129.3 79.3589 129.423 77.2089 130.822 75.9462C132.222 74.6835 134.378 74.7995 135.641 76.2056L140.214 81.3041C141.067 82.1368 142.637 82.1368 143.606 81.1676L157.912 65.9129C159.202 64.5273 161.359 64.4659 162.738 65.7627L162.731 65.7695ZM163.81 88.7302C163.81 98.1424 156.151 105.794 146.746 105.794H133.095C123.69 105.794 116.032 98.1424 116.032 88.7302V75.0794C116.032 65.6671 123.69 58.0159 133.095 58.0159H146.746C148.63 58.0159 150.159 59.5448 150.159 61.4286C150.159 63.3124 148.63 64.8413 146.746 64.8413H133.095C127.451 64.8413 122.857 69.4348 122.857 75.0794V88.7302C122.857 94.3748 127.451 98.9683 133.095 98.9683H146.746C152.391 98.9683 156.984 94.3748 156.984 88.7302C156.984 86.8464 158.513 85.3175 160.397 85.3175C162.281 85.3175 163.81 86.8464 163.81 88.7302Z" fill="#3E517A"/>
</g>
<defs>
<clipPath id="clip0_0_363">
<rect width="163.81" height="163.81" fill="white"/>
</clipPath>
</defs>
</svg>
