<?xml version="1.0" encoding="utf-8"?>
<!-- Generator: Adobe Illustrator 27.5.0, SVG Export Plug-In . SVG Version: 6.00 Build 0)  -->
<svg version="1.1" id="Layer_1" xmlns="http://www.w3.org/2000/svg" xmlns:xlink="http://www.w3.org/1999/xlink" x="0px" y="0px"
	 viewBox="0 0 1000 1000" style="enable-background:new 0 0 1000 1000;" xml:space="preserve">
<style type="text/css">
	.st0{fill:#66BC46;}
	.st1{fill-rule:evenodd;clip-rule:evenodd;fill:#66BC46;}
</style>
<g id="Layer_x0020_1">
	<g id="_255393456">
		<g>
			<path id="_255394584" class="st0" d="M270,543h155.8c8.6,0,16.3,3.5,22,9.1c5.6,5.6,9.1,13.4,9.1,22V730c0,8.6-3.5,16.3-9.1,22
				c-5.6,5.6-13.4,9.1-22,9.1H270c-8.6,0-16.3-3.5-22-9.1c-5.6-5.6-9.1-13.4-9.1-22V574.1c0-8.6,3.5-16.3,9.1-22
				C253.7,546.5,261.5,543,270,543z M425.9,567.6H270c-1.8,0-3.4,0.7-4.6,1.9c-1.2,1.2-1.9,2.8-1.9,4.6V730c0,1.8,0.7,3.4,1.9,4.6
				c1.2,1.2,2.8,1.9,4.6,1.9h155.8c1.8,0,3.4-0.7,4.6-1.9c1.2-1.2,1.9-2.8,1.9-4.6V574.1c0-1.8-0.7-3.4-1.9-4.6
				C429.3,568.3,427.6,567.6,425.9,567.6L425.9,567.6z"/>
			<path id="_255393768" class="st0" d="M321.9,517.6c0,4.7,3.8,8.5,8.5,8.5s8.5-3.8,8.5-8.5v-45.1c0-4.7-3.8-8.5-8.5-8.5
				s-8.5,3.8-8.5,8.5V517.6z M321.9,441.3c0,4.7,3.8,8.5,8.5,8.5s8.5-3.8,8.5-8.5v-45.1c0-4.7-3.8-8.5-8.5-8.5s-8.5,3.8-8.5,8.5
				V441.3z M321.9,364.9c0,4.7,3.8,8.5,8.5,8.5s8.5-3.8,8.5-8.5v-45.1c0-4.7-3.8-8.5-8.5-8.5s-8.5,3.8-8.5,8.5V364.9z M321.9,288.5
				c0,4.7,3.8,8.5,8.5,8.5s8.5-3.8,8.5-8.5c0-9,3.7-17.1,9.6-23c5.9-5.9,14.1-9.6,23-9.6c4.7,0,8.5-3.8,8.5-8.5
				c0-4.7-3.8-8.5-8.5-8.5c-13.7,0-26.1,5.6-35,14.6C327.5,262.5,321.9,274.9,321.9,288.5L321.9,288.5z M402.7,238.9
				c-4.7,0-8.5,3.8-8.5,8.5c0,4.7,3.8,8.5,8.5,8.5h46c4.7,0,8.5-3.8,8.5-8.5c0-4.7-3.8-8.5-8.5-8.5H402.7z M479.9,238.9
				c-4.7,0-8.5,3.8-8.5,8.5c0,4.7,3.8,8.5,8.5,8.5h46c4.7,0,8.5-3.8,8.5-8.5c0-4.7-3.8-8.5-8.5-8.5H479.9z M557.1,238.9
				c-4.7,0-8.5,3.8-8.5,8.5c0,4.7,3.8,8.5,8.5,8.5h46c4.7,0,8.5-3.8,8.5-8.5c0-4.7-3.8-8.5-8.5-8.5H557.1z M634.3,238.9
				c-4.7,0-8.5,3.8-8.5,8.5c0,4.7,3.8,8.5,8.5,8.5h46c4.7,0,8.5-3.8,8.5-8.5c0-4.7-3.8-8.5-8.5-8.5H634.3z M711.5,238.9
				c-4.7,0-8.5,3.8-8.5,8.5c0,4.7,3.8,8.5,8.5,8.5c9,0,17.1,3.7,23,9.6c5.9,5.9,9.6,14.1,9.6,23c0,4.7,3.8,8.5,8.5,8.5
				c4.7,0,8.5-3.8,8.5-8.5c0-13.7-5.6-26.1-14.6-35S725.1,238.9,711.5,238.9z M761.1,319.8c0-4.7-3.8-8.5-8.5-8.5
				c-4.7,0-8.5,3.8-8.5,8.5v46c0,4.7,3.8,8.5,8.5,8.5c4.7,0,8.5-3.8,8.5-8.5V319.8z M761.1,396.9c0-4.7-3.8-8.5-8.5-8.5
				c-4.7,0-8.5,3.8-8.5,8.5v46c0,4.7,3.8,8.5,8.5,8.5c4.7,0,8.5-3.8,8.5-8.5V396.9z M761.1,474.1c0-4.7-3.8-8.5-8.5-8.5
				c-4.7,0-8.5,3.8-8.5,8.5v46c0,4.7,3.8,8.5,8.5,8.5c4.7,0,8.5-3.8,8.5-8.5V474.1z M761.1,551.3c0-4.7-3.8-8.5-8.5-8.5
				c-4.7,0-8.5,3.8-8.5,8.5v46c0,4.7,3.8,8.5,8.5,8.5c4.7,0,8.5-3.8,8.5-8.5V551.3z M761.1,628.5c0-4.7-3.8-8.5-8.5-8.5
				c-4.7,0-8.5,3.8-8.5,8.5c0,9-3.7,17.1-9.6,23c-5.9,5.9-14.1,9.6-23,9.6c-4.7,0-8.5,3.8-8.5,8.5c0,4.7,3.8,8.5,8.5,8.5
				c13.7,0,26.1-5.6,35-14.6C755.5,654.6,761.1,642.2,761.1,628.5L761.1,628.5z M680.2,678.1c4.7,0,8.5-3.8,8.5-8.5
				c0-4.7-3.8-8.5-8.5-8.5h-45.1c-4.7,0-8.5,3.8-8.5,8.5c0,4.7,3.8,8.5,8.5,8.5H680.2z M603.9,678.1c4.7,0,8.5-3.8,8.5-8.5
				c0-4.7-3.8-8.5-8.5-8.5h-45.1c-4.7,0-8.5,3.8-8.5,8.5c0,4.7,3.8,8.5,8.5,8.5H603.9z M527.5,678.1c4.7,0,8.5-3.8,8.5-8.5
				c0-4.7-3.8-8.5-8.5-8.5h-45.1c-4.7,0-8.5,3.8-8.5,8.5c0,4.7,3.8,8.5,8.5,8.5H527.5z"/>
		</g>
		<path id="_255393600" class="st1" d="M461.2,506.2l114.4-114.4c3.7-3.7,3.7-9.8,0-13.5l-18.4-18.4c-5.8-5.8-2.1-15.8,6.1-16.3
			l99.3-6.9c5.8-0.4,10.6,4.4,10.2,10.2l-6.9,99.3c-0.6,8.2-10.5,11.9-16.3,6.1l-18.4-18.4c-3.7-3.7-9.8-3.7-13.5,0L503.3,548.3
			c-3.7,3.7-9.8,3.7-13.5,0l-28.6-28.6C457.4,516,457.4,509.9,461.2,506.2z"/>
	</g>
</g>
</svg>
