<svg width="271" height="40" viewBox="0 0 271 40" fill="none" xmlns="http://www.w3.org/2000/svg">
<path d="M180.461 4.47912C180.374 4.53895 180.338 4.57029 180.495 4.47912C180.531 4.47912 180.573 4.47912 180.621 4.48197C180.66 4.48197 180.786 4.49051 180.892 4.49621C181.049 4.5247 181.398 4.57883 181.393 4.57598C182.623 4.8267 184.125 5.52755 185.378 6.51331C188.771 9.18282 191.246 13.0204 193.707 16.5332C196.174 20.0546 198.666 23.8865 202.132 26.482C205.868 29.2825 210.173 30.4079 214.746 29.3822C219.408 28.3395 222.675 25.0746 224.593 20.7612C226.137 17.2882 226.887 13.5162 228.201 9.95775C228.456 9.27114 228.722 8.58453 229.054 7.93211C229.242 7.56459 229.449 7.20276 229.673 6.85519C229.768 6.70989 229.952 6.44778 230.101 6.2455C230.131 6.26259 230.165 6.27684 230.196 6.29393C233.874 8.20276 235.915 12.7526 237.537 16.3737C240.869 23.8039 244.323 33.9663 254.011 33.6785C259.034 33.5304 263.803 31.009 266.759 26.8637C269.162 23.4934 270.376 19.2284 270.804 15.1287C271.243 10.9122 270.963 6.55604 269.657 2.51615C269.137 0.906468 266.399 1.26259 265.21 1.61587C264.198 1.91786 261.275 3.03752 261.801 4.66145C263.124 8.74977 263.412 13.1173 262.802 17.368C262.276 21.0233 261.16 25.1429 258.537 27.8495C257.885 28.5219 257.675 28.707 257.043 29.0575C257.244 28.9748 257.113 29.0375 256.965 29.1002C256.945 29.1116 256.926 29.123 256.903 29.1344C256.926 29.123 256.948 29.1116 256.965 29.1002C256.923 29.1173 256.881 29.1344 256.844 29.1486C256.842 29.1486 256.836 29.1486 256.833 29.1486C256.92 29.1116 256.987 29.0831 257.035 29.0632C257.13 29.009 256.959 29.0888 256.828 29.1486C256.808 29.1458 256.791 29.1429 256.775 29.1401C256.791 29.1429 256.805 29.1486 256.819 29.1515C256.803 29.16 256.786 29.1686 256.769 29.1743C256.769 29.1743 256.769 29.1743 256.772 29.1743C256.789 29.1657 256.805 29.16 256.822 29.1543C256.822 29.1543 256.828 29.1543 256.831 29.1543C256.822 29.1572 256.814 29.16 256.805 29.1629C256.797 29.1629 256.791 29.1686 256.783 29.1714C256.805 29.1657 256.825 29.1629 256.844 29.1629H256.847C256.828 29.1743 256.808 29.1828 256.789 29.1942C256.78 29.1942 256.772 29.1942 256.761 29.1971C256.741 29.1971 256.719 29.1971 256.696 29.1971C256.33 29.3224 256.475 29.2512 256.66 29.1971C256.305 29.2056 255.818 29.1486 255.306 28.9606C254.442 28.6415 253.662 28.1543 252.974 27.5418C249.897 24.7925 248.244 20.6956 246.611 16.9748C244.784 12.8125 243.031 8.3794 239.859 5.06031C236.413 1.45348 231.728 0.481966 227.161 2.5418C219.47 6.00903 219.92 15.8466 216.429 22.4022C216.046 23.123 215.601 23.8951 215.067 24.4934C214.947 24.6273 214.81 24.7526 214.676 24.8751C214.645 24.9036 214.449 25.0689 214.343 25.1629C214.281 25.2028 214.2 25.2597 214.133 25.3025C214.116 25.3025 214.099 25.3025 214.08 25.3025C214.111 25.2797 214.119 25.2711 214.072 25.3025C213.965 25.2996 213.856 25.2968 213.75 25.2911C213.727 25.2854 213.697 25.2797 213.66 25.2711C213.448 25.2256 213.235 25.1885 213.023 25.1401C212.544 25.029 212.525 25.0147 211.993 24.7897C208.26 23.2085 205.653 19.8267 203.295 16.6159C198.596 10.2142 193.981 1.20846 185.317 0.120143C180.559 -0.478147 175.575 1.16573 172.386 4.88083C169.953 7.71558 168.988 11.576 168.317 15.1885C167.635 18.8609 167.282 22.6216 166.278 26.2256C165.898 27.5959 165.515 28.707 164.812 29.7811C163.299 28.8381 162.105 27.2256 161.123 25.784C159.834 23.8922 158.897 21.8096 157.918 19.7412C156.223 16.1486 154.484 11.972 151.452 9.31388C147.785 6.10305 142.613 6.45348 138.572 8.80105C134.914 10.9264 132.441 14.6757 130.447 18.3452C128.237 22.4107 126.559 26.7526 123.975 30.6016C123.413 31.4364 122.823 32.2711 122.151 33.0204C121.956 33.2369 121.737 33.4563 121.508 33.6728C121.337 33.8352 121.156 33.9834 120.982 34.1458C120.94 34.1857 120.907 34.217 120.879 34.2455C120.728 34.1629 120.459 34.029 120.398 33.9976C120.275 33.9321 120.219 33.9093 120.199 33.9036C120.177 33.8808 120.132 33.8381 120.043 33.7612C119.847 33.5931 119.648 33.4307 119.464 33.2512C118.982 32.7897 118.555 32.2768 118.157 31.7384C117.344 30.633 116.765 29.5532 116.16 28.3082C114.807 25.519 113.727 22.6045 112.452 19.7811C111.316 17.2654 110.03 14.4905 107.979 12.6045C105.68 10.4877 102.688 9.9663 99.7035 10.5674C93.8328 11.7526 90.6359 16.7754 87.9873 21.7669C86.6699 24.2483 85.4449 26.7811 84.0492 29.2199C83.4255 30.3082 82.7682 31.3822 82.0326 32.3965C81.7166 32.8352 81.3726 33.2483 81.0342 33.6728C80.9586 33.7498 80.8859 33.8324 80.8076 33.9065C80.665 34.0432 80.5167 34.1771 80.3713 34.311C79.8986 34.0803 79.4791 33.8039 79.0707 33.4392C75.9774 30.6615 74.2824 26.4535 72.5316 22.7526C70.6549 18.784 68.4201 14.3253 64.5912 11.972C60.7426 9.60732 55.2104 11.0119 52.089 14.0375C47.1273 18.8466 46.6295 26.5361 42.4062 31.8666C42.3782 31.9008 42.2831 32.009 42.2384 32.0632C42.0845 32.2227 41.9223 32.3794 41.7573 32.5247C41.7657 32.5162 41.2762 32.9634 41.5224 32.727C41.5224 32.727 41.4664 32.764 41.4049 32.8039C41.4049 32.7954 41.3629 32.8068 41.307 32.8295C41.1644 32.8267 40.9965 32.8381 41.1867 32.8666C41.1867 32.8666 41.1839 32.8666 41.1811 32.8666C41.1252 32.8609 41.0693 32.8552 41.0385 32.8495C39.2457 32.5503 37.6207 31.7156 36.1663 30.5817C32.4129 27.6501 29.5376 23.7412 26.0807 20.482C22.4167 17.0318 17.9753 14.5048 12.8346 15.0689C8.11619 15.5902 4.08026 18.3709 1.94902 22.6757C0.122647 26.3823 -0.559797 30.6672 0.505822 34.7013C1.23022 37.4421 9.0951 35.3167 8.36511 32.556C7.37501 28.8068 8.01829 24.5418 10.13 21.2911C10.5747 20.6073 11.0194 20.0689 11.3886 19.7355C11.4249 19.7013 11.5732 19.576 11.6599 19.4991C11.699 19.4991 11.727 19.4962 11.7354 19.4934C11.8417 19.5048 11.9395 19.5105 11.8976 19.5019C12.0934 19.5361 12.7031 19.6615 12.9632 19.7441C13.9533 20.0575 14.9182 20.613 15.7881 21.18C23.4488 26.1743 27.756 36.9663 37.9479 37.3566C42.9656 37.5503 47.7986 35.086 50.5731 30.8295C52.5198 27.8466 53.7196 24.3965 55.1069 21.1258C55.725 19.67 56.3767 18.2284 57.2186 16.8894C57.3948 16.6102 57.5766 16.3338 57.7723 16.066C57.8059 16.0176 57.9569 15.8352 58.0772 15.6842C58.5778 15.9834 59.0198 16.3623 59.4477 16.7811C61 18.3025 62.2278 20.1942 63.2655 22.1059C66.8735 28.7612 69.9556 40.0689 79.4315 38.935C85.5456 38.2028 89.1983 33.3452 91.984 28.2569C93.3349 25.7897 94.5572 23.2512 95.9109 20.7868C96.543 19.6387 97.1974 18.4991 97.9274 17.4136C98.2407 16.9464 98.5651 16.4877 98.9119 16.0461C99.0602 15.858 99.2168 15.6757 99.365 15.4905C99.4517 15.3993 99.5384 15.3053 99.6307 15.2199C99.6783 15.1771 99.7258 15.1344 99.7734 15.0888C99.8685 15.1401 99.9636 15.1942 100.056 15.2483C100.07 15.2711 100.425 15.519 100.517 15.6016C100.968 15.9948 101.37 16.4392 101.742 16.9093C102.573 17.9521 103.163 18.9976 103.742 20.1543C105.143 22.9577 106.237 25.9093 107.512 28.7726C108.662 31.3538 109.943 34.1144 111.92 36.1543C114.899 39.2227 119.245 39.482 123.08 37.9862C127.247 36.3623 130.173 32.7412 132.422 28.9521C134.777 24.9834 136.427 20.6358 138.796 16.6728C139.786 15.0176 140.885 13.3224 142.222 12.0689C142.345 11.9521 142.474 11.8438 142.597 11.7298C142.619 11.7099 142.695 11.6501 142.773 11.5845C142.899 11.6387 143.022 11.6985 143.145 11.7612C143.411 11.8979 143.556 11.9834 143.78 12.1486C144.538 12.7099 145.184 13.462 145.763 14.2028C147.016 15.8153 147.978 17.6273 148.881 19.4592C150.89 23.519 152.556 27.9065 155.655 31.2711C157.09 32.8295 158.872 34.1287 160.944 34.6016C163.671 35.2227 166.712 34.4763 169.05 32.9862C172.084 31.0489 173.542 27.7013 174.372 24.2882C175.251 20.6785 175.603 16.9606 176.336 13.3196C176.691 11.556 177.122 9.79251 177.793 8.12299C178.106 7.34521 178.512 6.60732 179.026 5.88368C179.225 5.60447 179.407 5.37086 179.535 5.23695C179.689 5.07456 179.854 4.92926 180.019 4.78396C180.114 4.70134 180.263 4.59878 180.335 4.55034C180.369 4.5304 180.4 4.51046 180.433 4.49051H180.436C180.444 4.49051 180.45 4.49051 180.458 4.49051L180.461 4.47912ZM256.847 29.1714C256.87 29.1828 256.861 29.1971 256.789 29.2028C256.811 29.1914 256.831 29.18 256.847 29.1714ZM229.393 5.92641C229.393 5.92641 229.393 5.93496 229.393 5.94066C229.393 5.94066 229.393 5.94066 229.39 5.94066C229.39 5.94066 229.39 5.94066 229.393 5.94066C229.393 5.94066 229.39 5.94635 229.385 5.94635C229.396 5.95205 229.404 5.9549 229.418 5.9606C229.407 5.9549 229.396 5.95205 229.385 5.94635C229.376 5.9492 229.362 5.9492 229.345 5.94635C229.18 5.96915 229.158 5.92356 229.194 5.88937C229.046 5.821 228.92 5.74123 229.219 5.87228C229.27 5.84379 229.354 5.84094 229.393 5.92641ZM214.209 25.3224C214.209 25.3224 214.192 25.3224 214.181 25.3224C214.354 25.2911 214.897 25.3595 214.209 25.3224ZM214.175 25.3224C214.175 25.3224 214.169 25.3224 214.167 25.3224C214.39 25.2455 214.704 25.1429 214.175 25.3224ZM214.083 25.3538C214.052 25.3737 214.03 25.3879 214.018 25.3965C213.862 25.4905 213.901 25.4563 213.971 25.4022C214.004 25.3879 214.044 25.3709 214.083 25.3538ZM41.3182 32.9036C41.3769 32.9122 41.3993 32.915 41.3182 32.9036V32.9036ZM57.3192 15.3167C57.3192 15.3167 57.3081 15.3167 57.3053 15.3167C57.1179 15.2284 57.2102 15.2683 57.3192 15.3167ZM57.2997 15.3196C56.8773 15.3965 57.0731 15.2398 57.2997 15.3196V15.3196ZM80.9083 34.5332C80.9083 34.5332 80.8915 34.5389 80.8831 34.5418C80.8663 34.5418 80.8552 34.5389 80.8412 34.5361C80.8188 34.5275 80.7964 34.5162 80.774 34.5076C80.9782 34.4763 81.1628 34.4592 80.9083 34.5332ZM80.7992 34.5332C80.6957 34.519 80.7237 34.5133 80.7992 34.5332V34.5332ZM79.5798 34.9179C79.7308 34.6444 80.0133 34.576 80.0301 34.6244C79.8734 34.6985 79.6273 34.8324 79.5798 34.9179ZM99.1665 14.8125C99.1665 14.8125 99.1665 14.8125 99.1721 14.8125C99.1721 14.8125 99.1749 14.8125 99.1776 14.8125C99.1776 14.8125 99.1748 14.8125 99.1721 14.8125C99.1721 14.8125 99.1693 14.8125 99.1665 14.8125ZM99.2839 14.858C99.2839 14.858 99.2839 14.858 99.2867 14.858C99.3371 14.878 99.3874 14.9008 99.4378 14.9207C99.4014 14.9065 99.3455 14.8865 99.2727 14.8552C99.2755 14.8552 99.2811 14.8552 99.2839 14.8552V14.858ZM100.386 14.5304C100.456 14.4677 100.487 14.4392 100.386 14.5304V14.5304ZM100.506 14.4763C100.615 14.405 100.71 14.3452 100.727 14.3566C100.736 14.3623 100.629 14.4164 100.506 14.4763ZM180.495 4.44493C180.562 4.40504 180.626 4.36801 180.696 4.33097C180.651 4.35661 180.59 4.3965 180.531 4.43638C180.52 4.43923 180.509 4.44493 180.495 4.44778V4.44493Z" fill="#31EB2D"/>
</svg>
